<svg width="70" height="74" viewBox="0 0 70 74" fill="none" xmlns="http://www.w3.org/2000/svg">
<path d="M51.9057 0.49794C49.6152 0.515639 47.5768 1.16254 46.0326 2.40329C45.9851 2.43407 45.9408 2.46954 45.9003 2.50915L26.5086 26.1413L26.4292 26.2206L0.291328 49.8528C0.274286 49.8706 0.255232 49.8892 0.238418 49.9053C0.156677 50.0186 0.104236 50.1504 0.0857723 50.2889C0.0673083 50.4275 0.0833945 50.5684 0.132596 50.6991C0.00481056 51.1111 -0.0180649 51.5429 0.0796851 51.943C0.244996 52.6196 0.635199 53.2389 1.1379 53.8749C2.06839 55.0518 3.46522 56.2801 5.05329 57.5797C4.11238 58.4017 3.0857 59.301 2.35484 59.935C1.73496 60.4728 1.22974 60.9302 0.873345 61.2317C0.727262 61.3553 0.641566 61.453 0.555881 61.5228C0.537944 61.531 0.520296 61.5397 0.50297 61.5491C0.4723 61.5627 0.464336 61.5677 0.450059 61.5754C0.421507 61.5906 0.430814 61.5965 0.423604 61.6016C0.415381 61.6101 0.396936 61.6279 0.397149 61.6279C0.27226 61.7061 0.169957 61.8156 0.100359 61.9456C0.0307608 62.0755 -0.00372306 62.2214 0.00031848 62.3688C0.000335333 62.3692 0.188566 62.6511 0.344238 62.8716L0.264872 62.9512C3.56769 66.0468 8.01394 69.3743 12.1698 71.4196C14.2477 72.4422 16.2578 73.144 18.0693 73.2987C19.8808 73.4533 21.5931 72.998 22.6725 71.6313C23.0008 71.2157 23.2747 70.7824 23.5191 70.3082L40.7151 49.2696C40.6814 49.668 40.6357 50.0716 40.6357 50.4869C40.6357 52.4722 41.0306 54.2672 41.7204 55.6473C42.4102 57.0273 43.476 58.1085 44.8686 58.1085C46.2612 58.1085 47.3269 57.0273 48.0168 55.6473C48.7066 54.2672 49.1014 52.4722 49.1014 50.4869C49.1014 49.257 48.931 48.1112 48.6517 47.073C49.9601 47.6309 51.5635 47.9464 53.3343 47.9464C55.3189 47.9464 57.1134 47.5513 58.4931 46.8613C59.8727 46.1712 60.9534 45.1053 60.9534 43.7122C60.9534 42.3191 59.8727 41.2265 58.4931 40.5365C57.1134 39.8465 55.3188 39.478 53.3343 39.478C51.7218 39.478 50.2366 39.7312 48.9956 40.1925L67.4614 23.1498C67.4896 23.1251 67.5161 23.0986 67.5408 23.0705C70.6742 19.2383 70.2137 11.7898 64.0751 5.84257C64.0753 5.83376 64.0753 5.82496 64.0751 5.81616C60.2138 2.17003 55.7232 0.467503 51.9057 0.496958L51.9057 0.49794ZM51.4824 2.24451C54.8745 2.08942 59.1558 3.51493 62.9111 7.06093C68.5693 12.5428 68.5919 19.0832 66.218 21.9864L46.1384 40.5111C46.0379 40.3207 45.9472 40.0943 45.8739 39.7966C45.6538 38.9033 45.6792 37.5716 45.9003 36.171C46.3426 33.3696 47.6015 30.1702 48.6517 28.8141C48.7623 28.681 48.8294 28.5172 48.8441 28.3447C48.8588 28.1723 48.8203 27.9995 48.7339 27.8496C48.6474 27.6997 48.5171 27.5799 48.3605 27.5063C48.2039 27.4327 48.0286 27.4088 47.858 27.438C47.6439 27.4802 47.4544 27.6034 47.3289 27.782C45.9352 29.5818 44.6928 32.8304 44.2072 35.9064C44.1272 36.413 44.0793 36.925 44.0485 37.4149C42.9537 35.292 41.4277 33.3816 39.604 31.6722C36.6436 28.8973 32.4573 27.0829 28.3869 26.5382L47.1702 3.67355C47.9488 3.0668 48.927 2.62479 50.0803 2.40329C50.5241 2.31806 50.9978 2.26666 51.4824 2.24451ZM26.8789 28.0731C30.951 28.3185 35.4878 30.1488 38.4399 32.916C40.8588 35.1832 42.6467 37.6717 43.5193 40.5905C42.4269 40.0509 41.0928 39.7365 39.6569 39.5849C38.1089 39.4215 36.4646 39.4307 34.9478 39.5849C33.431 39.7391 32.0553 40.0442 31.006 40.4846C30.8926 40.5182 30.7875 40.5751 30.6975 40.6518C30.6075 40.7284 30.5345 40.823 30.4832 40.9296C30.432 41.0362 30.4036 41.1523 30.3999 41.2705C30.3963 41.3887 30.4174 41.5063 30.4619 41.6159C30.5065 41.7254 30.5735 41.8244 30.6586 41.9065C30.7437 41.9886 30.845 42.0519 30.9561 42.0924C31.0671 42.133 31.1855 42.1497 31.3034 42.1417C31.4214 42.1338 31.5363 42.1011 31.6409 42.046C33.2223 41.3822 36.6522 40.9808 39.4717 41.2786C40.8814 41.4275 42.1582 41.7345 42.9638 42.1784C43.3505 42.3914 43.6135 42.5938 43.7839 42.8134L43.3606 43.3427C42.6854 43.7788 42.1348 44.472 41.7204 45.3011C41.7048 45.3324 41.7092 45.3756 41.6939 45.4069L24.6302 66.2338C24.7242 65.0118 24.6182 63.7384 24.3921 62.4496C24.3369 62.1135 24.2822 61.783 24.207 61.444C24.1822 61.3385 24.1544 61.2317 24.1276 61.1264C23.388 58.0515 21.7992 54.929 19.3392 52.5521C19.3223 52.5339 19.3047 52.5163 19.2863 52.4996C19.2817 52.4912 19.2909 52.4776 19.2863 52.4734C19.2776 52.4644 19.2688 52.4557 19.2598 52.4471C19.2431 52.4285 19.2238 52.4124 19.2069 52.3946C19.1978 52.3861 19.1895 52.3768 19.1804 52.3683C17.7223 50.8055 15.6537 49.6272 13.3867 48.8223C11.9203 48.2676 10.4237 47.8859 8.96867 47.7108C7.61492 47.5478 6.32952 47.5744 5.10619 47.737L26.8789 28.0731ZM53.3343 41.1727C55.0901 41.1727 56.6808 41.5365 57.7523 42.0725C58.8239 42.6084 59.2603 43.2354 59.2603 43.7132C59.2603 44.191 58.8239 44.7916 57.7523 45.3275C56.6808 45.8635 55.0901 46.2538 53.3343 46.2538C51.5785 46.2538 49.9878 45.8635 48.9162 45.3275C47.8447 44.7916 47.4083 44.191 47.4083 43.7132C47.4083 43.2354 47.8447 42.6084 48.9162 42.0725C49.9878 41.5365 51.5785 41.1727 53.3343 41.1727ZM44.8157 44.5601C44.8509 44.5623 44.8862 44.5623 44.9215 44.5601C45.3926 44.5881 45.9907 45.032 46.5088 46.0685C47.0446 47.1404 47.4083 48.7316 47.4083 50.4879C47.4083 52.2443 47.0446 53.809 46.5088 54.8809C45.973 55.9528 45.3462 56.4158 44.8686 56.4158C44.391 56.4158 43.7641 55.9528 43.2283 54.8809C42.6926 53.809 42.3289 52.2443 42.3289 50.4879C42.3289 48.8336 42.6637 47.3456 43.149 46.2802L44.4188 44.7188C44.5632 44.6452 44.6867 44.5678 44.8157 44.5601ZM7.09035 49.3764C7.86374 49.3769 8.67487 49.4315 9.49779 49.5616C10.713 49.7542 11.9377 50.0767 13.0957 50.5144C12.7055 50.8613 12.1812 51.3155 11.5613 51.8641C10.2761 53.0015 8.60141 54.4715 6.93162 55.9395C6.70998 56.1343 6.5437 56.2752 6.32315 56.4687C4.67862 55.1287 3.27051 53.8411 2.46067 52.8168C2.04223 52.2875 1.79052 51.8354 1.71992 51.5465C1.64931 51.2576 1.6601 51.1996 1.79929 51.0437C2.78466 49.9398 4.77019 49.3749 7.09035 49.3764ZM14.5243 51.4936C18.2445 53.1672 20.9015 56.6318 22.1434 60.3589C22.3052 60.8443 22.454 61.3535 22.5667 61.8408C22.6324 62.1372 22.6772 62.4207 22.7255 62.7143C23.2371 65.8275 22.7091 68.658 21.5085 70.071L21.3498 70.2563C21.2088 70.417 21.1332 70.6248 21.1381 70.8385C20.4727 71.5047 19.5233 71.7454 18.2016 71.6325C16.731 71.5068 14.9009 70.8788 12.937 69.9123C9.28519 68.1151 5.3101 65.1529 2.19611 62.3438C2.54562 62.0462 2.93773 61.6906 3.46597 61.2323C4.7111 60.1521 6.37138 58.679 8.04274 57.2097C9.7141 55.7404 11.4121 54.2732 12.6989 53.1344C13.3423 52.5649 13.8642 52.0838 14.2597 51.7317C14.407 51.6005 14.4275 51.5796 14.5243 51.4936Z" fill="#B68C6E"/>
</svg>
