<svg width="63" height="74" viewBox="0 0 63 74" fill="none" xmlns="http://www.w3.org/2000/svg">
<path d="M9.11863 24.4017C9.05519 23.758 9.22254 23.0871 9.77976 22.5451C10.3425 21.9941 11.3429 21.8524 12.0151 22.0966C12.7167 22.31 13.2445 22.7122 13.6693 23.1652C14.0813 23.6327 14.4022 24.1575 14.5695 24.7921C13.9194 24.6368 13.399 24.3944 12.8978 24.1802C12.4031 23.9659 11.9452 23.7626 11.5498 23.6427C11.1397 23.5202 10.8878 23.4975 10.5016 23.5892C10.1062 23.6918 9.66391 24.0322 9.11863 24.4017Z" fill="#B68C6E"/>
<path d="M62.6417 22.5805C62.1259 20.9745 61.0078 19.6636 59.4924 18.8883C58.183 18.2174 56.721 18.0231 55.3013 18.3082C55.2663 18.1992 55.2341 18.0839 55.1964 17.9795C52.0563 8.70576 43.5765 2.13561 33.0665 0.831925C24.3394 -0.248424 16.3194 2.46244 11.4147 7.99401C11.3999 8.01216 11.3788 8.02306 11.365 8.04303C11.3595 8.0512 11.3577 8.05846 11.3531 8.06663C10.7544 8.74843 10.1935 9.46564 9.69333 10.231C7.05156 14.6205 5.8801 19.8406 5.7762 27.68C5.73114 29.8706 3.56936 32.2292 1.99239 33.9514C0.905526 35.138 0.187386 35.9224 0.0393437 36.6369C-0.036976 36.9737 -0.0397344 37.5021 0.382323 38.1003C1.08483 39.0954 2.63421 39.8162 3.87464 40.0432C3.77441 40.4163 3.45534 41.0491 3.28523 41.3859C3.12983 41.6945 2.98915 41.9787 2.8834 42.2493C2.73812 42.6941 2.80892 43.1571 3.08294 43.552C3.40201 44.0096 3.97395 44.3373 4.60014 44.5697C3.84062 44.9828 3.22822 45.6129 3.27971 46.7268C3.3404 47.7527 4.33808 48.0986 4.93576 48.3056C5.00105 48.3283 5.0792 48.3564 5.1546 48.3836C4.62772 49.9497 4.19279 52.0623 5.42954 53.7463C7.42764 56.0614 10.0354 56.4454 17.5579 55.5248C17.6039 55.5194 17.6499 55.5103 17.694 55.4967C18.1087 55.3741 18.6283 55.6556 18.9896 55.9161C21.4254 57.6647 24.1757 63.3923 24.2437 66.8449C24.2465 69.5194 23.8391 70.3474 21.819 71.7637C21.5284 71.967 21.4052 72.3329 21.5137 72.667C21.6213 72.9993 21.9367 73.2262 22.2916 73.2262H55.042C55.3849 73.2262 55.6921 73.0147 55.8097 72.696C55.9274 72.3774 55.8309 72.0206 55.5688 71.8027C53.4677 70.0533 51.3078 67.1036 49.1653 63.0673C44.5981 53.4876 44.2735 49.5266 44.8206 49.1925C50.8361 45.5874 54.2291 37.8797 55.498 30.7049C55.8557 30.7649 56.2134 30.8003 56.5693 30.8003C58.8975 30.8003 61.0979 29.5356 62.2243 27.3904C63.0095 25.8942 63.1585 24.1856 62.6417 22.5805ZM43.9673 47.8153C41.9729 49.03 43.2243 54.3927 47.7015 63.7836C49.4872 67.149 51.2361 69.731 53.0089 71.6112H24.4938C25.5605 70.4246 25.8805 69.1136 25.8777 66.8249C25.7977 62.824 22.8065 56.6578 19.9505 54.607C19.0163 53.9361 18.1234 53.7109 17.294 53.9279C9.22621 54.9084 7.89844 54.1168 6.71226 52.7477C6.07044 51.8707 6.10446 50.5398 6.8318 48.5244C7.18949 47.3741 5.94447 46.9429 5.47551 46.7804C5.3054 46.7214 5.03599 46.6278 4.91277 46.5507C4.94495 46.1276 5.38172 45.9106 6.55594 45.5248C6.98444 45.3841 7.42764 45.2379 7.82855 45.04C8.15958 44.8757 8.33796 44.5125 8.26256 44.1539C8.18716 43.7953 7.87729 43.5321 7.50672 43.5121C6.0778 43.4349 4.75002 42.9764 4.46589 42.6814C4.54037 42.5125 4.64151 42.3146 4.74818 42.1013C5.27782 41.0491 5.82585 39.9615 5.36885 39.138C5.24747 38.9201 4.94587 38.5434 4.31141 38.4771C3.32937 38.3473 2.12021 37.7381 1.72206 37.1743C1.64022 37.0581 1.63102 36.9937 1.63654 36.9728C1.71194 36.6605 2.57445 35.719 3.20431 35.0309C4.95507 33.1198 7.35224 30.5025 7.41109 27.7045C7.5104 20.162 8.61382 15.1824 11.0827 11.078C11.251 10.8202 11.4367 10.5759 11.6188 10.3281C12.6634 11.8351 15.1672 13.6309 18.3809 15.9278C23.0208 19.246 28.7962 23.3749 30.3134 27.1262L30.6803 28.0331L31.5134 27.5057C33.1308 26.4825 34.7786 26.2919 35.8121 27.0072C36.7234 27.6382 37.0296 28.9528 36.6471 30.6269C36.1312 33.0672 35.4508 33.4558 34.3225 34.0994C33.3644 34.646 32.1736 35.3259 30.8008 37.2025C30.5369 37.5638 30.6187 38.0677 30.9847 38.3291C31.1291 38.4326 31.2964 38.4816 31.4619 38.4816C31.7157 38.4816 31.9658 38.3654 32.1249 38.1466C33.2936 36.5497 34.2738 35.9896 35.14 35.4957C35.4048 35.3441 35.6623 35.1961 35.9096 35.0327C37.3946 39.9914 42.8952 43.2016 48.1989 44.0141C46.9806 45.5448 45.5765 46.8512 43.9673 47.8153ZM49.2665 42.5625C49.2214 42.5498 49.1819 42.5252 49.1332 42.5198C43.0717 41.8489 38.0153 38.0586 37.2641 33.6655C37.6512 33.0454 37.984 32.202 38.2443 30.9709C38.7776 28.6387 38.2332 26.7122 36.751 25.6872C35.3579 24.7231 33.3809 24.7412 31.4417 25.6936C29.3783 21.7989 24.0653 18.0004 19.3409 14.6214C16.6678 12.7103 12.6413 9.82969 12.7351 8.94453C17.2812 3.89412 24.7366 1.42476 32.8623 2.43157C42.7434 3.65808 50.7074 9.81063 53.6507 18.5015C55.4438 23.522 54.2925 35.03 49.2665 42.5625ZM60.7733 26.6468C59.8041 28.4934 57.7692 29.4503 55.7491 29.1008C56.2171 25.6273 56.1794 22.3717 55.6966 19.8742C56.7293 19.6845 57.7904 19.8325 58.7412 20.3191C59.8685 20.8965 60.7006 21.8724 61.0841 23.0671C61.4684 24.2628 61.3572 25.5338 60.7733 26.6468Z" fill="#B68C6E"/>
<path d="M9.11863 27.6273C9.23541 27.0027 9.69057 26.448 10.3572 26.1684C11.0239 25.8879 11.7981 25.9423 12.4068 26.1684C13.0275 26.3935 13.5305 26.7639 13.9396 27.1952C14.3415 27.6373 14.6679 28.1321 14.8426 28.7476C14.2045 28.6296 13.6877 28.4208 13.1948 28.2292C12.7084 28.0304 12.2588 27.8334 11.8432 27.6827C11.4229 27.5329 11.0606 27.4303 10.6496 27.4003C10.234 27.3568 9.74206 27.4521 9.11863 27.6273Z" fill="#B68C6E"/>
<path d="M14.8426 49.6537C14.5401 49.6537 14.2486 49.4867 14.1079 49.1998C13.9102 48.7994 14.0785 48.3165 14.4849 48.1213C14.6026 48.065 14.7176 48.0087 14.8325 47.9497C15.2343 47.7454 15.7263 47.9007 15.9341 48.2965C16.141 48.6932 15.9837 49.1789 15.5828 49.3841C15.4568 49.4476 15.329 49.5112 15.2003 49.5729C15.0844 49.6274 14.9621 49.6537 14.8426 49.6537Z" fill="#B68C6E"/>
<path d="M17.7851 47.8244C17.546 47.8244 17.3087 47.7209 17.1469 47.523C16.8646 47.1753 16.9207 46.6669 17.2729 46.3882C17.4623 46.2384 17.6471 46.084 17.8274 45.9252C18.163 45.6283 18.6807 45.6573 18.9813 45.9905C19.2811 46.3228 19.2517 46.833 18.9151 47.129C18.7128 47.3069 18.5069 47.4803 18.2954 47.6474C18.1455 47.7663 17.9644 47.8244 17.7851 47.8244ZM20.4425 45.0963C20.2723 45.0963 20.1013 45.0445 19.9542 44.9365C19.5928 44.6705 19.5183 44.1639 19.7878 43.8071C19.933 43.6147 20.0737 43.4186 20.2117 43.2179C20.4654 42.8493 20.973 42.754 21.3463 43.0028C21.7197 43.2533 21.818 43.7545 21.5643 44.124C21.4135 44.3437 21.2571 44.5607 21.0971 44.7713C20.9372 44.9846 20.6916 45.0963 20.4425 45.0963ZM22.3817 41.8271C22.2686 41.8271 22.1546 41.8044 22.0443 41.7554C21.6332 41.5711 21.4512 41.0926 21.6378 40.6868C21.739 40.4671 21.8364 40.2429 21.9312 40.015C22.1031 39.6038 22.5822 39.4095 22.9978 39.5765C23.4152 39.7463 23.6139 40.2184 23.4419 40.6296C23.3398 40.8748 23.2341 41.1162 23.1256 41.3532C22.9904 41.651 22.6925 41.8271 22.3817 41.8271ZM23.6617 38.252C23.5918 38.252 23.521 38.2429 23.4502 38.2247C23.0143 38.1094 22.755 37.6673 22.8709 37.237C22.9343 37.0018 22.995 36.7631 23.0539 36.5216C23.1578 36.0876 23.5973 35.8207 24.0378 35.9233C24.4764 36.0259 24.7476 36.4608 24.6437 36.8947C24.5821 37.1507 24.5177 37.4031 24.4506 37.6528C24.3532 38.0132 24.0221 38.252 23.6617 38.252ZM24.4102 34.5288C24.3725 34.5288 24.3348 34.5261 24.2971 34.5216C23.8502 34.4608 23.5375 34.0531 23.5991 33.6119C23.6332 33.3686 23.6654 33.1226 23.6948 32.8747C23.7481 32.4317 24.1564 32.1158 24.6023 32.1675C25.0501 32.2202 25.3711 32.6214 25.3186 33.0636C25.2874 33.3223 25.2552 33.5792 25.2193 33.8325C25.1623 34.2365 24.812 34.5288 24.4102 34.5288ZM24.7531 30.7476C24.7403 30.7476 24.7283 30.7476 24.7154 30.7467C24.2649 30.7258 23.9155 30.3491 23.9357 29.9042C23.9476 29.6573 23.9568 29.4085 23.9642 29.158C23.9771 28.7131 24.3642 28.3718 24.8046 28.3754C25.2561 28.3881 25.611 28.7603 25.5973 29.2052C25.5899 29.4648 25.5798 29.7217 25.5678 29.9768C25.5485 30.4099 25.1872 30.7476 24.7531 30.7476Z" fill="#B68C6E"/>
<path d="M24.7835 26.9364C24.3412 26.9364 23.9771 26.5878 23.967 26.1484L23.955 25.7544C23.9394 25.3086 24.2925 24.9355 24.743 24.9192C25.2193 24.9037 25.5724 25.2524 25.589 25.6972L25.6009 26.1103C25.612 26.556 25.2543 26.9255 24.8028 26.9355C24.7964 26.9364 24.7899 26.9364 24.7835 26.9364Z" fill="#B68C6E"/>
<path d="M19.6609 34.5279L18.3781 32.0268C18.3662 32.0041 18.3432 31.9905 18.3294 31.9687C18.2917 31.9097 18.2485 31.8588 18.197 31.8107C18.1639 31.7808 18.1326 31.7526 18.0959 31.7281C18.0379 31.69 17.9754 31.6645 17.9092 31.6419C17.8788 31.6319 17.8549 31.6092 17.8237 31.6019C17.809 31.5983 17.7933 31.6046 17.7786 31.6019C17.7602 31.5992 17.7455 31.5883 17.7271 31.5865C17.6701 31.581 17.6195 31.5974 17.5653 31.6037C17.5221 31.6083 17.4807 31.6055 17.4384 31.6173C17.3437 31.6428 17.2591 31.6854 17.1809 31.7408C17.1681 31.7499 17.1524 31.7508 17.1405 31.7599L17.1304 31.7671C17.1285 31.768 17.1276 31.7699 17.1258 31.7708L15.0569 33.4031C14.7038 33.6809 14.6468 34.1893 14.9281 34.537C15.2104 34.8856 15.7244 34.9419 16.0766 34.6641L16.4499 34.37C15.8605 36.596 14.6955 39.158 13.2233 40.7567C12.9199 41.0872 12.9438 41.5965 13.2776 41.897C13.4348 42.0368 13.6316 42.1067 13.8275 42.1067C14.05 42.1067 14.2716 42.0177 14.4325 41.8425C16.1051 40.0259 17.3538 37.2715 18.003 34.8647L18.2034 35.256C18.3478 35.5366 18.6347 35.6982 18.9335 35.6982C19.0577 35.6982 19.1836 35.67 19.3023 35.611C19.7032 35.4104 19.865 34.9256 19.6609 34.5279Z" fill="#B68C6E"/>
</svg>
