<svg width="50" height="78" viewBox="0 0 50 78" fill="none" xmlns="http://www.w3.org/2000/svg">
<path d="M19.3168 75.9009C17.181 72.8485 15.0218 69.8176 12.7755 66.8907C10.5197 63.9517 8.16301 61.095 5.62963 58.3881C4.89378 57.6024 4.37606 57.0057 3.95636 56.3226C3.5339 55.6327 3.22326 54.8753 2.91125 53.7777C2.40872 52.0119 2.20577 49.9234 2.50674 47.7106C2.5592 47.3218 2.62823 46.9303 2.71383 46.5347L1.54309 47.3515C1.45059 47.4163 1.32082 47.3947 1.25455 47.3043C1.18828 47.2138 1.21037 47.0869 1.30287 47.0221L2.65584 46.0784L2.65722 46.0771C2.48327 45.8111 2.33831 45.5357 2.21958 45.2522L0.665036 45.8206C0.558731 45.8597 0.44 45.8057 0.399963 45.7018C0.359926 45.5978 0.41515 45.4817 0.521455 45.4426L2.07876 44.8728H2.08014C1.9835 44.5745 1.91585 44.2707 1.87719 43.9656L0.226009 44.1209C0.112801 44.1317 0.0120184 44.0493 0.000973726 43.9386C-0.010071 43.8279 0.0741448 43.7294 0.187353 43.7186L1.8413 43.5619H1.84268C1.82887 43.2514 1.84406 42.9409 1.88686 42.6345L0.249479 42.3672C0.136271 42.3483 0.060339 42.2443 0.0796672 42.1349C0.0989954 42.0242 0.205301 41.95 0.317128 41.9689L1.95589 42.2362H1.95865C2.0263 41.9338 2.12294 41.6381 2.24581 41.3519L0.735446 40.6796C0.631902 40.6337 0.586343 40.5135 0.633283 40.4123C0.680223 40.311 0.803095 40.2665 0.906639 40.3124L2.41976 40.9861L2.42114 40.9874C2.5661 40.7147 2.7373 40.4528 2.93334 40.2057L1.65216 39.173C1.5638 39.1027 1.55137 38.9745 1.62316 38.8894C1.69495 38.803 1.82611 38.7909 1.91309 38.8611L3.19565 39.8952L3.19841 39.8979C3.40964 39.6725 3.64296 39.4632 3.90113 39.2742L2.9361 37.9512C2.86983 37.8607 2.89192 37.7338 2.98442 37.669C3.07692 37.6042 3.2067 37.6258 3.27297 37.7163L4.238 39.0393L4.24076 39.042C4.51273 38.8719 4.79437 38.7301 5.08292 38.614L4.50031 37.0925C4.46027 36.9886 4.51549 36.8725 4.6218 36.8333C4.7281 36.7942 4.84684 36.8482 4.88687 36.9521L5.46948 38.475L5.47086 38.4763C5.77597 38.3818 6.0866 38.3157 6.39862 38.2779L6.23847 36.6619C6.22742 36.5512 6.31164 36.4526 6.42485 36.4418C6.53805 36.431 6.63884 36.5134 6.64988 36.6241L6.81003 38.2414V38.2428C7.12757 38.2293 7.4451 38.2441 7.75849 38.286L8.03185 36.6848C8.05118 36.5741 8.15748 36.4999 8.26931 36.5188C8.38252 36.5377 8.45845 36.6416 8.43912 36.751L8.16577 38.3535V38.3562C8.47502 38.4223 8.77737 38.5168 9.07005 38.637L9.75758 37.16C9.80452 37.0588 9.9274 37.0142 10.0309 37.0601C10.1345 37.106 10.18 37.2262 10.1331 37.3274L9.44419 38.8071L9.44281 38.8084C9.72169 38.9502 9.98952 39.1176 10.2422 39.3093L11.2983 38.0565C11.3701 37.9701 11.5013 37.9579 11.5882 38.0281C11.6766 38.0983 11.689 38.2266 11.6172 38.3116L10.5597 39.5658L10.5569 39.5685C10.7875 39.7751 11.0015 40.0032 11.1948 40.2557L12.5478 39.312C12.6403 39.2472 12.77 39.2688 12.8363 39.3593C12.9026 39.4497 12.8805 39.5766 12.788 39.6414L11.435 40.5851L11.4322 40.5878C11.6062 40.8538 11.7512 41.1292 11.8699 41.4113L13.4258 40.8416C13.5321 40.8025 13.6508 40.8565 13.6909 40.9604C13.7309 41.0644 13.6757 41.1805 13.5694 41.2196L12.0121 41.7893L12.0107 41.7907C12.1073 42.089 12.175 42.3928 12.2136 42.6979L13.8662 42.5413C13.9794 42.5305 14.0802 42.6129 14.0912 42.7236C14.1023 42.8343 14.0181 42.9328 13.9049 42.9436L12.2509 43.1002H12.2495C12.2633 43.4107 12.2482 43.7212 12.2054 44.0277L13.8427 44.295C13.9559 44.3139 14.0319 44.4179 14.0126 44.5272C13.9932 44.6379 13.8869 44.7122 13.7751 44.6933L12.1363 44.426H12.1336C12.0659 44.7284 11.9693 45.024 11.8464 45.3103L13.3568 45.9826C13.4603 46.0285 13.5059 46.1486 13.4589 46.2499C13.412 46.3511 13.2891 46.3957 13.1856 46.3498L11.6725 45.6761L11.6711 45.6748C11.5261 45.9475 11.3549 46.2094 11.1589 46.4564L12.4401 47.4879C12.5284 47.5581 12.5408 47.6863 12.4691 47.7714C12.3973 47.8578 12.2661 47.8699 12.1791 47.7997L10.8966 46.7656L10.8938 46.7629C10.6826 46.9884 10.4493 47.1976 10.1911 47.3866L11.1561 48.7097C11.2224 48.8001 11.2003 48.927 11.1078 48.9918C11.0153 49.0566 10.8855 49.035 10.8193 48.9446L9.85423 47.6215L9.85285 47.6202C9.58087 47.7903 9.29923 47.932 9.00931 48.0481L9.59053 49.5683C9.63057 49.6722 9.57535 49.7884 9.46904 49.8275C9.36274 49.8667 9.24401 49.8127 9.20397 49.7087L8.62136 48.1859V48.1845C8.31763 48.279 8.007 48.3438 7.69361 48.3816L7.85375 49.9976C7.8648 50.1083 7.78058 50.2069 7.66737 50.2177C7.55417 50.2285 7.45338 50.1461 7.44234 50.0354L7.33189 48.923C7.07372 49.7249 6.96189 50.435 6.95361 51.0736C6.94119 51.9471 7.21316 52.9529 7.64114 53.9276C8.13263 55.0481 8.82293 56.112 9.52426 56.8855C10.5252 57.9899 11.7857 58.8148 13.0572 59.6464C14.279 60.4456 15.5105 61.2516 16.5873 62.337C17.0057 62.7542 18.3945 64.466 20.0913 66.6599C21.5119 68.4986 23.1589 70.687 24.6389 72.7459C25.4452 73.8678 25.4024 75.1098 24.8667 76.0548C24.6486 76.4396 24.3504 76.773 23.9956 77.0296C23.6366 77.2888 23.2169 77.4697 22.7613 77.5453C21.6803 77.7248 20.4185 77.3104 19.332 75.9171L19.314 75.8942L19.3168 75.9009ZM24.7577 31.259C25.0586 31.2968 25.2726 31.5654 25.234 31.8598C25.1953 32.1541 24.9206 32.3633 24.6196 32.3255C23.2349 32.15 22.0034 31.6816 20.7719 31.2144C18.4732 30.341 16.1759 29.4688 13.071 30.7851C12.7921 30.9026 12.4691 30.777 12.3489 30.5043C12.2288 30.2316 12.3572 29.9157 12.6361 29.7982C16.1552 28.3051 18.6624 29.2582 21.1695 30.21C22.3403 30.6555 23.5124 31.0997 24.7577 31.2576V31.259ZM23.3771 35.5346C23.6408 35.6831 23.7305 36.0111 23.58 36.269C23.4282 36.5269 23.0927 36.6146 22.829 36.4675C19.5529 34.6206 18.2675 35.0175 17.0844 35.3834C16.3471 35.6115 15.6416 35.8289 14.6214 35.6534C14.3218 35.6021 13.3968 34.2412 13.4355 33.9469C13.4741 33.6526 13.7516 33.4447 14.0526 33.4825C14.6449 33.5595 15.3434 33.6027 16.0765 33.6459C17.725 33.7444 19.5363 33.8538 21.0025 34.4181H21.0038C21.6831 34.6597 22.4645 35.0189 23.3798 35.5346H23.3771ZM28.0159 32.3255C27.7149 32.3633 27.4388 32.1541 27.4015 31.8598C27.3628 31.5654 27.5768 31.2954 27.8778 31.259C29.1231 31.101 30.2952 30.6555 31.4659 30.2114C33.9731 29.2582 36.4802 28.3064 39.9993 29.7996C40.2782 29.917 40.4066 30.2343 40.2865 30.5057C40.1664 30.7784 39.842 30.9039 39.5645 30.7865C36.4595 29.4688 34.1622 30.3423 31.8635 31.2158C30.6321 31.6842 29.4006 32.1514 28.0159 32.3269V32.3255ZM21.4953 51.1775C21.291 50.9575 21.309 50.6173 21.534 50.4175C21.759 50.2177 22.1069 50.2352 22.3113 50.4553C22.3596 50.5066 22.4217 50.5714 22.4976 50.6497C23.8341 52.0051 25.2133 52.4911 26.511 52.4061C27.8295 52.3197 29.0913 51.6514 30.1558 50.7064C30.2096 50.6591 30.2786 50.5957 30.3615 50.5174C30.581 50.3108 30.9289 50.3176 31.1401 50.5322C31.3514 50.7469 31.3444 51.0871 31.1249 51.2937C31.0642 51.3504 30.9869 51.4206 30.8944 51.5043C29.6574 52.6005 28.1705 53.3768 26.5856 53.4821C24.9786 53.5874 23.297 53.0123 21.7052 51.3976C21.65 51.3409 21.5809 51.268 21.4967 51.1775H21.4953ZM20.7581 48.9581C20.7788 48.9486 20.8009 48.9405 20.823 48.9338C21.2524 48.765 21.7356 48.4397 22.2188 48.1116C23.6408 47.1504 25.078 46.1783 26.4544 47.7592C26.4668 47.7592 26.4972 47.7525 26.5469 47.7525C26.5994 47.7525 26.6408 47.7525 26.6532 47.7525C28.0297 46.1999 29.1769 47.1261 30.3753 48.094C30.962 48.5693 31.5667 49.0566 32.1024 49.0499C32.4061 49.0458 32.656 49.2848 32.6588 49.5818C32.6629 49.8788 32.4185 50.1232 32.1148 50.1259C31.8318 50.1299 31.564 50.0759 31.3099 49.9841C29.783 50.5903 28.1401 50.8184 26.413 50.7847C24.679 50.7509 22.869 50.4526 21.0149 50.0084C20.7691 50.0854 20.5193 50.1286 20.2666 50.1259C19.9629 50.1218 19.7199 49.8788 19.7227 49.5818C19.7268 49.2848 19.9753 49.0472 20.279 49.0499C20.4281 49.0512 20.5883 49.0175 20.7581 48.9567V48.9581ZM22.4949 49.2335C23.852 49.5089 25.1718 49.6857 26.4351 49.71C27.7163 49.7357 28.9436 49.6047 30.0964 49.2645C29.9528 49.1538 29.812 49.0404 29.6726 48.927C28.8939 48.2979 28.1484 47.6944 27.4636 48.4815C27.4305 48.5193 27.3973 48.5517 27.3615 48.5814C27.1557 48.7488 26.8424 48.8312 26.5483 48.8312C26.2528 48.8312 25.9394 48.7461 25.7379 48.5787C25.7006 48.5477 25.6675 48.5153 25.6385 48.4815C24.8971 47.6107 23.8672 48.3087 22.8456 48.9986C22.7282 49.0769 22.6122 49.1565 22.4963 49.2335H22.4949ZM29.8065 36.4675C29.5428 36.616 29.2073 36.5269 29.0554 36.269C28.9036 36.0111 28.9947 35.6831 29.2584 35.5346C30.1723 35.0189 30.9537 34.6597 31.6344 34.4181H31.6358C33.1019 33.8538 34.9133 33.7444 36.5617 33.6459C37.2934 33.6013 37.9934 33.5595 38.5856 33.4825C38.8866 33.4447 39.1627 33.6513 39.2028 33.9469C39.2442 34.2588 38.0555 35.6466 38.0168 35.6534C36.9966 35.8289 36.2911 35.6115 35.5539 35.3834C34.3707 35.0175 33.0854 34.6206 29.8092 36.4675H29.8065ZM6.5063 27.491C6.59052 27.5693 6.64988 27.6746 6.66921 27.7961C6.67197 27.8123 6.67335 27.8299 6.67473 27.8461C7.12204 28.7587 7.6439 29.6214 8.2348 30.4193C10.3816 28.8262 12.0135 26.7093 13.6467 24.5911C17.1189 20.0887 20.5924 15.5863 28.9795 15.5566C31.7131 15.3811 33.9386 14.6885 35.6823 13.6423C37.5833 12.5015 38.9128 10.9368 39.6984 9.1655C40.1567 8.13137 40.4329 7.02298 40.5309 5.88084C40.6303 4.71441 40.5433 3.52097 40.2768 2.34778C40.212 2.05752 40.3983 1.76996 40.6952 1.70651C40.992 1.64305 41.2861 1.82531 41.3509 2.11557C41.4241 2.43553 41.4849 2.75684 41.5332 3.07815C45.7854 6.77592 48.0385 11.6779 48.6101 16.5989C49.0519 20.4046 48.4858 24.2253 47.0583 27.514C48.9621 28.0877 49.241 29.6106 48.9497 31.3899C48.7965 32.3255 48.4803 33.307 48.1807 34.2426C47.8632 35.2308 47.5622 36.1664 47.518 36.8455C47.5001 37.1114 47.5084 37.3936 47.5153 37.6893C47.5594 39.3701 47.6119 41.4437 44.3372 43.3284C44.2322 44.322 44.0679 45.3481 43.8236 46.4132C43.1609 49.3104 39.9842 53.7669 36.258 57.3054C32.9735 60.4254 29.228 62.8622 26.3274 62.958C26.3163 62.958 26.3039 62.958 26.2929 62.958H26.2818C24.4567 62.8932 22.3113 61.9158 20.1603 60.4254C17.7484 58.7567 15.3075 56.436 13.3057 54.0531C13.1124 53.8236 13.1469 53.4848 13.3816 53.2958C13.6163 53.1068 13.9629 53.1405 14.1561 53.37C16.1028 55.6867 18.4691 57.9372 20.7954 59.5478C22.7793 60.9208 24.7176 61.8227 26.3108 61.8807C28.9077 61.7849 32.3854 59.4817 35.4917 56.5318C39.084 53.1203 42.1324 48.8825 42.7509 46.1797C43.7973 41.6071 43.3307 37.7136 42.882 33.9631C42.6708 32.2027 42.4637 30.4719 42.414 28.6818C40.6151 25.3012 38.5525 22.4432 36.0592 20.4114C32.9832 17.9043 29.2266 16.6461 24.4636 17.2077C19.7061 18.5227 17.1175 21.8802 14.5289 25.2364C12.7424 27.5531 10.9559 29.8698 8.46259 31.5884L8.45983 31.5897C8.21961 31.772 7.87308 31.7302 7.68532 31.4952C6.95775 30.5799 6.3213 29.5768 5.78011 28.5062C4.51826 28.8897 4.3443 29.9562 4.54863 31.2063C4.68669 32.0515 4.99318 33.0019 5.2831 33.9078C5.32314 34.0333 5.36317 34.1589 5.40321 34.2831C5.49433 34.5679 5.33142 34.869 5.04012 34.9581C4.74881 35.0472 4.44094 34.8879 4.34982 34.603C4.30979 34.4788 4.26975 34.3546 4.22971 34.2277C3.92874 33.2922 3.61397 32.3107 3.46073 31.3751C3.1708 29.6079 3.44416 28.0945 5.31347 27.5113C4.01572 24.5209 3.43035 21.0877 3.66781 17.6276C3.99225 12.8943 5.85466 8.10167 9.53807 4.30534C9.74792 4.08933 10.0958 4.08123 10.3167 4.28644C10.5376 4.49165 10.5459 4.83186 10.3361 5.04787C6.84316 8.64844 5.07601 13.1994 4.76676 17.6991C4.53068 21.1485 5.15056 24.5614 6.5063 27.487V27.491ZM44.4435 41.9756C46.4867 40.5243 46.4467 38.9853 46.4136 37.7149C46.4053 37.3841 46.397 37.0696 46.4163 36.778C46.4702 35.9666 46.7891 34.973 47.1273 33.9226C47.4186 33.0167 47.7237 32.0663 47.8618 31.2212C48.0689 29.9575 47.888 28.8829 46.5917 28.5089C46.0518 29.5795 45.414 30.5826 44.6864 31.4979C44.5001 31.7329 44.1522 31.7761 43.9119 31.5924C43.8305 31.5317 43.7725 31.452 43.738 31.3656C43.72 31.3265 43.7021 31.2873 43.6828 31.2482C43.7656 32.1068 43.8691 32.9708 43.9741 33.843C44.2833 36.4243 44.5995 39.0703 44.4421 41.9756H44.4435ZM37.8553 9.098C37.7807 9.26811 37.5778 9.34641 37.4038 9.27351C37.2299 9.2006 37.1498 9.00215 37.2244 8.83204C37.7752 7.5927 38.0665 6.25211 38.1093 4.88316C38.1521 3.48856 37.9368 2.06292 37.4743 0.680471C37.4149 0.503615 37.5143 0.313259 37.6951 0.256557C37.876 0.198505 38.0707 0.295708 38.1287 0.472564C38.616 1.92521 38.8424 3.42781 38.7969 4.90206C38.7513 6.35606 38.4407 7.78036 37.8553 9.09935V9.098ZM30.6307 16.4692C32.9266 17.0403 34.9519 18.1136 36.7605 19.5878C39.8461 22.103 42.2801 25.7765 44.3606 30.1087C46.9161 26.4785 48.0799 21.59 47.5139 16.7177C47.0114 12.3921 45.1434 8.08412 41.6712 4.68605C41.6809 5.11672 41.6671 5.54468 41.6312 5.96995C41.5249 7.21874 41.2198 8.44188 40.709 9.59212C39.8351 11.5618 38.3606 13.2993 36.2566 14.5616C34.72 15.4837 32.8493 16.1506 30.6307 16.4692ZM3.20946 44.7554C3.53942 43.7928 3.9743 42.8235 4.53206 41.8622L4.53482 41.8555C5.17265 40.7876 6.24399 40.4595 7.267 40.6324C7.67842 40.7012 8.08293 40.8565 8.44741 41.0792C8.8105 41.302 9.13218 41.5922 9.37516 41.9338H9.37792C9.9771 42.7749 10.1248 43.9035 9.33098 45.0686C8.80222 45.8462 8.377 46.5644 8.04289 47.23C8.1423 47.2057 8.24032 47.1774 8.33834 47.1463C8.70696 47.0275 9.06453 46.8547 9.40001 46.6252L9.40139 46.6265C10.3305 45.9934 10.909 45.051 11.0926 44.0399C11.2776 43.026 11.0678 41.9446 10.4216 41.036C9.77415 40.1274 8.8105 39.5618 7.77506 39.3809C6.73824 39.2 5.63239 39.4038 4.70463 40.037H4.70325C3.77412 40.6702 3.19565 41.6125 3.01065 42.625C2.88226 43.3284 2.94439 44.0655 3.21222 44.754L3.20946 44.7554ZM13.6577 66.2454C15.9357 69.2141 18.0936 72.2423 20.2211 75.2826C21.0163 76.2965 21.8764 76.6083 22.5846 76.4895C22.8635 76.4436 23.1231 76.3302 23.3481 76.1682C23.5773 76.0022 23.7692 75.7889 23.9086 75.5445C24.2551 74.9329 24.2758 74.1202 23.7402 73.375C22.2726 71.3324 20.6325 69.1534 19.2146 67.3187C17.5386 65.1505 16.1856 63.4792 15.8032 63.0998L15.8004 63.0971C14.8009 62.09 13.6191 61.3177 12.447 60.5496C11.1161 59.6788 9.799 58.8161 8.70282 57.6065C7.92693 56.7505 7.16622 55.5814 6.62917 54.3583C6.14735 53.2593 5.84086 52.105 5.85466 51.0695C5.86709 50.2028 6.03828 49.2348 6.44694 48.1345C6.84869 47.0545 7.47823 45.8449 8.41013 44.4746C8.90714 43.7442 8.82845 43.0543 8.4695 42.5508L8.47088 42.5494C8.31211 42.3267 8.10226 42.1376 7.86342 41.9905C7.62458 41.8447 7.35536 41.7421 7.08063 41.6962C6.48145 41.5949 5.85604 41.7839 5.48743 42.4009H5.48605C4.42852 44.2262 3.84039 46.0811 3.59878 47.8497C3.31852 49.9099 3.50629 51.8526 3.97292 53.4915C4.25732 54.4906 4.53206 55.1683 4.90206 55.7704C5.2762 56.3793 5.75526 56.9301 6.44141 57.6632C9.00654 60.4024 11.3839 63.2848 13.6564 66.2454H13.6577Z" fill="#B68C6E"/>
</svg>
