<svg width="47" height="76" viewBox="0 0 47 76" fill="none" xmlns="http://www.w3.org/2000/svg">
<path d="M40.9514 42.658L40.9542 42.6593C41.1966 42.8474 41.5463 42.8042 41.7357 42.5618C42.4699 41.6173 43.1121 40.5823 43.6568 39.4775C44.9301 39.8732 45.107 40.9737 44.8994 42.2637C44.7601 43.1358 44.4509 44.1165 44.1583 45.0513C43.8184 46.1351 43.4952 47.1604 43.4409 47.9976C43.4214 48.2985 43.4297 48.6231 43.4381 48.9644C43.4729 50.306 43.5133 51.9401 41.2983 53.4683C41.5672 50.2168 41.3095 47.3638 41.0489 44.4857C40.9932 43.8671 40.9375 43.2486 40.886 42.6106C40.9082 42.6259 40.9291 42.6412 40.9514 42.6566V42.658ZM26.4536 46.358C27.9762 46.7703 28.9751 46.8191 29.7065 46.6965C30.7513 46.521 32.1917 45.7617 33.1892 45.3341C33.4121 45.2379 34.1016 46.6854 32.5762 47.3666C31.6373 47.7859 28.1448 48.1857 26.4021 47.0545C26.0315 46.8135 25.9758 46.2298 26.4536 46.3594V46.358ZM27.8481 62.8061C28.0194 62.5512 27.9512 62.2057 27.6962 62.0357C27.4413 61.8644 27.0958 61.9326 26.9259 62.1876C26.3408 63.061 25.7111 63.7214 25.0591 64.1755C24.3626 64.6589 23.6438 64.9013 22.9347 64.9041C22.2228 64.9083 21.5026 64.6742 20.8088 64.2103C20.1527 63.7701 19.516 63.1237 18.924 62.2712C18.7485 62.019 18.4016 61.9563 18.1494 62.1319C17.8973 62.3074 17.8346 62.6543 18.0101 62.9064C18.6802 63.8704 19.4157 64.6143 20.1903 65.1326C21.0721 65.7232 22.0027 66.0186 22.9389 66.0144C23.8792 66.0088 24.8112 65.7037 25.6944 65.0894C26.455 64.5614 27.1822 63.8008 27.8481 62.8061ZM28.5418 60.5786C28.5209 60.5688 28.4987 60.5605 28.4764 60.5535C28.0431 60.3794 27.5555 60.0436 27.068 59.7051C25.6331 58.7132 24.1829 57.7102 22.794 59.3415C22.7814 59.3415 22.7508 59.3345 22.7006 59.3345C22.6477 59.3345 22.6059 59.3345 22.5934 59.3345C21.2045 57.7325 20.0468 58.6882 18.8376 59.687C18.2456 60.1774 17.6354 60.6803 17.0949 60.6733C16.7884 60.6691 16.5362 60.9157 16.5335 61.2222C16.5293 61.5286 16.7758 61.7808 17.0823 61.7836C17.3679 61.7878 17.6382 61.732 17.8945 61.6373C19.4352 62.2628 21.093 62.4982 22.8358 62.4634C24.5855 62.4286 26.4118 62.1207 28.2827 61.6624C28.5307 61.7418 28.7828 61.7864 29.0378 61.7836C29.3443 61.7794 29.5894 61.5286 29.5867 61.2222C29.5825 60.9157 29.3317 60.6705 29.0252 60.6733C28.8748 60.6747 28.7132 60.6399 28.5418 60.5772V60.5786ZM26.7893 60.8628C25.4199 61.1469 24.0881 61.3294 22.8135 61.3545C21.5207 61.381 20.2822 61.2459 19.119 60.8948C19.2639 60.7806 19.406 60.6635 19.5467 60.5465C20.3324 59.8973 21.0847 59.2746 21.7756 60.0868C21.8091 60.1258 21.8425 60.1592 21.8787 60.1899C22.0863 60.3626 22.4025 60.4476 22.6992 60.4476C22.9974 60.4476 23.3136 60.3599 23.517 60.1871C23.5546 60.1551 23.588 60.1216 23.6173 60.0868C24.3654 59.1883 25.4046 59.9085 26.4355 60.6204C26.5539 60.7012 26.6709 60.7833 26.7879 60.8628H26.7893ZM19.367 46.3454C17.8443 46.7578 16.8455 46.8066 16.1141 46.684C15.0693 46.5084 13.6289 45.7492 12.6314 45.3215C12.4085 45.2254 11.719 46.6728 13.2444 47.354C14.1833 47.7734 17.6758 48.1732 19.4185 47.042C19.7891 46.801 19.8448 46.2173 19.367 46.3468V46.3454ZM16.2353 42.8084C17.5908 42.8084 18.8111 43.2542 19.6874 43.9758C20.5344 44.6724 21.0596 45.6266 21.0596 46.6742C21.0596 47.7218 20.5358 48.6761 19.6874 49.3726C18.8097 50.0942 17.5894 50.54 16.2353 50.54C14.8799 50.54 13.6595 50.0942 12.7833 49.3726C11.9363 48.6761 11.4111 47.7218 11.4111 46.6742C11.4111 45.6266 11.9349 44.6724 12.7833 43.9758C13.6609 43.2542 14.8813 42.8084 16.2353 42.8084ZM20.3937 43.1177C19.3238 42.2372 17.8527 41.6939 16.2353 41.6939C14.618 41.6939 13.1483 42.2386 12.077 43.1177C10.9764 44.0218 10.2966 45.2783 10.2966 46.6742C10.2966 48.0687 10.9778 49.3266 12.077 50.2308C13.1469 51.1112 14.618 51.6545 16.2353 51.6545C17.8527 51.6545 19.3224 51.1098 20.3937 50.2308C21.4942 49.3266 22.174 48.0701 22.174 46.6742C22.174 45.2797 21.4928 44.0218 20.3937 43.1177ZM29.5755 41.6939C27.9581 41.6939 26.4884 42.2386 25.4172 43.1177C24.3166 44.0218 23.6368 45.2783 23.6368 46.6742C23.6368 48.0687 24.318 49.3266 25.4172 50.2308C26.487 51.1112 27.9581 51.6545 29.5755 51.6545C31.1929 51.6545 32.6626 51.1098 33.7339 50.2308C34.8344 49.3266 35.5142 48.0701 35.5142 46.6742C35.5142 45.2797 34.833 44.0218 33.7339 43.1177C32.664 42.2372 31.1929 41.6939 29.5755 41.6939ZM26.1234 43.9758C27.0011 43.2542 28.2214 42.8084 29.5755 42.8084C30.931 42.8084 32.1513 43.2542 33.0276 43.9758C33.8746 44.6724 34.3998 45.6266 34.3998 46.6742C34.3998 47.7218 33.876 48.6761 33.0276 49.3726C32.1499 50.0942 30.9296 50.54 29.5755 50.54C28.22 50.54 26.9997 50.0942 26.1234 49.3726C25.2764 48.6761 24.7513 47.7218 24.7513 46.6742C24.7513 45.6266 25.2751 44.6724 26.1234 43.9758ZM23.0531 33.0763C18.7512 33.0763 14.8617 35.1492 12.0519 38.501C9.26434 41.8249 7.54109 46.4123 7.54109 51.472C7.54109 56.5331 9.26434 61.1191 12.0519 64.443C14.8617 67.7947 18.7512 69.8676 23.0531 69.8676C27.3549 69.8676 31.2444 67.7947 34.0543 64.443C36.8418 61.1177 38.5651 56.5317 38.5651 51.472C38.5651 46.4109 36.8418 41.8249 34.0543 38.501C31.2444 35.1492 27.3549 33.0763 23.0531 33.0763ZM12.9059 39.2156C15.5081 36.1105 19.0967 34.1908 23.0531 34.1908C27.0094 34.1908 30.598 36.1105 33.2003 39.2156C35.8263 42.3473 37.4492 46.6812 37.4492 51.4734C37.4492 56.2656 35.8249 60.5995 33.2003 63.7311C30.598 66.8363 27.0094 68.756 23.0531 68.756C19.0967 68.756 15.5081 66.8363 12.9059 63.7311C10.2799 60.5995 8.65695 56.2656 8.65695 51.4734C8.65695 46.6812 10.2813 42.3473 12.9059 39.2156ZM44.1291 38.4522C44.6765 37.1595 45.1 35.7873 45.3884 34.3663C46.1518 30.6022 45.9735 26.4954 44.7002 22.6296C43.4255 18.7554 41.0545 15.1181 37.4353 12.3055C36.9212 11.9057 36.3807 11.5226 35.8151 11.1576C36.052 10.0487 35.9948 8.94675 35.6786 7.89497C35.2426 6.44338 34.3134 5.09488 32.9872 3.97345C31.6832 2.87152 29.992 1.98412 28.0027 1.42968C24.8348 0.547857 20.9036 0.511637 16.5906 1.8072V1.8086C16.5697 1.81556 16.5488 1.82253 16.5279 1.83228C14.4494 2.74335 12.708 4.01663 11.3233 5.5128C9.83829 7.11624 8.767 8.97322 8.13037 10.911C7.87961 11.6772 7.69572 12.4559 7.58149 13.2388C3.29218 17.0545 1.01728 22.1114 0.441934 27.1906C-0.00385324 31.1177 0.567311 35.0601 2.00776 38.4536C0.0866973 39.0457 -0.194706 40.6171 0.099235 42.4532C0.253867 43.4186 0.572884 44.4313 0.875183 45.3968C1.19559 46.4165 1.49928 47.3819 1.54386 48.0826C1.56197 48.3571 1.55361 48.6482 1.54665 48.9533C1.50207 50.6877 1.44913 52.8275 4.75353 54.7722C4.8594 55.7975 5.02518 56.8563 5.27176 57.9554C5.94044 60.9449 9.14592 65.5435 12.9059 69.1948C16.22 72.4142 19.9994 74.9287 22.9263 75.0276C22.9375 75.0276 22.95 75.0276 22.9611 75.0276L22.9779 75.0262C25.9019 74.9176 29.673 72.4072 32.9816 69.1934C36.7415 65.5407 39.9456 60.9436 40.6157 57.954C40.8567 56.8785 41.0322 55.8532 41.1576 54.8669C44.6543 52.8929 44.5985 50.7058 44.5539 48.9394C44.5456 48.6343 44.5386 48.3431 44.5567 48.0687C44.6027 47.3694 44.905 46.4039 45.2254 45.3828C45.5291 44.4174 45.8467 43.4046 46.0014 42.4392C46.2939 40.6157 46.0181 39.0541 44.1318 38.4522H44.1291ZM42.9268 38.4272C42.8405 38.508 42.7806 38.618 42.7611 38.7434C42.7583 38.7615 42.7569 38.7782 42.7555 38.7963C42.3041 39.7381 41.7775 40.6268 41.1827 41.4488C39.0164 39.8049 37.3698 37.6206 35.7218 35.4348C32.2182 30.7889 28.7132 26.143 20.2502 26.1123C17.4919 25.9312 15.2462 25.2166 13.4868 24.1369C11.5685 22.9598 10.227 21.3452 9.43429 19.5175C8.8896 18.2623 8.60123 16.9054 8.55804 15.5193C8.51486 14.1039 8.72939 12.6565 9.18911 11.2537C9.77699 9.4608 10.7675 7.74452 12.1383 6.26367C13.4129 4.88731 15.0178 3.71155 16.9374 2.86455C21.0275 1.64143 24.7331 1.67068 27.7088 2.49957C29.5379 3.00804 31.0856 3.81881 32.2711 4.82044C33.433 5.80256 34.2409 6.96857 34.6143 8.2112C34.84 8.96347 34.9082 9.74638 34.7982 10.5349C32.4522 9.18497 29.7051 8.13737 26.5274 7.49237C26.2265 7.43247 25.934 7.6275 25.8741 7.92841C25.8142 8.22931 26.0092 8.52186 26.3101 8.58176C30.5799 9.44826 34.0376 11.0726 36.7541 13.1831C40.1866 15.8509 42.4351 19.3001 43.6443 22.9765C44.8562 26.6598 45.0276 30.5688 44.3018 34.1476C43.9981 35.6452 43.537 37.0856 42.9296 38.4258L42.9268 38.4272ZM2.47723 39.4803C3.02193 40.585 3.66553 41.6201 4.39969 42.5646C4.58775 42.807 4.93881 42.8516 5.18121 42.6621C5.2634 42.5994 5.32191 42.5173 5.35674 42.4281C5.37485 42.3877 5.39296 42.3473 5.41246 42.3069C5.32887 43.1929 5.22439 44.0845 5.11852 44.9844C4.80647 47.648 4.48745 50.3784 4.64626 53.3763C2.5845 51.8788 2.6249 50.2907 2.65833 48.9798C2.66669 48.6385 2.67505 48.3139 2.65554 48.013C2.60121 47.1757 2.27941 46.1504 1.93811 45.0666C1.64417 44.1318 1.33629 43.1511 1.19699 42.279C0.988023 40.9751 1.17052 39.8662 2.47862 39.4803H2.47723ZM6.69549 39.6614C8.51068 36.1732 10.5919 33.224 13.1079 31.1274C16.2116 28.5405 20.0022 27.2421 24.8084 27.8216C29.6089 29.1785 32.221 32.6431 34.833 36.1063C36.3222 38.0817 37.8128 40.0571 39.7032 41.6842C39.7687 42.6371 39.8579 43.615 39.9456 44.5902C40.3106 48.6287 40.6714 52.6171 39.5291 57.7172C38.905 60.5061 35.8291 64.879 32.2043 68.3993C29.0712 71.4432 25.562 73.8198 22.9416 73.9187C20.3212 73.8198 16.8121 71.4432 13.679 68.3993C10.0542 64.879 6.97829 60.5061 6.35418 57.7172C5.29823 52.9988 5.76909 48.9812 6.22184 45.1112C6.43498 43.2946 6.64395 41.5087 6.6941 39.6614H6.69549ZM11.2927 19.4506C11.3679 19.6261 11.5727 19.7069 11.7482 19.6317C11.9237 19.5565 12.0045 19.3517 11.9293 19.1762C11.3735 17.8973 11.0795 16.514 11.0363 15.1014C10.9932 13.6623 11.2105 12.1912 11.6772 10.7647C11.7371 10.5822 11.6368 10.3858 11.4543 10.3273C11.2718 10.2674 11.0753 10.3677 11.0168 10.5502C10.5251 12.0491 10.2966 13.5996 10.3426 15.1209C10.3886 16.6212 10.702 18.0909 11.2927 19.452V19.4506ZM4.72845 41.1311C2.14985 37.3851 0.975485 32.3408 1.54665 27.3132C2.05373 22.8483 3.93858 18.403 7.44358 14.8966C7.4394 15.1153 7.44079 15.334 7.44636 15.5527C7.49233 17.0782 7.81135 18.5743 8.41316 19.9605C9.29498 21.993 10.7828 23.7859 12.9059 25.0884C14.4564 26.0399 16.344 26.7281 18.5827 27.0568C16.266 27.6461 14.2223 28.7536 12.3974 30.2748C9.28384 32.8702 6.82783 36.6607 4.72845 41.1311Z" fill="#B68C6E"/>
</svg>
