<svg width="58" height="71" viewBox="0 0 58 71" fill="none" xmlns="http://www.w3.org/2000/svg">
<path d="M16.9119 30.2873C16.9419 30.5727 16.739 30.8295 16.459 30.8595C16.179 30.8895 15.9275 30.6826 15.899 30.3972C15.3518 25.2902 16.5776 19.7294 19.9694 15.2545C21.2967 13.5023 22.9554 11.9184 24.9671 10.5927C24.7499 9.55536 24.8013 8.52225 25.0914 7.53909C25.4914 6.18065 26.3429 4.91924 27.5588 3.86902C28.7532 2.83734 30.3048 2.00686 32.1279 1.48889C35.0325 0.664116 38.6357 0.62987 42.589 1.84277V1.84419C42.609 1.8499 42.6276 1.85703 42.6476 1.8656C44.5535 2.71748 46.1494 3.90897 47.4181 5.30879C48.7782 6.80993 49.7612 8.54651 50.3441 10.3601C50.5741 11.0765 50.7427 11.8056 50.847 12.5377C54.7789 16.1078 56.8634 20.8396 57.392 25.5913C57.8006 29.2656 57.2777 32.9543 55.9576 36.1292C57.7178 36.6828 57.9764 38.154 57.7063 39.8706C57.5649 40.7739 57.272 41.7214 56.9948 42.626C56.7005 43.5807 56.4233 44.4839 56.3819 45.1389C56.3662 45.3957 56.3719 45.6683 56.3791 45.9536C56.4191 47.5761 56.4691 49.5781 53.4387 51.3974C53.3416 52.3577 53.1887 53.348 52.9644 54.3769C52.3515 57.1736 49.414 61.4759 45.9665 64.8934C42.929 67.9056 39.4629 70.2586 36.7812 70.3514C36.7698 70.3514 36.7598 70.3514 36.7498 70.3514H36.7398C35.3382 70.3 33.7395 69.6451 32.1036 68.6063C30.3077 67.4661 28.4517 65.8551 26.7644 64.0743C26.5687 63.8688 26.573 63.5392 26.7744 63.3394C26.9759 63.1397 27.2988 63.1439 27.4945 63.3494C29.1261 65.0703 30.9177 66.6271 32.6422 67.7216C34.1324 68.6676 35.5582 69.2641 36.7641 69.3112C39.1658 69.2198 42.3833 66.9952 45.2564 64.1471C48.5782 60.8537 51.3985 56.7613 51.97 54.1514C52.9373 49.7365 52.5072 45.9779 52.0914 42.3563C51.8957 40.6569 51.7043 38.9859 51.6585 37.2579C49.9941 33.9945 48.0867 31.2348 45.7808 29.2728C42.9276 26.8455 39.4401 25.6298 35.0153 26.1849C33.7095 26.563 32.5836 27.1138 31.5849 27.7859C29.6276 29.103 28.1331 30.9052 26.7158 32.7859C26.5444 33.0128 26.2244 33.0556 26.0015 32.8801C25.7786 32.7045 25.7372 32.3778 25.91 32.1509C27.3816 30.1974 28.9404 28.3224 31.0263 26.9183C32.1107 26.1877 33.3323 25.5898 34.7467 25.1817C34.771 25.1732 34.7967 25.1646 34.8239 25.1603C36.1169 24.795 37.5727 24.5881 39.2343 24.5824C41.7632 24.4126 43.822 23.7448 45.4336 22.7345C47.1923 21.6329 48.421 20.1218 49.1483 18.4123C49.6483 17.238 49.9126 15.9694 49.9512 14.6709C49.9912 13.3467 49.7941 11.9926 49.3726 10.6798C48.8325 9.00171 47.9253 7.3964 46.6694 6.01085C45.5007 4.72232 44.0306 3.62358 42.2704 2.83021C38.5214 1.6858 35.1239 1.71434 32.3965 2.48774C30.7206 2.96434 29.3004 3.72204 28.2146 4.65954C27.1502 5.57848 26.4087 6.66866 26.0658 7.83304C25.8586 8.53652 25.7972 9.26997 25.8972 10.0077C28.0474 8.74486 30.5663 7.76312 33.478 7.16096C33.7537 7.10531 34.0209 7.28653 34.0766 7.56763C34.1324 7.84874 33.9538 8.12271 33.678 8.17836C27.7317 9.40981 23.5084 12.2751 20.7723 15.8852C17.552 20.1347 16.389 25.4215 16.9105 30.283L16.9119 30.2873ZM19.2936 35.0205L18.655 35.0176L18.6578 34.3655L19.2965 34.3684L19.2936 35.0205ZM19.2693 40.0518L19.2722 39.5824L18.6335 39.5795L18.6307 40.049L19.2693 40.0518ZM19.275 38.9303L18.6364 38.9274L18.6393 38.2753L19.2779 38.2782L19.275 38.9303ZM19.2808 37.6275L18.6421 37.6246L18.645 36.9725L19.2836 36.9754L19.2808 37.6275ZM19.2865 36.3247L18.6478 36.3218L18.6507 35.6697L19.2893 35.6726L19.2865 36.3247ZM22.0253 35.0219L21.3867 35.019L21.3895 34.3669L22.0282 34.3698L22.0253 35.0219ZM22.001 40.0533L22.0039 39.5838L21.3653 39.581L21.3624 40.0504L22.001 40.0533ZM22.0068 38.9317L21.3681 38.9288L21.371 38.2767L22.0096 38.2796L22.0068 38.9317ZM22.0125 37.6289L21.3738 37.626L21.3767 36.9739L22.0153 36.9768L22.0125 37.6289ZM22.0182 36.3261L21.3795 36.3233L21.3824 35.6711L22.021 35.674L22.0182 36.3261ZM29.9933 43.6962C29.8033 43.6962 29.6347 43.7676 29.5147 43.8817C29.4047 43.9873 29.3361 44.13 29.3361 44.2884C29.3361 44.4454 29.4047 44.5895 29.5147 44.6951C29.6347 44.8092 29.8047 44.8806 29.9933 44.8806C30.1834 44.8806 30.3519 44.8092 30.472 44.6951C30.582 44.5895 30.6506 44.4468 30.6506 44.2884C30.6506 44.1314 30.582 43.9873 30.472 43.8817C30.3519 43.7676 30.1819 43.6962 29.9933 43.6962ZM31.6278 43.9131C31.6564 44.033 31.6721 44.1586 31.6721 44.287C31.6721 44.745 31.4792 45.1574 31.1663 45.4542C30.8634 45.7425 30.4491 45.9208 29.9933 45.9208C29.5376 45.9208 29.1232 45.7425 28.8204 45.4542C28.5075 45.156 28.3146 44.7436 28.3146 44.287C28.3146 44.0358 28.3732 43.7975 28.4775 43.5835C28.316 43.6277 28.1617 43.6777 28.0074 43.7276C27.3245 43.9474 26.673 44.1571 25.73 43.9873C25.4528 43.9374 25.2671 43.6677 25.3157 43.3852C25.3485 43.1968 25.4757 43.0498 25.6386 42.987C25.4457 42.9685 25.2557 42.9471 25.0728 42.9214C24.7942 42.8843 24.597 42.6232 24.6342 42.3392C24.6699 42.0553 24.9256 41.8541 25.2042 41.8912C25.7514 41.9654 26.3987 42.0067 27.0759 42.0495C28.6003 42.1452 30.2748 42.2507 31.6321 42.7958H31.6335C32.2622 43.0299 32.9851 43.3766 33.8309 43.8746C34.0738 44.0173 34.1581 44.3341 34.0181 44.5838C33.878 44.8321 33.5666 44.9177 33.3237 44.775C32.6822 44.3969 32.1221 44.1172 31.6292 43.9131H31.6278ZM36.5712 52.9228C35.7554 52.8914 35.3311 52.5019 34.9467 52.1494C34.7167 51.9382 34.511 51.7499 34.2167 51.8355C33.9452 51.9125 33.6637 51.7513 33.588 51.4745C33.5123 51.1976 33.6694 50.9108 33.9409 50.8323C34.7739 50.5912 35.1753 50.9593 35.6282 51.3746C35.8797 51.6057 36.1583 51.8612 36.5955 51.8826C37.0327 51.8612 37.3113 51.6057 37.5627 51.3746C38.0156 50.9593 38.4157 50.5912 39.2501 50.8323C39.5215 50.9094 39.6787 51.1976 39.603 51.4745C39.5272 51.7513 39.2458 51.9125 38.9743 51.8355C38.68 51.7499 38.4757 51.9382 38.2442 52.1494C37.8613 52.5019 37.437 52.89 36.6198 52.9228H36.5712ZM34.9796 39.7465C35.2582 39.7821 35.4554 40.0418 35.4211 40.3272C35.3853 40.6112 35.131 40.8138 34.8524 40.7767C33.5723 40.6069 32.4336 40.156 31.2935 39.7037C29.1675 38.8603 27.0416 38.017 24.1698 39.2899C23.9127 39.404 23.6126 39.2827 23.5012 39.0187C23.3898 38.7562 23.5084 38.4494 23.7669 38.3367C27.0216 36.8955 29.3404 37.8144 31.6607 38.7348C32.7436 39.1643 33.828 39.5938 34.9796 39.7465ZM20.498 67.5974C19.8837 69.5195 18.2163 70.6025 16.2576 70.8651C15.3117 70.9921 14.2974 70.925 13.3044 70.6653C12.3114 70.4056 11.3413 69.9547 10.4841 69.314C8.31099 67.6902 6.85226 64.8648 7.5752 60.878C7.6452 60.4898 7.6995 60.2087 7.75664 59.9091C8.77961 54.5381 10.7641 44.11 0.417278 42.1409C0.140105 42.0895 -0.0427714 41.8184 0.00866269 41.5359C0.0586681 41.2533 0.324411 41.0664 0.601584 41.1178C11.9614 43.2796 9.8483 54.384 8.75961 60.1046C8.68675 60.4898 8.61674 60.8537 8.57816 61.0649C7.93809 64.5894 9.20109 67.0652 11.087 68.475C11.8399 69.0372 12.6886 69.4324 13.5558 69.6593C14.4231 69.8862 15.306 69.9447 16.1261 69.8349C17.602 69.6365 18.8693 68.8817 19.4222 67.5603L18.2392 67.5204C17.9578 67.5118 17.7377 67.2721 17.7463 66.9853V66.9796L17.8349 62.1893L16.3976 62.1394C16.129 62.1337 15.9075 61.9154 15.899 61.6385C15.8918 61.4359 15.8847 61.2319 15.8761 61.0264C15.7475 57.5518 15.6061 53.7019 17.0819 49.9847C17.3963 48.906 17.6049 47.8871 17.7377 46.6257C17.872 45.3386 17.9292 43.8033 17.9377 41.7071V41.7057C17.9406 41.4188 18.1692 41.1877 18.4507 41.1905L20.4909 41.2091L22.534 41.2305C22.8154 41.2333 23.0397 41.4688 23.0369 41.7556C23.0054 43.8446 23.034 45.3814 23.1455 46.6785C23.254 47.9428 23.4412 48.9602 23.7312 50.0333C25.1428 53.7832 24.9285 57.636 24.7356 61.1134C24.7242 61.3189 24.7128 61.5229 24.7013 61.7256H24.6999C24.6856 61.9967 24.467 62.2136 24.1984 62.2164L22.4425 62.2435L22.3525 67.1337C22.3482 67.4205 22.1168 67.6488 21.8353 67.6445H21.8267L20.4966 67.5988L20.498 67.5974ZM18.7736 66.4987L21.3438 66.5857L21.4238 62.2564L20.3223 62.2735C20.3094 62.2735 20.2966 62.2735 20.2823 62.2735L18.8521 62.2236L18.7736 66.4987ZM17.9406 60.1702C17.942 60.35 17.8006 60.4956 17.6249 60.497C17.4491 60.4984 17.3062 60.3543 17.3048 60.1745L17.2734 56.9667C17.272 56.7869 17.4134 56.6414 17.5891 56.64C17.7649 56.6385 17.9077 56.7827 17.9092 56.9625L17.9406 60.1702ZM20.308 61.2347L23.7098 61.1819L23.7169 61.0535C23.9055 57.6731 24.1141 53.9259 22.7711 50.3786C22.7654 50.3629 22.7597 50.3458 22.7554 50.3301C22.4425 49.1785 22.2425 48.0983 22.1282 46.767C22.0253 45.5669 21.9939 44.1471 22.0125 42.2622L20.4837 42.2465L18.9521 42.2336C18.9364 44.1129 18.8778 45.5327 18.7521 46.7356C18.6121 48.0727 18.3921 49.1486 18.0592 50.2858C18.0506 50.3158 18.0392 50.3443 18.0263 50.3714C16.6333 53.8817 16.7705 57.6174 16.8948 60.9893L16.8991 61.1177L20.308 61.2376V61.2347ZM20.0623 35.7739L20.7009 35.7753L20.6995 36.4274L20.0608 36.426L20.0623 35.7739ZM20.0794 30.5599L20.718 30.5613L20.7166 31.2134L20.078 31.212L20.0794 30.5599ZM20.0751 31.8627L20.7138 31.8641L20.7123 32.5162L20.0737 32.5148L20.0751 31.8627ZM20.0708 33.1654L20.7095 33.1669L20.708 33.819L20.0694 33.8176L20.0708 33.1654ZM20.0665 34.4682L20.7052 34.4697L20.7038 35.1218L20.0651 35.1203L20.0665 34.4682ZM44.8407 43.5821C44.945 43.7947 45.0035 44.033 45.0035 44.2856C45.0035 44.7436 44.8107 45.156 44.4978 45.4528C44.1949 45.741 43.7805 45.9194 43.3248 45.9194C42.869 45.9194 42.4547 45.741 42.1518 45.4528C41.8389 45.1546 41.646 44.7422 41.646 44.2856C41.646 44.1571 41.6617 44.0316 41.6903 43.9117C41.1974 44.1158 40.6373 44.3954 39.9958 44.7736C39.753 44.9163 39.4415 44.8307 39.3015 44.5824C39.1615 44.3341 39.2458 44.0159 39.4887 43.8732C40.3345 43.3752 41.0574 43.0284 41.686 42.7944H41.6875C43.0433 42.2493 44.7192 42.1437 46.2437 42.0481C46.9209 42.0053 47.5681 41.9654 48.1153 41.8897C48.3939 41.8526 48.6496 42.0538 48.6854 42.3378C48.7211 42.6217 48.5253 42.8829 48.2467 42.92C48.0639 42.9457 47.8753 42.9656 47.681 42.9856C47.8438 43.0484 47.971 43.1954 48.0039 43.3837C48.0524 43.6677 47.8667 43.9374 47.5895 43.9859C46.6451 44.1557 45.9936 43.9459 45.3121 43.7262C45.1593 43.6763 45.0035 43.6263 44.8421 43.5821H44.8407ZM43.8034 43.8789C43.6834 43.7647 43.5134 43.6934 43.3248 43.6934C43.1348 43.6934 42.9662 43.7647 42.8462 43.8789C42.7361 43.9845 42.6676 44.1272 42.6676 44.2856C42.6676 44.4425 42.7361 44.5866 42.8462 44.6922C42.9662 44.8064 43.1362 44.8777 43.3248 44.8777C43.5148 44.8777 43.6834 44.8064 43.8034 44.6922C43.9134 44.5866 43.982 44.4439 43.982 44.2856C43.982 44.1286 43.9134 43.9845 43.8034 43.8789ZM38.34 40.7753C38.0614 40.811 37.807 40.6098 37.7713 40.3258C37.7356 40.0419 37.9342 39.7807 38.2128 39.745C39.3644 39.5924 40.4488 39.1629 41.5317 38.7333C43.8506 37.813 46.1694 36.894 49.4254 38.3352C49.6826 38.4494 49.8026 38.7548 49.6912 39.0173C49.5797 39.2799 49.2811 39.4012 49.0225 39.2884C46.1508 38.017 44.0249 38.8603 41.8989 39.7022C40.7602 40.1546 39.6215 40.6055 38.34 40.7753ZM32.3079 58.9773C32.1193 58.7647 32.135 58.4365 32.3436 58.2438C32.5522 58.0512 32.8736 58.0683 33.0622 58.2809C33.1065 58.3309 33.1637 58.3937 33.2351 58.4679C34.471 59.7764 35.7468 60.2458 36.9469 60.1631C38.1671 60.0789 39.3329 59.4339 40.3187 58.5221C40.3687 58.4764 40.4316 58.4151 40.5088 58.3395C40.7116 58.1397 41.0345 58.1468 41.2288 58.3537C41.4246 58.5606 41.4174 58.8902 41.2146 59.0886C41.1588 59.1442 41.0874 59.2113 41.0002 59.2912C39.8558 60.35 38.4814 61.0991 37.0141 61.2005C35.5282 61.3032 33.9723 60.7467 32.4993 59.1871C32.4479 59.1328 32.3836 59.0629 32.3064 58.9759L32.3079 58.9773ZM31.6264 56.834C31.6464 56.8255 31.6664 56.8169 31.6864 56.8112C32.0836 56.6485 32.5293 56.3346 32.9779 56.0178C34.2938 55.0889 35.6225 54.1514 36.8955 55.6782C36.9069 55.6782 36.9355 55.6725 36.9812 55.6725C37.0298 55.6725 37.067 55.6725 37.0784 55.6725C38.3528 54.1742 39.4129 55.0675 40.5202 56.0021C41.0631 56.4602 41.6217 56.9325 42.1175 56.9254C42.399 56.9225 42.629 57.1522 42.6318 57.4391C42.6347 57.7259 42.4104 57.9613 42.1289 57.9642C41.8675 57.967 41.6203 57.9156 41.3846 57.8272C39.973 58.4122 38.4528 58.6334 36.8555 58.6006C35.2525 58.5678 33.578 58.2795 31.8621 57.8514C31.6349 57.9256 31.4049 57.9684 31.1706 57.9642C30.8891 57.9613 30.6648 57.7259 30.6677 57.4391C30.6706 57.1522 30.902 56.9225 31.182 56.9254C31.3192 56.9268 31.4678 56.894 31.6249 56.8355L31.6264 56.834ZM33.2323 57.0994C34.4881 57.3649 35.7082 57.5361 36.8769 57.5603C38.0628 57.5846 39.1972 57.459 40.263 57.1294C40.1301 57.0224 40.0001 56.9125 39.8701 56.8026C39.15 56.1948 38.46 55.6126 37.827 56.3717C37.797 56.4074 37.7656 56.4402 37.7327 56.4673C37.5427 56.6286 37.2527 56.7085 36.9812 56.7085C36.7069 56.7085 36.4183 56.6271 36.2312 56.4645C36.1969 56.4345 36.1654 56.4031 36.1397 56.3703C35.4539 55.5298 34.501 56.2033 33.5566 56.8697C33.448 56.9453 33.3408 57.0224 33.2323 57.0966V57.0994ZM55.5204 37.0909C55.0203 38.124 54.4317 39.0929 53.7588 39.9762C53.5859 40.2031 53.2644 40.2445 53.043 40.0675C52.9687 40.0076 52.9144 39.932 52.8815 39.8478C52.8644 39.8093 52.8472 39.7722 52.8315 39.7336C52.9087 40.5627 53.0044 41.3974 53.1016 42.2379C53.3873 44.7293 53.6802 47.285 53.5345 50.0903C55.4247 48.6891 55.3875 47.2036 55.3575 45.9779C55.3489 45.6583 55.3418 45.3558 55.3604 45.0732C55.4104 44.2898 55.7047 43.3309 56.0176 42.3164C56.2862 41.4417 56.5691 40.5242 56.6977 39.7079C56.8891 38.4879 56.7219 37.4505 55.5232 37.0895L55.5204 37.0909ZM47.4395 18.3496C47.3695 18.5137 47.1823 18.5893 47.0223 18.5194C46.8609 18.448 46.7866 18.2568 46.8566 18.0927C47.3652 16.8955 47.6353 15.6013 47.6753 14.2799C47.7153 12.9329 47.5167 11.5559 47.0866 10.2232C47.0323 10.0519 47.1238 9.86928 47.2909 9.81363C47.4581 9.75798 47.6381 9.85216 47.6924 10.022C48.1439 11.4246 48.3525 12.8758 48.311 14.2985C48.2696 15.7012 47.9824 17.0767 47.4395 18.351V18.3496ZM53.4559 38.6349C55.819 35.1303 56.8963 30.4115 56.3719 25.7068C55.9076 21.5302 54.1788 17.3707 50.967 14.0887C50.9713 14.2942 50.9699 14.4983 50.9642 14.7023C50.9213 16.1293 50.6299 17.5291 50.0769 18.8262C49.2683 20.7283 47.9053 22.4049 45.9579 23.6249C44.5378 24.5154 42.8062 25.1589 40.7545 25.4657C42.879 26.0179 44.7506 27.0539 46.4237 28.4765C49.2783 30.9052 51.53 34.4525 53.453 38.6335L53.4559 38.6349Z" fill="#B68C6E"/>
</svg>
