<svg width="68" height="74" viewBox="0 0 68 74" fill="none" xmlns="http://www.w3.org/2000/svg">
<path d="M4.78121 56.1183C4.70088 55.7955 4.45987 55.4727 4.05819 55.4727H3.97785C3.65651 55.4727 3.33517 55.7148 3.25483 56.1183C3.09416 57.3288 2.37114 59.0234 0.844766 62.1706C-0.440604 64.753 -0.038925 66.4476 0.60376 67.4967C1.48745 68.9492 3.09416 69.5141 3.97785 69.5141H4.13853C5.02222 69.5141 6.62893 68.9492 7.51262 67.4967C8.07497 66.5283 8.55698 64.8336 7.27161 62.1706C5.6649 59.0234 5.02222 57.2481 4.78121 56.1183ZM6.30759 66.6897C5.74524 67.5774 4.70087 68.0616 4.05819 68.0616C3.49584 68.0616 2.37114 67.6581 1.80879 66.6897C1.24644 65.7213 1.32678 64.3495 2.13014 62.8162C3.09416 60.9602 3.65651 59.669 4.05819 58.6199C4.45987 59.5883 5.02222 60.9602 5.98624 62.8162C6.7896 64.4302 6.86994 65.7213 6.30759 66.6897Z" fill="#B68C6E"/>
<path d="M62.9442 37.7192C63.5869 37.235 64.0689 36.428 64.0689 35.5403V31.344C65.0329 31.1019 65.7559 30.2143 65.7559 29.1652V27.7126C65.7559 26.4215 64.7116 25.4531 63.5065 25.4531H46.154C44.8687 25.4531 43.9046 26.5022 43.9046 27.7126V29.1652C43.9046 30.2143 44.6277 31.1019 45.5917 31.344V35.5403C45.5917 36.428 45.9934 37.235 46.7164 37.7192C45.0293 38.4454 42.6996 40.0594 42.6996 43.4487V68.3844C42.6996 69.9983 43.6636 71.4509 45.19 72.0158C47.2787 72.8227 50.4922 73.2262 54.75 73.2262C54.75 73.2262 54.75 73.2262 54.8303 73.2262H54.9106C54.9106 73.2262 54.9106 73.2262 54.991 73.2262C59.2488 73.2262 62.4622 72.8227 64.5509 72.0158C66.0773 71.4509 67.0413 69.9983 67.0413 68.3844V43.4487C66.8806 40.0594 64.5509 38.4454 62.9442 37.7192ZM49.7691 41.8348V40.705H59.8914V41.8348H49.7691ZM59.7308 43.2873C59.5701 43.7715 59.2488 44.175 59.0881 44.175H50.5725C50.4118 44.175 50.0905 43.7715 49.9298 43.2873H59.7308ZM59.8914 39.2524H49.7691V38.284H59.8914V39.2524ZM48.2428 36.8315C47.5197 36.8315 46.9574 36.2666 46.9574 35.5403V31.5054H62.5425V35.5403C62.5425 36.2666 61.9802 36.8315 61.2571 36.8315H48.2428ZM45.3507 27.7933C45.3507 27.3091 45.7524 26.9863 46.154 26.9863H63.4262C63.9082 26.9863 64.2296 27.3898 64.2296 27.7933V29.2459C64.2296 29.7301 63.8279 30.0529 63.4262 30.0529H46.154C45.672 30.0529 45.3507 29.6494 45.3507 29.2459V27.7933ZM48.1624 38.6875C48.2428 38.6875 48.2428 38.6875 48.3231 38.6875V42.561C48.3231 43.6101 49.1265 45.6276 50.4922 45.6276H59.0881C60.4538 45.6276 61.2571 43.6908 61.2571 42.6417V38.7682C61.4178 38.7682 61.4981 38.8489 61.6588 38.8489C63.1049 39.3331 65.4346 40.5436 65.4346 43.5294V47.2415H44.1457V43.5294C44.1457 40.3822 46.6361 39.1717 48.1624 38.6875ZM63.9082 70.6439C61.9802 71.3702 58.9274 71.7737 54.8303 71.7737H54.75C50.6528 71.7737 47.6001 71.3702 45.672 70.6439C44.708 70.2404 44.1457 69.3527 44.1457 68.3844V48.6134H65.5149V68.3844C65.4346 69.4334 64.8722 70.3211 63.9082 70.6439Z" fill="#B68C6E"/>
<path d="M60.0521 51.0343H49.5281C48.5641 51.0343 47.7608 51.8413 47.7608 52.8097V57.5708C47.7608 58.5392 48.5641 59.3462 49.5281 59.3462H60.1324C61.0965 59.3462 61.8998 58.5392 61.8998 57.5708V52.8097C61.8195 51.7606 61.0161 51.0343 60.0521 51.0343ZM60.3734 57.4901C60.3734 57.6515 60.2128 57.8129 60.0521 57.8129H49.5281C49.3675 57.8129 49.2068 57.6515 49.2068 57.4901V52.729C49.2068 52.5676 49.3675 52.4062 49.5281 52.4062H60.1324C60.2931 52.4062 60.4538 52.5676 60.4538 52.729V57.4901H60.3734Z" fill="#B68C6E"/>
<path d="M44.3867 20.7726L44.949 20.2077C45.672 19.4814 45.672 18.271 44.949 17.6254L44.0653 16.7377L52.1792 8.50654C52.4202 8.66793 52.7416 8.66793 53.0629 8.66793C53.6253 8.66793 54.1876 8.42584 54.5893 8.02235L54.8303 7.78025C55.232 7.37677 55.473 6.81188 55.473 6.247C55.473 5.68211 55.232 5.11723 54.8303 4.71374L51.2152 1.08233C50.8135 0.840238 50.3315 0.598145 49.7691 0.598145C49.2068 0.598145 48.6444 0.840238 48.2428 1.24373L48.0018 1.48582C47.6001 1.88931 47.3591 2.4542 47.3591 3.01908C47.3591 3.34187 47.4394 3.58397 47.5197 3.82606L39.4059 12.0572L38.4418 11.0889C37.7188 10.3626 36.5138 10.3626 35.8711 11.0889L35.3087 11.6538C34.7464 12.2186 34.5857 13.1063 34.9874 13.7519L16.4299 32.3931C16.2692 32.5545 15.0642 33.6843 14.6625 34.1685C13.6985 35.3789 14.0198 36.5087 14.3411 37.4771C14.3411 37.6385 14.4215 37.7192 14.4215 37.8806C14.3411 37.8806 14.1805 37.9613 14.1001 38.042L13.4575 38.6875C13.2164 38.9296 13.2164 39.4138 13.4575 39.6559C12.8148 40.3822 11.5294 41.9155 10.726 42.9645C10.4047 43.368 10.4047 44.2557 10.485 44.8206L3.09416 52.2448C2.85316 52.4869 2.85316 52.9711 3.09416 53.2939C3.25483 53.4553 3.41551 53.5359 3.57618 53.5359C3.73685 53.5359 3.97785 53.4553 4.05819 53.2939L11.4491 45.8696C12.0114 45.9503 12.8148 45.8697 13.2164 45.5469C14.2608 44.7399 15.7069 43.5294 16.5102 42.8031C16.7512 43.0452 17.2332 43.0452 17.4742 42.8031L18.1169 42.1575C18.2776 41.9962 18.2776 41.9155 18.3579 41.7541L18.5186 41.6734L20.045 41.9155C20.9287 42.0769 21.732 41.8348 22.3747 41.1892L42.2979 21.1761C42.9406 21.4989 43.8243 21.3375 44.3867 20.7726ZM49.0461 4.39094C49.2068 4.22955 49.2871 4.06815 49.2871 3.82606C49.2871 3.66466 49.2068 3.42257 49.0461 3.34187C48.9658 3.26117 48.8855 3.09978 48.8855 2.93838C48.8855 2.77699 48.9658 2.61559 49.0461 2.4542L49.2871 2.2121C49.5281 1.97001 50.0102 1.97001 50.2512 2.2121L53.8663 5.84351C54.0269 6.0049 54.0269 6.1663 54.0269 6.32769C54.0269 6.48909 53.9466 6.65048 53.8663 6.81188L53.6253 7.05397C53.3843 7.29607 52.9022 7.29607 52.6612 7.05397C52.5006 6.89258 52.3399 6.81188 52.1792 6.81188C52.0185 6.81188 51.7775 6.89258 51.6972 7.05397L43.1013 15.7693L40.4502 13.1063L49.0461 4.39094ZM15.8675 41.4313C15.2248 41.9962 13.6181 43.4487 12.4934 44.2557C12.4131 44.3364 12.1721 44.3364 11.9311 44.3364C11.9311 44.0943 11.9311 43.8522 11.9311 43.6908C12.7344 42.561 14.1805 40.9471 14.7428 40.3015C14.7428 40.3015 14.8232 40.2208 14.8232 40.1401L14.9838 39.8173L16.2692 41.1085L15.9479 41.2699C15.9479 41.3506 15.9479 41.3506 15.8675 41.4313ZM21.4107 40.0594C21.1697 40.3015 20.768 40.4629 20.3663 40.3822L18.5186 40.0594C18.3579 40.0594 18.1973 40.0594 18.0366 40.1401L17.5546 40.3822L15.7872 38.6068L15.8675 38.4454C15.9479 38.284 15.9479 38.1227 15.9479 37.9613C15.8675 37.6385 15.7872 37.3157 15.7069 37.0736C15.3855 36.1052 15.3052 35.7017 15.7872 35.1368C16.0282 34.814 16.9119 34.0071 17.3939 33.5229L30.6493 20.2077L35.9514 25.5338L21.4107 40.0594ZM42.7799 19.8042C42.4586 19.4814 41.9766 19.4814 41.7356 19.7235L37.0761 24.404L31.774 19.078L36.4334 14.3975C36.6744 14.1554 36.6744 13.6712 36.4334 13.3484L36.3531 13.2677C36.1924 13.1063 36.1924 12.8642 36.3531 12.7028L36.9155 12.1379C37.0761 11.9765 37.3171 11.9765 37.4778 12.1379L43.985 18.6745C44.1457 18.8359 44.1457 19.078 43.985 19.2394L43.4226 19.8042C43.262 19.9656 42.9406 19.9656 42.7799 19.8042Z" fill="#B68C6E"/>
</svg>
