<svg width="477" height="709" viewBox="0 0 477 709" fill="none" xmlns="http://www.w3.org/2000/svg">
<path opacity="0.4" d="M64.9014 1350C83.6911 1197.87 -35.5401 1156.75 -118.891 1109.5M-118.891 1109.5C-179.997 1074.87 -233.147 1069.73 -226.424 1096C-217.202 1132.04 -175.98 1169.02 -118.891 1109.5ZM-118.891 1109.5C-77.5988 1066.46 -6.93068 911.922 44.8579 731.052C94.7207 556.907 181.434 476.369 264.165 447.742M280.452 -397C356.787 -336.328 320.762 -221.152 273.665 -154.432M273.665 -154.432C242.258 -109.939 205.926 -86.9956 194.709 -116.135C181.707 -149.913 224.759 -164.141 273.665 -154.432ZM273.665 -154.432C330.217 -143.207 394.596 -99.9767 389.187 -17.9612C379.101 134.982 291.179 192.584 230.806 311.655C209.196 354.275 228.477 404.567 264.165 447.742M264.165 447.742C328.181 525.189 444.987 579.738 473.259 526.034C499.499 476.191 386.161 405.529 264.165 447.742Z" stroke="white" stroke-width="3"/>
</svg>
