<svg width="24" height="23" viewBox="0 0 24 23" fill="none" xmlns="http://www.w3.org/2000/svg">
<path fill-rule="evenodd" clip-rule="evenodd" d="M16.7833 22.8223H6.92617C5.18331 22.8223 3.51184 22.1693 2.27946 21.0072C1.04708 19.845 0.354736 18.2687 0.354736 16.6251V7.01945C0.354736 5.37585 1.04708 3.79958 2.27946 2.63738C3.51184 1.47518 5.18331 0.822266 6.92617 0.822266H16.7833C18.5262 0.822266 20.1976 1.47518 21.43 2.63738C22.6624 3.79958 23.3547 5.37585 23.3547 7.01945V16.6251C23.3547 17.4389 23.1848 18.2448 22.8545 18.9966C22.5243 19.7485 22.0402 20.4317 21.43 21.0072C20.8198 21.5826 20.0954 22.0391 19.2981 22.3505C18.5008 22.662 17.6463 22.8223 16.7833 22.8223ZM21.219 6.55466C21.219 5.52741 20.7863 4.54224 20.0161 3.81587C19.2458 3.08949 18.2012 2.68142 17.1119 2.68142H6.43331C5.34403 2.68142 4.29937 3.08949 3.52913 3.81587C2.75889 4.54224 2.32616 5.52741 2.32616 6.55466V16.6251C2.32616 17.6523 2.75889 18.6375 3.52913 19.3639C4.29937 20.0903 5.34403 20.4983 6.43331 20.4983H17.1119C18.2012 20.4983 19.2458 20.0903 20.0161 19.3639C20.7863 18.6375 21.219 17.6523 21.219 16.6251V6.55466ZM17.9333 7.17438C17.6409 7.17438 17.355 7.0926 17.1119 6.93938C16.8687 6.78617 16.6792 6.5684 16.5673 6.31361C16.4554 6.05883 16.4261 5.77847 16.4832 5.50798C16.5402 5.2375 16.681 4.98905 16.8878 4.79405C17.0946 4.59904 17.358 4.46624 17.6448 4.41244C17.9317 4.35864 18.229 4.38625 18.4991 4.49179C18.7693 4.59732 19.0002 4.77604 19.1627 5.00534C19.3252 5.23465 19.4119 5.50423 19.4119 5.78001C19.4119 6.14982 19.2561 6.50448 18.9788 6.76598C18.7015 7.02747 18.3254 7.17438 17.9333 7.17438ZM11.7726 17.3997C10.5866 17.3997 9.42726 17.0681 8.44116 16.4467C7.45505 15.8253 6.68648 14.9422 6.23262 13.9088C5.77877 12.8755 5.66 11.7385 5.89138 10.6416C6.12275 9.54463 6.69385 8.53702 7.53247 7.74616C8.37109 6.95531 9.43955 6.41673 10.6027 6.19853C11.7659 5.98033 12.9716 6.09232 14.0673 6.52033C15.163 6.94834 16.0995 7.67314 16.7584 8.60309C17.4173 9.53304 17.769 10.6264 17.769 11.7448C17.769 13.2446 17.1373 14.6829 16.0127 15.7434C14.8882 16.8039 13.3629 17.3997 11.7726 17.3997ZM11.7726 8.10396C11.009 8.10396 10.2626 8.31749 9.62769 8.71755C8.9928 9.11761 8.49796 9.68623 8.20576 10.3515C7.91355 11.0168 7.83709 11.7488 7.98606 12.4551C8.13503 13.1613 8.50272 13.8101 9.04265 14.3193C9.58258 14.8284 10.2705 15.1752 11.0194 15.3157C11.7683 15.4562 12.5446 15.3841 13.25 15.1085C13.9555 14.8329 14.5584 14.3663 14.9827 13.7675C15.4069 13.1688 15.6333 12.4649 15.6333 11.7448C15.6333 10.7792 15.2266 9.85313 14.5025 9.17033C13.7785 8.48754 12.7965 8.10396 11.7726 8.10396Z" fill="#B68C6E"/>
</svg>
