<svg width="29" height="16" viewBox="0 0 29 16" fill="none" xmlns="http://www.w3.org/2000/svg">
<path fill-rule="evenodd" clip-rule="evenodd" d="M23.1275 15.7519H22.9186C21.4937 15.5381 20.6125 14.62 19.7847 13.7643C19.3102 13.2832 18.5464 12.0447 17.6955 12.1741C16.4854 12.3558 17.1604 14.3347 16.6508 15.1556C16.2468 15.8116 14.5008 15.6724 13.3081 15.5532C9.52652 15.1839 7.4753 13.383 5.78677 11.379C3.97331 9.2409 2.66774 6.89624 1.39936 4.42217C0.98151 3.6114 0.354736 2.82209 0.354736 1.83819C0.969601 1.37943 2.05935 1.44065 3.07075 1.44065C3.92149 1.44065 5.16 1.34723 5.78677 1.63942C6.15803 1.81553 6.53075 2.83561 6.83139 3.42833C7.41805 4.61294 8.11738 5.744 8.92064 6.80739C9.28584 7.28443 9.94207 8.12244 10.592 7.99999C11.2307 7.88272 11.1914 6.53647 11.2188 5.61478C11.252 4.56668 11.3381 3.1918 11.0099 2.63326C10.7053 2.10971 10.1134 2.15145 9.54741 1.83819C10.0162 0.963612 11.3233 0.844351 12.8902 0.844351C14.2039 0.844351 15.9229 0.645583 16.4419 1.44065C16.9573 2.26057 16.6899 3.9183 16.6508 5.01848C16.6118 6.25402 16.356 7.42695 17.2776 7.99999C17.9905 7.92963 18.3304 7.30431 18.7401 6.80739C19.6479 5.71615 20.3375 4.82965 21.0383 3.42833C21.3232 2.84336 21.5637 1.82487 22.0829 1.63942C22.8755 1.36751 24.0574 1.44065 25.2167 1.44065C26.1734 1.44065 27.8383 1.23553 28.1417 1.83819C28.3876 2.31941 27.7447 3.67679 27.5149 4.02464C26.6328 5.34803 25.7474 6.25302 24.7989 7.40369C24.4161 7.86881 23.7033 8.45955 23.7543 9.1926C23.7877 9.7583 24.3284 10.1876 24.7989 10.584C25.711 11.3752 26.5498 12.2397 27.306 13.168C27.616 13.5333 28.4191 14.2842 28.3506 14.7581C28.1574 16.2381 23.13 15.7378 23.1275 15.7519Z" fill="#B68C6E"/>
</svg>
