<svg width="94" height="107" viewBox="0 0 94 107" fill="none" xmlns="http://www.w3.org/2000/svg">
<path d="M74.7749 0.133301H23.5569C17.8903 0.133301 13.2044 4.93058 13.2044 10.7319V69.8612H1.76206C0.890262 69.8612 0.127441 70.6421 0.127441 71.5347C0.127441 77.336 4.81334 82.1333 10.48 82.1333H57.339C63.0056 82.1333 67.6915 77.336 67.6915 71.5347V12.4054H83.4928C84.3646 12.4054 85.1274 11.6245 85.1274 10.7319C85.1274 4.81901 80.4415 0.133301 74.7749 0.133301ZM10.48 78.6748C7.1018 78.6748 4.37744 76.3319 3.61462 73.0966H46.0056C46.3326 75.2163 47.3133 77.1129 48.73 78.6748H10.48ZM64.4223 71.4231C64.4223 75.4394 61.2621 78.6748 57.339 78.6748H56.2492C52.3262 78.6748 49.1659 75.4394 49.1659 71.4231C49.1659 70.5306 48.4031 69.7496 47.5313 69.7496H16.4736V10.6204C16.4736 6.60405 19.6339 3.36868 23.5569 3.36868H67.2556C65.5121 5.37684 64.4223 7.83126 64.4223 10.7319V71.4231ZM67.9095 9.05847C68.6723 5.8231 71.5056 3.48024 74.7749 3.48024C78.0441 3.48024 80.8774 5.8231 81.6403 9.05847H67.9095ZM56.0313 19.7687C56.0313 20.6612 55.2685 21.4421 54.3967 21.4421H24.6467C23.7749 21.4421 23.0121 20.6612 23.0121 19.7687C23.0121 18.8762 23.7749 18.0952 24.6467 18.0952H54.3967C55.3774 18.0952 56.0313 18.8762 56.0313 19.7687ZM48.4031 33.3796C48.4031 34.2721 47.6403 35.053 46.7685 35.053H24.6467C23.7749 35.053 23.0121 34.2721 23.0121 33.3796C23.0121 32.487 23.7749 31.7061 24.6467 31.7061H46.7685C47.7492 31.7061 48.4031 32.3755 48.4031 33.3796ZM56.0313 33.3796C56.0313 34.2721 55.2685 35.053 54.3967 35.053H52.98C52.1082 35.053 51.3454 34.2721 51.3454 33.3796C51.3454 32.487 52.1082 31.7061 52.98 31.7061H54.3967C55.3774 31.7061 56.0313 32.3755 56.0313 33.3796ZM48.4031 44.536C48.4031 45.4285 47.6403 46.2095 46.7685 46.2095H24.6467C23.7749 46.2095 23.0121 45.4285 23.0121 44.536C23.0121 43.6435 23.7749 42.8626 24.6467 42.8626H46.7685C47.7492 42.8626 48.4031 43.5319 48.4031 44.536ZM56.0313 44.536C56.0313 45.4285 55.2685 46.2095 54.3967 46.2095H52.98C52.1082 46.2095 51.3454 45.4285 51.3454 44.536C51.3454 43.6435 52.1082 42.8626 52.98 42.8626H54.3967C55.3774 42.8626 56.0313 43.5319 56.0313 44.536ZM48.4031 55.6925C48.4031 56.585 47.6403 57.366 46.7685 57.366H24.6467C23.7749 57.366 23.0121 56.585 23.0121 55.6925C23.0121 54.8 23.7749 54.019 24.6467 54.019H46.7685C47.7492 54.019 48.4031 54.6884 48.4031 55.6925ZM56.0313 55.6925C56.0313 56.585 55.2685 57.366 54.3967 57.366H52.98C52.1082 57.366 51.3454 56.585 51.3454 55.6925C51.3454 54.8 52.1082 54.019 52.98 54.019H54.3967C55.3774 54.019 56.0313 54.6884 56.0313 55.6925Z" fill="#2B2B2B"/>
<circle cx="63.6274" cy="76.6333" r="29.5" fill="white"/>
<path d="M68.9631 82.0429L73.1274 86.1333M71.7125 75.7697C71.7125 80.5394 67.7759 84.406 62.9199 84.406C58.064 84.406 54.1274 80.5394 54.1274 75.7697C54.1274 70.9999 58.064 67.1333 62.9199 67.1333C67.7759 67.1333 71.7125 70.9999 71.7125 75.7697Z" stroke="#B68C6E" stroke-width="2"/>
</svg>
