<svg width="208" height="196" viewBox="0 0 208 196" fill="none" xmlns="http://www.w3.org/2000/svg">
<circle cx="104.143" cy="98.2274" r="5.59168" fill="white"/>
<path d="M54.5992 190.031L45.9981 184.474L46.6818 183.416L54.0566 188.181L56.542 184.334L52.695 181.848C51.3063 180.951 50.438 179.985 50.0903 178.951C49.7313 177.91 49.9028 176.846 50.6046 175.759C51.3354 174.628 52.2881 174.014 53.4628 173.915C54.6263 173.81 55.936 174.227 57.3919 175.168L62.1964 178.272L54.5992 190.031ZM56.7684 176.17C55.682 175.468 54.7306 175.147 53.9141 175.207C53.0864 175.26 52.4085 175.695 51.8803 176.512C51.3594 177.319 51.2466 178.095 51.5422 178.841C51.8193 179.592 52.5122 180.325 53.6209 181.042L57.1823 183.343L60.3297 178.471L56.7684 176.17Z" fill="#504339"/>
<path d="M39.5499 161.702L40.4438 160.786L47.5292 167.7L37.7513 177.72L30.8807 171.015L31.7747 170.099L37.5861 175.77L41.0642 172.206L35.8826 167.15L36.7626 166.248L41.9442 171.304L45.576 167.583L39.5499 161.702Z" fill="#504339"/>
<path d="M27.2874 155.412C26.9371 154.532 26.855 153.706 27.0411 152.934C27.2194 152.151 27.6503 151.516 28.3338 151.027C28.9957 150.555 29.7234 150.346 30.517 150.402C31.3106 150.458 32.0871 150.731 32.8466 151.221C33.5952 151.718 34.2562 152.368 34.8296 153.171C35.3721 153.931 35.7875 154.765 36.0757 155.673C36.3454 156.578 36.4453 157.498 36.3755 158.433L35.1991 158.609C35.2657 157.808 35.1844 157.006 34.9551 156.203C34.7148 155.408 34.3623 154.685 33.8973 154.034C33.4556 153.415 32.9511 152.916 32.3838 152.534C31.8166 152.153 31.2454 151.938 30.6704 151.89C30.0767 151.839 29.5304 151.992 29.0313 152.348C28.3694 152.821 28.0454 153.445 28.0593 154.222C28.0732 154.998 28.4173 155.859 29.0915 156.803L30.8351 159.244L29.8586 159.941L28.1615 157.565C27.588 156.762 26.9743 156.259 26.3202 156.054C25.6475 155.846 25.0074 155.959 24.3998 156.393C23.727 156.874 23.4062 157.537 23.4371 158.383C23.4572 159.237 23.7773 160.098 24.3972 160.966C24.7847 161.509 25.2574 161.999 25.8154 162.436C26.3625 162.881 26.9716 163.24 27.6427 163.515L26.9405 164.631C25.4619 163.983 24.2537 163.002 23.3161 161.689C22.7659 160.919 22.3869 160.125 22.1793 159.306C21.9716 158.488 21.9693 157.728 22.1724 157.026C22.3678 156.313 22.7801 155.731 23.4094 155.282C24.017 154.848 24.6633 154.64 25.3484 154.659C26.0227 154.685 26.669 154.936 27.2874 155.412Z" fill="#504339"/>
<path d="M26.5023 138.529C27.0964 139.782 27.3592 141.052 27.2906 142.339C27.2042 143.619 26.8102 144.78 26.1086 145.821C25.4013 146.85 24.4392 147.653 23.2224 148.23C22.0056 148.807 20.7751 149.044 19.5307 148.94C18.2806 148.825 17.1386 148.393 16.1045 147.643C15.0527 146.888 14.2297 145.884 13.6356 144.631C13.0414 143.378 12.7844 142.12 12.8644 140.857C12.9387 139.582 13.3327 138.422 14.0464 137.375C14.748 136.334 15.7072 135.525 16.924 134.948C18.1408 134.371 19.3802 134.137 20.6423 134.247C21.8924 134.363 23.0345 134.795 24.0685 135.544C25.0969 136.281 25.9081 137.276 26.5023 138.529ZM25.3096 139.095C24.8354 138.095 24.184 137.297 23.3555 136.701C22.515 136.111 21.5886 135.776 20.5763 135.695C19.5521 135.62 18.546 135.817 17.5581 136.285C16.5702 136.754 15.7873 137.405 15.2092 138.24C14.6191 139.081 14.2926 140.01 14.2296 141.029C14.1545 142.053 14.3541 143.065 14.8283 144.065C15.3024 145.065 15.9627 145.866 16.8089 146.468C17.6375 147.064 18.5667 147.405 19.5967 147.493C20.6089 147.573 21.609 147.379 22.5969 146.911C23.5847 146.443 24.3737 145.788 24.9638 144.947C25.5362 144.101 25.8598 143.165 25.9349 142.141C25.9922 141.11 25.7837 140.095 25.3096 139.095Z" fill="#504339"/>
<path d="M6.43729 121.653L19.9948 118.161L20.359 119.575L8.04098 122.747L10.2508 131.327L22.5688 128.155L22.933 129.568L9.37542 133.06L6.43729 121.653Z" fill="#504339"/>
<path d="M17.7058 103.551L18.9834 103.473L19.5905 113.354L5.61686 114.213L5.02813 104.631L6.30572 104.552L6.80368 112.657L11.7743 112.352L11.3303 105.125L12.5879 105.048L13.0319 112.274L18.2222 111.956L17.7058 103.551Z" fill="#504339"/>
<path d="M6.16022 90.5211C6.39854 88.7504 7.00813 87.4198 7.98901 86.5293C8.96988 85.6389 10.2003 85.2933 11.6803 85.4924C13.1603 85.6916 14.2556 86.3503 14.9661 87.4684C15.6634 88.5847 15.8929 90.0282 15.6546 91.7989L15.1531 95.5253L19.5336 96.1149L19.3362 97.5817L5.46127 95.7143L6.16022 90.5211ZM14.3609 91.6652C14.5459 90.2909 14.3899 89.2003 13.8931 88.3935C13.3831 87.5849 12.5797 87.1068 11.4829 86.9592C10.3597 86.808 9.45185 87.0558 8.7594 87.7026C8.05373 88.3476 7.60841 89.3572 7.42345 90.7315L6.92725 94.4182L13.8647 95.3519L14.3609 91.6652Z" fill="#504339"/>
<path d="M21.8299 70.8642L19.343 78.2572L22.3521 81.0419L21.8611 82.5015L10.6323 71.9719L11.0978 70.5881L26.4077 68.9858L25.9103 70.4644L21.8299 70.8642ZM20.5203 70.9934L12.3215 71.7805L18.3778 77.3627L20.5203 70.9934Z" fill="#504339"/>
<path d="M33.5123 54.0801L37.4804 56.3269L36.8004 57.5278L33.9462 55.9117L27.9251 66.5454L15.7425 59.6473L16.4619 58.3768L27.5307 64.6442L31.6991 57.2824L20.6303 51.015L21.3497 49.7445L32.4185 56.012L33.5123 54.0801Z" fill="#504339"/>
<path d="M26.623 42.69L27.5848 41.5916L36.3116 49.2338L33.4878 34.8509L34.3706 33.8428L44.9029 43.0661L43.9411 44.1645L35.2293 36.5355L38.0381 50.9052L37.1553 51.9133L26.623 42.69Z" fill="#504339"/>
<path d="M54.1365 35.8176C53.038 36.6639 51.8527 37.1899 50.5806 37.3957C49.3109 37.5828 48.093 37.4438 46.9269 36.9788C45.7713 36.5057 44.7827 35.7357 43.9608 34.6689C43.139 33.6021 42.6467 32.4497 42.4841 31.2117C42.332 29.9656 42.5124 28.7578 43.0253 27.5884C43.5407 26.4003 44.3476 25.3832 45.4461 24.5369C46.5446 23.6906 47.7194 23.1728 48.9704 22.9833C50.2319 22.7856 51.4498 22.9246 52.624 23.4001C53.7901 23.8651 54.7841 24.631 55.606 25.6978C56.4278 26.7646 56.9188 27.9264 57.0791 29.1831C57.2312 30.4292 57.0508 31.637 56.5378 32.8064C56.0354 33.9676 55.235 34.9714 54.1365 35.8176ZM53.3309 34.772C54.2076 34.0966 54.8493 33.2909 55.2559 32.3549C55.6544 31.4083 55.7858 30.4319 55.6501 29.4256C55.5063 28.4087 55.1008 27.4672 54.4335 26.601C53.7663 25.7349 52.9635 25.1079 52.025 24.72C51.0785 24.3215 50.1008 24.1994 49.0921 24.3538C48.0752 24.4976 47.1284 24.9072 46.2517 25.5826C45.375 26.258 44.7321 27.073 44.3231 28.0277C43.9165 28.9637 43.7798 29.9442 43.913 30.9692C44.0487 31.9756 44.4502 32.9118 45.1174 33.7779C45.7846 34.644 46.5915 35.2763 47.5381 35.6748C48.4871 36.0546 49.47 36.1726 50.4869 36.0288C51.5062 35.8663 52.4542 35.4473 53.3309 34.772Z" fill="#504339"/>
<path d="M66.3045 12.6671L72.5912 25.1762L71.2867 25.8319L68.3858 20.0598L60.5587 23.9934L63.4595 29.7655L62.1371 30.4301L55.8505 17.921L57.1729 17.2564L59.9749 22.8319L67.8021 18.8982L65 13.3227L66.3045 12.6671Z" fill="#504339"/>
<path d="M84.7909 7.09463L88.5325 20.5854L87.1256 20.9756L85.3991 14.7506L76.9578 17.0918L78.6843 23.3168L77.2581 23.7123L73.5165 10.2216L74.9426 9.82602L76.6103 15.839L85.0517 13.4978L83.384 7.48483L84.7909 7.09463Z" fill="#504339"/>
<path d="M102.035 15.6061L94.2626 16.2626L92.9034 20.1307L91.3689 20.2604L96.5678 5.77135L98.0226 5.64846L105.578 19.0601L104.024 19.1914L102.035 15.6061ZM101.396 14.4558L97.4148 7.24528L94.6997 15.0214L101.396 14.4558Z" fill="#504339"/>
<path d="M119.677 6.55584L118.313 20.4892L116.86 20.347L117.273 16.1272L113.113 15.72C112.928 15.7018 112.663 15.6625 112.321 15.6022L108.978 19.5754L107.406 19.4215L111.013 15.2129C110.021 14.8077 109.291 14.1936 108.822 13.3707C108.354 12.5345 108.176 11.5525 108.286 10.4245C108.44 8.85867 109.049 7.69253 110.116 6.92611C111.195 6.16099 112.578 5.86091 114.263 6.02587L119.677 6.55584ZM109.763 10.5289C109.651 11.6701 109.897 12.585 110.499 13.2737C111.116 13.9503 112.068 14.3516 113.356 14.4776L117.396 14.8732L118.1 7.68751L114.198 7.30563C112.898 7.17833 111.859 7.39146 111.081 7.945C110.318 8.48657 109.879 9.34787 109.763 10.5289Z" fill="#504339"/>
<path d="M148.972 15.9936L143.588 28.917L142.241 28.3556L147.132 16.6137L138.954 13.2065L134.062 24.9483L132.714 24.3869L138.098 11.4635L148.972 15.9936Z" fill="white"/>
<path d="M152.719 34.9848C151.563 34.2185 150.682 33.2667 150.077 32.1292C149.489 30.9881 149.227 29.7906 149.291 28.5368C149.365 27.2904 149.775 26.106 150.519 24.9836C151.263 23.8612 152.194 23.023 153.314 22.4692C154.444 21.9227 155.645 21.7033 156.917 21.811C158.208 21.9149 159.432 22.35 160.587 23.1162C161.743 23.8825 162.613 24.8269 163.196 25.9496C163.791 27.0797 164.053 28.2772 163.982 29.5421C163.919 30.7959 163.515 31.984 162.771 33.1064C162.027 34.2288 161.086 35.0688 159.948 35.6264C158.818 36.1729 157.617 36.3923 156.344 36.2846C155.083 36.1843 153.874 35.751 152.719 34.9848ZM153.448 33.8846C154.37 34.4961 155.34 34.8431 156.357 34.9255C157.382 34.9969 158.348 34.8058 159.257 34.3523C160.173 33.8878 160.933 33.1998 161.537 32.2886C162.141 31.3773 162.475 30.415 162.539 29.4016C162.611 28.377 162.41 27.4124 161.938 26.5076C161.474 25.5916 160.78 24.8279 159.858 24.2164C158.936 23.6049 157.957 23.2598 156.921 23.1811C155.904 23.0986 154.932 23.286 154.005 23.7432C153.096 24.1967 152.34 24.8791 151.736 25.7903C151.131 26.7016 150.794 27.6695 150.722 28.694C150.669 29.7148 150.875 30.6831 151.34 31.5991C151.823 32.5112 152.526 33.2731 153.448 33.8846Z" fill="white"/>
<path d="M170.476 48.9114L167.38 52.0656L166.395 51.0988L168.595 48.8581L159.874 40.2974L157.66 42.5241L156.676 41.5574L159.786 38.4172L160.286 38.9076C160.98 39.5141 161.946 39.4439 163.183 38.697C164.43 37.9406 165.988 36.6676 167.857 34.8777L171.152 31.75L177.889 38.3632L168.978 47.4403L170.476 48.9114ZM168.701 35.9024C167.159 37.378 165.807 38.5172 164.646 39.3199C163.503 40.1225 162.549 40.4754 161.784 40.3788L167.936 46.4175L175.95 38.2538L171.169 33.5602L168.701 35.9024Z" fill="white"/>
<path d="M187.294 53.0851L184.429 49.0856L174.089 56.4935L173.239 55.3067L183.579 47.8987L180.713 43.8992L181.754 43.1538L188.335 52.3397L187.294 53.0851Z" fill="white"/>
<path d="M195.511 66.5084L182.924 72.6373L182.284 71.3246L186.097 69.4685L184.267 65.7103C184.185 65.5424 184.08 65.2969 183.952 64.9735L178.817 64.2039L178.126 62.7833L183.6 63.6549C183.426 62.5976 183.567 61.6539 184.023 60.8239C184.491 59.988 185.234 59.322 186.253 58.8258C187.668 58.1371 188.981 58.0465 190.192 58.5542C191.409 59.0739 192.388 60.095 193.129 61.6174L195.511 66.5084ZM186.937 60.139C185.906 60.6409 185.255 61.3288 184.983 62.2025C184.73 63.0824 184.886 64.1038 185.452 65.2666L187.229 68.9169L193.721 65.7561L192.005 62.2317C191.433 61.0569 190.707 60.283 189.829 59.91C188.968 59.5432 188.004 59.6195 186.937 60.139Z" fill="white"/>
<path d="M193.882 87.632L193.18 84.8184L186.951 86.3735L186.602 84.9764L192.831 83.4212L192.124 80.5882L184.858 77.9908L184.441 76.322L192.609 79.2302L198.112 73.2801L198.499 74.8324L193.38 80.2539L194.092 83.1063L200.185 81.5851L200.534 82.9822L194.441 84.5035L195.143 87.3171L202.215 89.7155L202.603 91.2679L194.949 88.6025L189.107 95.0084L188.69 93.3397L193.882 87.632Z" fill="white"/>
<path d="M195.218 101.779L195.088 98.582L188.673 98.8428L188.615 97.404L202.603 96.8351L202.661 98.274L196.387 98.5291L196.517 101.727L202.984 106.207L203.049 107.806L196.043 102.887L189.073 108.675L189.004 106.976L195.218 101.779Z" fill="white"/>
<path d="M190.989 121.83L192.052 114.103L188.576 111.929L188.786 110.403L201.783 118.652L201.584 120.098L186.842 124.53L187.054 122.984L190.989 121.83ZM192.251 121.459L200.159 119.155L193.167 114.801L192.251 121.459Z" fill="white"/>
<path d="M191.092 151.554L178.338 145.78L178.94 144.45L190.528 149.696L193.316 143.537L189.118 141.461C187.385 140.604 186.029 139.814 185.053 139.094C184.083 138.392 183.435 137.689 183.109 136.985C182.796 136.287 182.813 135.556 183.159 134.79C183.307 134.462 183.504 134.142 183.748 133.828L184.901 134.481C184.759 134.666 184.644 134.855 184.556 135.05C184.314 135.584 184.332 136.112 184.609 136.632C184.88 137.165 185.42 137.717 186.23 138.288C187.052 138.865 188.184 139.516 189.626 140.242L195.01 142.899L191.092 151.554Z" fill="white"/>
<path d="M187.111 157.976L186.263 159.164L176.823 152.423L181.055 166.456L180.276 167.546L168.884 159.409L169.732 158.221L179.156 164.952L174.94 150.93L175.719 149.84L187.111 157.976Z" fill="white"/>
<path d="M155.893 173.599L152.796 170.252L153.809 169.315L156.036 171.722L165.006 163.423L174.514 173.7L173.442 174.691L164.804 165.355L158.594 171.1L167.232 180.437L166.161 181.428L157.522 172.091L155.893 173.599Z" fill="white"/>
<path d="M146.068 182.434L152.694 178.318L152.147 174.254L153.455 173.442L155.406 188.711L154.166 189.481L141.342 180.966L142.667 180.143L146.068 182.434ZM147.16 183.168L153.982 187.783L152.868 179.622L147.16 183.168Z" fill="white"/>
</svg>
