<svg width="23" height="23" viewBox="0 0 23 23" fill="none" xmlns="http://www.w3.org/2000/svg">
<path fill-rule="evenodd" clip-rule="evenodd" d="M16.3571 22.7627H7.01452C5.36265 22.7627 3.77843 22.1158 2.61038 20.9642C1.44233 19.8126 0.786133 18.2507 0.786133 16.6221V7.10404C0.786133 5.47544 1.44233 3.91353 2.61038 2.76194C3.77843 1.61034 5.36265 0.963379 7.01452 0.963379H16.3571C18.009 0.963379 19.5932 1.61034 20.7612 2.76194C21.9293 3.91353 22.5855 5.47544 22.5855 7.10404V16.6221C22.5855 17.4285 22.4244 18.227 22.1114 18.972C21.7984 19.717 21.3396 20.394 20.7612 20.9642C20.1829 21.5344 19.4963 21.9867 18.7406 22.2953C17.9849 22.6039 17.175 22.7627 16.3571 22.7627ZM20.5613 6.64349C20.5613 5.62561 20.1511 4.64943 19.4211 3.92968C18.6911 3.20993 17.7009 2.80558 16.6685 2.80558H6.54739C5.51497 2.80558 4.52485 3.20993 3.79482 3.92968C3.06478 4.64943 2.65465 5.62561 2.65465 6.64349V16.6221C2.65465 17.6399 3.06478 18.6161 3.79482 19.3359C4.52485 20.0556 5.51497 20.46 6.54739 20.46H16.6685C17.7009 20.46 18.6911 20.0556 19.4211 19.3359C20.1511 18.6161 20.5613 17.6399 20.5613 16.6221V6.64349ZM17.4471 7.25756C17.1699 7.25756 16.899 7.17653 16.6685 7.02471C16.438 6.87289 16.2584 6.65711 16.1523 6.40464C16.0463 6.15218 16.0185 5.87438 16.0726 5.60636C16.1267 5.33835 16.2601 5.09216 16.4561 4.89894C16.6521 4.70571 16.9018 4.57412 17.1737 4.52081C17.4455 4.4675 17.7273 4.49486 17.9833 4.59943C18.2394 4.70401 18.4583 4.88109 18.6123 5.10831C18.7663 5.33552 18.8485 5.60264 18.8485 5.87591C18.8485 6.24234 18.7008 6.59377 18.438 6.85288C18.1752 7.11199 17.8187 7.25756 17.4471 7.25756ZM11.608 17.3897C10.4839 17.3897 9.38505 17.061 8.45042 16.4453C7.51579 15.8296 6.78734 14.9545 6.35718 13.9306C5.92702 12.9067 5.81445 11.7801 6.03375 10.6931C6.25305 9.60619 6.79434 8.60777 7.58917 7.82413C8.38401 7.04048 9.3967 6.50682 10.4992 6.29061C11.6016 6.0744 12.7444 6.18537 13.7829 6.60947C14.8214 7.03358 15.709 7.75177 16.3335 8.67324C16.958 9.59471 17.2914 10.6781 17.2914 11.7863C17.2914 13.2724 16.6926 14.6976 15.6267 15.7485C14.5609 16.7993 13.1153 17.3897 11.608 17.3897ZM11.608 8.17866C10.8842 8.17866 10.1768 8.39024 9.57502 8.78665C8.97327 9.18307 8.50427 9.7465 8.22731 10.4057C7.95036 11.0649 7.8779 11.7903 8.01909 12.4901C8.16028 13.1899 8.50877 13.8327 9.02052 14.3373C9.53226 14.8418 10.1843 15.1854 10.8941 15.3246C11.6039 15.4638 12.3396 15.3924 13.0083 15.1193C13.6769 14.8463 14.2484 14.3839 14.6505 13.7906C15.0525 13.1973 15.2671 12.4998 15.2671 11.7863C15.2671 10.8295 14.8816 9.91187 14.1954 9.23531C13.5092 8.55875 12.5784 8.17866 11.608 8.17866Z" fill="white"/>
</svg>
