<svg width="22" height="12" viewBox="0 0 22 12" fill="none" xmlns="http://www.w3.org/2000/svg">
<path fill-rule="evenodd" clip-rule="evenodd" d="M17.2801 11.8101H17.1236C16.0563 11.6417 15.3962 10.9189 14.7761 10.2453C14.4207 9.86658 13.8486 8.89155 13.2111 8.99341C12.3047 9.13644 12.8103 10.6944 12.4286 11.3406C12.126 11.857 10.8181 11.7475 9.92465 11.6536C7.09201 11.3628 5.5555 9.94513 4.29067 8.36749C2.93225 6.68423 1.95429 4.83839 1.00418 2.89068C0.691178 2.25239 0.22168 1.63101 0.22168 0.85643C0.682258 0.495273 1.49856 0.543469 2.25617 0.543469C2.89344 0.543469 3.82117 0.469923 4.29067 0.699949C4.56877 0.838591 4.84796 1.64165 5.07317 2.10827C5.51261 3.04086 6.03646 3.93129 6.63816 4.76844C6.91172 5.144 7.40329 5.80372 7.89016 5.70732C8.36858 5.615 8.33916 4.55516 8.35966 3.82956C8.38454 3.00444 8.44902 1.92206 8.20316 1.48235C7.97498 1.07018 7.53162 1.10304 7.10766 0.85643C7.45885 0.167916 8.43791 0.0740273 9.61165 0.0740273C10.5957 0.0740273 11.8834 -0.0824531 12.2721 0.543469C12.6582 1.18895 12.4579 2.494 12.4286 3.36012C12.3994 4.3328 12.2078 5.25619 12.8981 5.70732C13.4321 5.65193 13.6867 5.15964 13.9936 4.76844C14.6736 3.90936 15.1902 3.21146 15.7151 2.10827C15.9286 1.64775 16.1087 0.845946 16.4976 0.699949C17.0914 0.485884 17.9767 0.543469 18.8451 0.543469C19.5617 0.543469 20.8089 0.381981 21.0361 0.85643C21.2203 1.23527 20.7388 2.30387 20.5666 2.57772C19.9059 3.61956 19.2426 4.33202 18.5321 5.23788C18.2454 5.60405 17.7114 6.06911 17.7496 6.64621C17.7747 7.09155 18.1797 7.42955 18.5321 7.74157C19.2154 8.36448 19.8437 9.04508 20.4101 9.77582C20.6424 10.0634 21.244 10.6546 21.1926 11.0277C21.0479 12.1928 17.282 11.799 17.2801 11.8101Z" fill="white"/>
</svg>
