<svg width="22" height="23" viewBox="0 0 22 23" fill="none" xmlns="http://www.w3.org/2000/svg">
<path fill-rule="evenodd" clip-rule="evenodd" d="M6.01462 9.25592C5.97781 8.7668 6.07379 8.27682 6.29256 7.83742C6.35921 7.66237 6.45185 7.49827 6.56739 7.35061C6.77363 7.07265 7.04921 6.85321 7.36678 6.71405C7.36678 6.71405 8.31065 6.62173 8.39231 6.74816C8.82972 7.50473 9.19563 8.30015 9.48536 9.12416C9.62985 9.66308 8.87132 10.2782 8.87132 10.2782C8.87132 10.2782 8.39075 10.5223 8.87132 11.1268C9.22939 11.5779 9.83873 12.3641 10.2047 12.6544C10.5912 12.9695 11.0024 13.2534 11.4344 13.5033C12.328 13.997 12.4944 13.9444 12.4944 13.9444C12.4944 13.9444 12.6593 14.0115 13.1085 13.4014C13.3488 13.0775 13.611 12.6972 13.8607 12.6206C14.1497 12.5325 16.4834 13.8679 16.3908 13.7746C16.5541 13.9388 16.4253 14.465 16.4253 14.465C16.4253 14.465 16.4756 15.0537 15.5867 15.7325C15.0009 16.1802 14.0319 16.2867 14.0319 16.2867C13.4218 16.2433 12.8221 16.106 12.2541 15.8799C11.3071 15.5242 10.3067 15.2249 9.00793 14.047C8.10568 13.2307 7.32185 12.2933 6.67893 11.2617C5.99577 10.0879 6.01462 9.25592 6.01462 9.25592ZM11.1093 21.8535C9.29846 21.8561 7.51801 21.39 5.94234 20.5009L0.222656 22.3288L2.10252 16.7634C0.916197 14.7838 0.420581 12.4688 0.692919 10.1792C0.965257 7.88957 1.99023 5.75409 3.60809 4.10565C5.22595 2.45722 7.34575 1.38847 9.63701 1.06604C11.9283 0.743601 14.2622 1.18559 16.275 2.32311C18.2877 3.46062 19.8662 5.22973 20.7643 7.35462C21.6624 9.47951 21.8296 11.8408 21.2399 14.0703C20.6502 16.2998 19.3368 18.2722 17.5043 19.6801C15.6718 21.088 13.4232 21.8522 11.1093 21.8535ZM11.092 2.74226C9.48265 2.7363 7.90287 3.17262 6.52629 4.00324C5.14971 4.83386 4.02964 6.02662 3.28928 7.45037C2.54891 8.87411 2.21691 10.4737 2.32977 12.0733C2.44263 13.6728 2.99601 15.2104 3.92901 16.5169L3.09508 19.0363L3.09822 19.0386L2.85479 19.7492L4.26979 19.3306C4.26754 19.3279 4.26488 19.3256 4.26193 19.3237L6.20307 18.715C7.33959 19.48 8.6404 19.9686 10.0009 20.1415C11.3614 20.3144 12.7437 20.1669 14.0365 19.7107C15.3294 19.2545 16.4968 18.5025 17.4449 17.515C18.393 16.5275 19.0953 15.3321 19.4954 14.025C19.8955 12.7178 19.9822 11.3354 19.7485 9.98879C19.5148 8.64219 18.9673 7.36901 18.15 6.27161C17.3326 5.17421 16.2682 4.2832 15.0424 3.67023C13.8166 3.05725 12.4635 2.73941 11.092 2.74226Z" fill="white"/>
</svg>
