<svg width="162" height="145" viewBox="0 0 162 145" fill="none" xmlns="http://www.w3.org/2000/svg">
<g clip-path="url(#clip0_503_628)">
<path d="M2.37209 4.65447C3.40602 4.65447 4.24419 3.81354 4.24419 2.77621C4.24419 1.73888 3.40602 0.897949 2.37209 0.897949C1.33816 0.897949 0.5 1.73888 0.5 2.77621C0.5 3.81354 1.33816 4.65447 2.37209 4.65447Z" fill="url(#paint0_linear_503_628)"/>
<path d="M54.7908 4.65447C55.8247 4.65447 56.6629 3.81354 56.6629 2.77621C56.6629 1.73888 55.8247 0.897949 54.7908 0.897949C53.7569 0.897949 52.9187 1.73888 52.9187 2.77621C52.9187 3.81354 53.7569 4.65447 54.7908 4.65447Z" fill="url(#paint1_linear_503_628)"/>
<path d="M107.209 4.65447C108.243 4.65447 109.081 3.81354 109.081 2.77621C109.081 1.73888 108.243 0.897949 107.209 0.897949C106.175 0.897949 105.337 1.73888 105.337 2.77621C105.337 3.81354 106.175 4.65447 107.209 4.65447Z" fill="url(#paint2_linear_503_628)"/>
<path d="M159.628 4.65447C160.662 4.65447 161.5 3.81354 161.5 2.77621C161.5 1.73888 160.662 0.897949 159.628 0.897949C158.594 0.897949 157.756 1.73888 157.756 2.77621C157.756 3.81354 158.594 4.65447 159.628 4.65447Z" fill="url(#paint3_linear_503_628)"/>
<path d="M2.37209 39.7155C3.40602 39.7155 4.24419 38.8746 4.24419 37.8372C4.24419 36.7999 3.40602 35.959 2.37209 35.959C1.33816 35.959 0.5 36.7999 0.5 37.8372C0.5 38.8746 1.33816 39.7155 2.37209 39.7155Z" fill="url(#paint4_linear_503_628)"/>
<path d="M54.7908 39.7155C55.8247 39.7155 56.6629 38.8746 56.6629 37.8372C56.6629 36.7999 55.8247 35.959 54.7908 35.959C53.7569 35.959 52.9187 36.7999 52.9187 37.8372C52.9187 38.8746 53.7569 39.7155 54.7908 39.7155Z" fill="url(#paint5_linear_503_628)"/>
<path d="M107.209 39.7155C108.243 39.7155 109.081 38.8746 109.081 37.8372C109.081 36.7999 108.243 35.959 107.209 35.959C106.175 35.959 105.337 36.7999 105.337 37.8372C105.337 38.8746 106.175 39.7155 107.209 39.7155Z" fill="url(#paint6_linear_503_628)"/>
<path d="M159.628 39.7155C160.662 39.7155 161.5 38.8746 161.5 37.8372C161.5 36.7999 160.662 35.959 159.628 35.959C158.594 35.959 157.756 36.7999 157.756 37.8372C157.756 38.8746 158.594 39.7155 159.628 39.7155Z" fill="url(#paint7_linear_503_628)"/>
<path d="M2.37209 74.776C3.40602 74.776 4.24419 73.9351 4.24419 72.8978C4.24419 71.8605 3.40602 71.0195 2.37209 71.0195C1.33816 71.0195 0.5 71.8605 0.5 72.8978C0.5 73.9351 1.33816 74.776 2.37209 74.776Z" fill="url(#paint8_linear_503_628)"/>
<path d="M54.7908 74.776C55.8247 74.776 56.6629 73.9351 56.6629 72.8978C56.6629 71.8605 55.8247 71.0195 54.7908 71.0195C53.7569 71.0195 52.9187 71.8605 52.9187 72.8978C52.9187 73.9351 53.7569 74.776 54.7908 74.776Z" fill="url(#paint9_linear_503_628)"/>
<path d="M107.209 74.776C108.243 74.776 109.081 73.9351 109.081 72.8978C109.081 71.8605 108.243 71.0195 107.209 71.0195C106.175 71.0195 105.337 71.8605 105.337 72.8978C105.337 73.9351 106.175 74.776 107.209 74.776Z" fill="url(#paint10_linear_503_628)"/>
<path d="M159.628 74.776C160.662 74.776 161.5 73.9351 161.5 72.8978C161.5 71.8605 160.662 71.0195 159.628 71.0195C158.594 71.0195 157.756 71.8605 157.756 72.8978C157.756 73.9351 158.594 74.776 159.628 74.776Z" fill="url(#paint11_linear_503_628)"/>
<path d="M2.37209 109.837C3.40602 109.837 4.24419 108.996 4.24419 107.959C4.24419 106.921 3.40602 106.081 2.37209 106.081C1.33816 106.081 0.5 106.921 0.5 107.959C0.5 108.996 1.33816 109.837 2.37209 109.837Z" fill="url(#paint12_linear_503_628)"/>
<path d="M54.7908 109.837C55.8247 109.837 56.6629 108.996 56.6629 107.959C56.6629 106.921 55.8247 106.081 54.7908 106.081C53.7569 106.081 52.9187 106.921 52.9187 107.959C52.9187 108.996 53.7569 109.837 54.7908 109.837Z" fill="url(#paint13_linear_503_628)"/>
<path d="M107.209 109.837C108.243 109.837 109.081 108.996 109.081 107.959C109.081 106.921 108.243 106.081 107.209 106.081C106.175 106.081 105.337 106.921 105.337 107.959C105.337 108.996 106.175 109.837 107.209 109.837Z" fill="url(#paint14_linear_503_628)"/>
<path d="M159.628 109.837C160.662 109.837 161.5 108.996 161.5 107.959C161.5 106.921 160.662 106.081 159.628 106.081C158.594 106.081 157.756 106.921 157.756 107.959C157.756 108.996 158.594 109.837 159.628 109.837Z" fill="url(#paint15_linear_503_628)"/>
<path d="M2.37209 144.898C3.40602 144.898 4.24419 144.057 4.24419 143.02C4.24419 141.983 3.40602 141.142 2.37209 141.142C1.33816 141.142 0.5 141.983 0.5 143.02C0.5 144.057 1.33816 144.898 2.37209 144.898Z" fill="url(#paint16_linear_503_628)"/>
<path d="M54.7908 144.898C55.8247 144.898 56.6629 144.057 56.6629 143.02C56.6629 141.983 55.8247 141.142 54.7908 141.142C53.7569 141.142 52.9187 141.983 52.9187 143.02C52.9187 144.057 53.7569 144.898 54.7908 144.898Z" fill="url(#paint17_linear_503_628)"/>
<path d="M107.209 144.898C108.243 144.898 109.081 144.057 109.081 143.02C109.081 141.983 108.243 141.142 107.209 141.142C106.175 141.142 105.337 141.983 105.337 143.02C105.337 144.057 106.175 144.898 107.209 144.898Z" fill="url(#paint18_linear_503_628)"/>
<path d="M159.628 144.898C160.662 144.898 161.5 144.057 161.5 143.02C161.5 141.983 160.662 141.142 159.628 141.142C158.594 141.142 157.756 141.983 157.756 143.02C157.756 144.057 158.594 144.898 159.628 144.898Z" fill="url(#paint19_linear_503_628)"/>
</g>
<defs>
<linearGradient id="paint0_linear_503_628" x1="2.37209" y1="0.897949" x2="2.37209" y2="4.65447" gradientUnits="userSpaceOnUse">
<stop stop-color="#AB2E86"/>
<stop offset="1" stop-color="#D25DC8"/>
</linearGradient>
<linearGradient id="paint1_linear_503_628" x1="54.7908" y1="0.897949" x2="54.7908" y2="4.65447" gradientUnits="userSpaceOnUse">
<stop stop-color="#AB2E86"/>
<stop offset="1" stop-color="#D25DC8"/>
</linearGradient>
<linearGradient id="paint2_linear_503_628" x1="107.209" y1="0.897949" x2="107.209" y2="4.65447" gradientUnits="userSpaceOnUse">
<stop stop-color="#AB2E86"/>
<stop offset="1" stop-color="#D25DC8"/>
</linearGradient>
<linearGradient id="paint3_linear_503_628" x1="159.628" y1="0.897949" x2="159.628" y2="4.65447" gradientUnits="userSpaceOnUse">
<stop stop-color="#AB2E86"/>
<stop offset="1" stop-color="#D25DC8"/>
</linearGradient>
<linearGradient id="paint4_linear_503_628" x1="2.37209" y1="35.959" x2="2.37209" y2="39.7155" gradientUnits="userSpaceOnUse">
<stop stop-color="#AB2E86"/>
<stop offset="1" stop-color="#D25DC8"/>
</linearGradient>
<linearGradient id="paint5_linear_503_628" x1="54.7908" y1="35.959" x2="54.7908" y2="39.7155" gradientUnits="userSpaceOnUse">
<stop stop-color="#AB2E86"/>
<stop offset="1" stop-color="#D25DC8"/>
</linearGradient>
<linearGradient id="paint6_linear_503_628" x1="107.209" y1="35.959" x2="107.209" y2="39.7155" gradientUnits="userSpaceOnUse">
<stop stop-color="#AB2E86"/>
<stop offset="1" stop-color="#D25DC8"/>
</linearGradient>
<linearGradient id="paint7_linear_503_628" x1="159.628" y1="35.959" x2="159.628" y2="39.7155" gradientUnits="userSpaceOnUse">
<stop stop-color="#AB2E86"/>
<stop offset="1" stop-color="#D25DC8"/>
</linearGradient>
<linearGradient id="paint8_linear_503_628" x1="2.37209" y1="71.0195" x2="2.37209" y2="74.776" gradientUnits="userSpaceOnUse">
<stop stop-color="#AB2E86"/>
<stop offset="1" stop-color="#D25DC8"/>
</linearGradient>
<linearGradient id="paint9_linear_503_628" x1="54.7908" y1="71.0195" x2="54.7908" y2="74.776" gradientUnits="userSpaceOnUse">
<stop stop-color="#AB2E86"/>
<stop offset="1" stop-color="#D25DC8"/>
</linearGradient>
<linearGradient id="paint10_linear_503_628" x1="107.209" y1="71.0195" x2="107.209" y2="74.776" gradientUnits="userSpaceOnUse">
<stop stop-color="#AB2E86"/>
<stop offset="1" stop-color="#D25DC8"/>
</linearGradient>
<linearGradient id="paint11_linear_503_628" x1="159.628" y1="71.0195" x2="159.628" y2="74.776" gradientUnits="userSpaceOnUse">
<stop stop-color="#AB2E86"/>
<stop offset="1" stop-color="#D25DC8"/>
</linearGradient>
<linearGradient id="paint12_linear_503_628" x1="2.37209" y1="106.081" x2="2.37209" y2="109.837" gradientUnits="userSpaceOnUse">
<stop stop-color="#AB2E86"/>
<stop offset="1" stop-color="#D25DC8"/>
</linearGradient>
<linearGradient id="paint13_linear_503_628" x1="54.7908" y1="106.081" x2="54.7908" y2="109.837" gradientUnits="userSpaceOnUse">
<stop stop-color="#AB2E86"/>
<stop offset="1" stop-color="#D25DC8"/>
</linearGradient>
<linearGradient id="paint14_linear_503_628" x1="107.209" y1="106.081" x2="107.209" y2="109.837" gradientUnits="userSpaceOnUse">
<stop stop-color="#AB2E86"/>
<stop offset="1" stop-color="#D25DC8"/>
</linearGradient>
<linearGradient id="paint15_linear_503_628" x1="159.628" y1="106.081" x2="159.628" y2="109.837" gradientUnits="userSpaceOnUse">
<stop stop-color="#AB2E86"/>
<stop offset="1" stop-color="#D25DC8"/>
</linearGradient>
<linearGradient id="paint16_linear_503_628" x1="2.37209" y1="141.142" x2="2.37209" y2="144.898" gradientUnits="userSpaceOnUse">
<stop stop-color="#AB2E86"/>
<stop offset="1" stop-color="#D25DC8"/>
</linearGradient>
<linearGradient id="paint17_linear_503_628" x1="54.7908" y1="141.142" x2="54.7908" y2="144.898" gradientUnits="userSpaceOnUse">
<stop stop-color="#AB2E86"/>
<stop offset="1" stop-color="#D25DC8"/>
</linearGradient>
<linearGradient id="paint18_linear_503_628" x1="107.209" y1="141.142" x2="107.209" y2="144.898" gradientUnits="userSpaceOnUse">
<stop stop-color="#AB2E86"/>
<stop offset="1" stop-color="#D25DC8"/>
</linearGradient>
<linearGradient id="paint19_linear_503_628" x1="159.628" y1="141.142" x2="159.628" y2="144.898" gradientUnits="userSpaceOnUse">
<stop stop-color="#AB2E86"/>
<stop offset="1" stop-color="#D25DC8"/>
</linearGradient>
<clipPath id="clip0_503_628">
<rect width="161" height="144" fill="white" transform="translate(0.5 0.897949)"/>
</clipPath>
</defs>
</svg>
