<svg width="154" height="99" viewBox="0 0 154 99" fill="none" xmlns="http://www.w3.org/2000/svg">
<g opacity="0.3">
<path d="M35.6396 0.950195C16.0519 0.950195 0.125 16.8207 0.125 36.3391C0.125 53.6796 12.6098 68.298 29.5475 71.2108C30.4763 83.6785 20.1498 94.1863 20.0405 94.2952C19.1663 95.1935 18.9751 96.5274 19.6034 97.5891C20.1225 98.4602 21.024 98.9502 21.9801 98.9502C22.1987 98.9502 22.4446 98.923 22.6904 98.8413C72.2743 85.1213 71.2362 38.8163 71.1542 36.2846C71.0996 16.7935 55.2 0.950195 35.6396 0.950195Z" fill="white"/>
<path d="M153.111 36.2846C153.056 16.7935 137.157 0.950195 117.596 0.950195C98.0087 0.950195 82.0818 16.8207 82.0818 36.3391C82.0818 53.6796 94.5666 68.298 111.504 71.2108C112.433 83.6785 102.107 94.1863 101.997 94.2952C101.123 95.1935 100.932 96.5274 101.56 97.5891C102.079 98.4602 102.981 98.9502 103.937 98.9502C104.156 98.9502 104.401 98.923 104.647 98.8413C154.231 85.1213 153.193 38.8163 153.111 36.2846Z" fill="white"/>
</g>
</svg>
