<svg width="41" height="41" viewBox="0 0 41 41" fill="none" xmlns="http://www.w3.org/2000/svg">
<rect x="1.20996" y="1.21338" width="39" height="39" stroke="white"/>
<path fill-rule="evenodd" clip-rule="evenodd" d="M26.228 33.1945H15.4594C13.5554 33.1945 11.7293 32.4382 10.383 31.092C9.03663 29.7458 8.28027 27.92 8.28027 26.0162V14.89C8.28027 12.9862 9.03663 11.1604 10.383 9.81424C11.7293 8.46807 13.5554 7.71179 15.4594 7.71179H26.228C28.132 7.71179 29.9581 8.46807 31.3044 9.81424C32.6507 11.1604 33.4071 12.9862 33.4071 14.89V26.0162C33.4071 27.92 32.6507 29.7458 31.3044 31.092C29.9581 32.4382 28.132 33.1945 26.228 33.1945ZM31.0739 14.3516C31.0739 13.1618 30.6012 12.0206 29.7597 11.1793C28.9182 10.3379 27.777 9.86526 26.587 9.86526H14.9209C13.7309 9.86526 12.5897 10.3379 11.7482 11.1793C10.9067 12.0206 10.434 13.1618 10.434 14.3516V26.0162C10.434 27.2061 10.9067 28.3472 11.7482 29.1886C12.5897 30.03 13.7309 30.5026 14.9209 30.5026H26.587C27.777 30.5026 28.9182 30.03 29.7597 29.1886C30.6012 28.3472 31.0739 27.2061 31.0739 26.0162V14.3516ZM27.4843 15.0695C27.1649 15.0695 26.8526 14.9747 26.5869 14.7973C26.3213 14.6198 26.1143 14.3676 25.992 14.0724C25.8697 13.7773 25.8378 13.4526 25.9001 13.1393C25.9624 12.826 26.1162 12.5382 26.3421 12.3123C26.5681 12.0864 26.8559 11.9326 27.1692 11.8703C27.4825 11.808 27.8073 11.84 28.1025 11.9622C28.3976 12.0845 28.6499 12.2915 28.8274 12.5571C29.0049 12.8227 29.0996 13.1349 29.0996 13.4544C29.0996 13.8827 28.9295 14.2935 28.6265 14.5964C28.3236 14.8993 27.9128 15.0695 27.4843 15.0695ZM20.7539 26.9135C19.4583 26.9135 18.1917 26.5294 17.1144 25.8096C16.0372 25.0899 15.1975 24.0669 14.7017 22.87C14.2059 21.6731 14.0761 20.3561 14.3289 19.0855C14.5817 17.8149 15.2056 16.6478 16.1217 15.7318C17.0379 14.8157 18.2052 14.1919 19.4759 13.9391C20.7467 13.6864 22.0638 13.8161 23.2609 14.3119C24.4579 14.8076 25.481 15.6472 26.2008 16.7243C26.9207 17.8015 27.3049 19.0679 27.3049 20.3634C27.3049 22.1006 26.6147 23.7666 25.3862 24.995C24.1576 26.2234 22.4914 26.9135 20.7539 26.9135ZM20.7539 16.1462C19.9198 16.1462 19.1043 16.3935 18.4107 16.8569C17.7171 17.3203 17.1765 17.979 16.8573 18.7495C16.5381 19.5201 16.4545 20.3681 16.6173 21.1861C16.78 22.0042 17.1817 22.7556 17.7716 23.3454C18.3614 23.9352 19.113 24.3369 19.9311 24.4996C20.7493 24.6623 21.5973 24.5788 22.368 24.2596C23.1387 23.9404 23.7974 23.3999 24.2609 22.7064C24.7243 22.0128 24.9717 21.1975 24.9717 20.3634C24.9717 19.2449 24.5273 18.1723 23.7363 17.3814C22.9454 16.5905 21.8726 16.1462 20.7539 16.1462Z" fill="white"/>
</svg>
