<svg width="41" height="41" viewBox="0 0 41 41" fill="none" xmlns="http://www.w3.org/2000/svg">
<rect x="1.20996" y="1.21338" width="39" height="39" stroke="white"/>
<path fill-rule="evenodd" clip-rule="evenodd" d="M28.4335 27.6136H28.2517C27.0122 27.4205 26.2456 26.5916 25.5255 25.8191C25.1127 25.3848 24.4483 24.2666 23.708 24.3834C22.6553 24.5474 23.2425 26.3341 22.7992 27.0753C22.4477 27.6675 20.9289 27.5418 19.8913 27.4342C16.6016 27.1007 14.8172 25.4749 13.3483 23.6656C11.7707 21.7352 10.6349 19.6183 9.53155 17.3847C9.16805 16.6527 8.6228 15.94 8.6228 15.0517C9.15769 14.6376 10.1057 14.6928 10.9855 14.6928C11.7256 14.6928 12.803 14.6085 13.3483 14.8723C13.6713 15.0313 13.9955 15.9522 14.257 16.4874C14.7674 17.5569 15.3757 18.5781 16.0745 19.5381C16.3922 19.9688 16.9631 20.7254 17.5285 20.6149C18.0841 20.509 18.05 19.2935 18.0738 18.4614C18.1027 17.5151 18.1775 16.2738 17.892 15.7696C17.627 15.2969 17.1121 15.3346 16.6198 15.0517C17.0276 14.2621 18.1646 14.1545 19.5278 14.1545C20.6706 14.1545 22.166 13.975 22.6175 14.6928C23.0659 15.4331 22.8332 16.9297 22.7992 17.923C22.7653 19.0385 22.5428 20.0975 23.3445 20.6149C23.9646 20.5513 24.2603 19.9868 24.6167 19.5381C25.4064 18.5529 26.0064 17.7525 26.616 16.4874C26.8639 15.9592 27.0731 15.0397 27.5247 14.8723C28.2143 14.6268 29.2424 14.6928 30.251 14.6928C31.0832 14.6928 32.5315 14.5076 32.7954 15.0517C33.0094 15.4862 32.4501 16.7117 32.2502 17.0257C31.4829 18.2206 30.7126 19.0376 29.8875 20.0765C29.5545 20.4964 28.9344 21.0298 28.9787 21.6916C29.0078 22.2023 29.4782 22.5899 29.8875 22.9478C30.6809 23.6621 31.4106 24.4427 32.0685 25.2807C32.3382 25.6105 33.0368 26.2885 32.9772 26.7163C32.8091 28.0526 28.4356 27.6009 28.4335 27.6136Z" fill="white"/>
</svg>
