<svg width="66" height="72" viewBox="0 0 66 72" fill="none" xmlns="http://www.w3.org/2000/svg">
<path d="M3.26052 48.0038V63.5997C3.26052 68.2322 7.02906 72 11.6608 72H54.0811C58.7136 72 62.4814 68.2315 62.4814 63.5997V48.0038C64.4293 46.8517 65.7421 44.7359 65.7421 42.3141V41.019C65.7421 38.5966 64.4293 36.4815 62.4814 35.3293V29.0838C62.4814 13.0466 49.4344 0 33.3975 0H32.3446C16.3073 0 3.26078 13.0469 3.26078 29.0838V35.3293C1.31352 36.4814 0 38.5971 0 41.019V42.3134C0.00212437 44.735 1.31397 46.8523 3.26052 48.0038ZM24.4643 69.2827H11.6625C8.52476 69.2827 5.97984 66.7385 5.97984 63.6001V48.8942C6.18872 48.9147 6.40045 48.9268 6.6143 48.9268H10.1611C11.4563 56.4285 17.0652 62.4403 24.4641 64.2494L24.4643 69.2827ZM59.764 63.5993C59.764 66.737 57.2198 69.282 54.0814 69.282L39.9164 69.2827V64.5216C47.9278 63.1868 54.2025 56.9414 55.5833 48.927H59.1301C59.344 48.927 59.5557 48.915 59.7646 48.8944L59.764 63.5993ZM5.97965 29.0855C5.97965 14.5842 17.8447 2.71904 32.3461 2.71904H33.3991C47.9004 2.71904 59.7656 14.5841 59.7656 29.0855V34.4395C59.5567 34.419 59.345 34.4069 59.1311 34.4069H55.8809V27.5823C55.8809 27.4251 55.871 27.2785 55.8603 27.1347C55.8533 27.0427 55.8462 26.9521 55.8462 26.8586V25.2788L54.4158 25.9487C51.128 27.4888 47.5775 28.2706 43.8665 28.2706C32.8391 28.2706 23.2863 20.9948 21.6439 11.3482L21.4124 9.98865L20.1895 10.6252C13.8208 13.9428 9.8646 20.4397 9.8646 27.583V34.4076H6.61434C6.40049 34.4076 6.18876 34.4197 5.97987 34.4402L5.97965 29.0855ZM2.00936 41.02C2.00936 38.4814 4.07499 36.4152 6.61412 36.4152H11.8726V27.5822C11.8726 21.6384 14.9365 16.1931 19.9513 13.0717C22.3878 22.9746 32.3998 30.2787 43.8651 30.2787C47.3554 30.2787 50.7131 29.6393 53.8706 28.3746V36.4165H59.129C61.6676 36.4165 63.7338 38.4821 63.7338 41.0212V42.3157C63.7338 44.8542 61.6682 46.9204 59.129 46.9204H53.8309L53.7211 47.7992C52.7397 55.6138 46.6012 61.722 38.7922 62.6545L37.9071 62.76V69.1055L26.4726 68.8123V62.6209L25.6654 62.4595C18.4256 61.0149 12.9427 55.122 12.0229 47.7981L11.9132 46.9194H6.61505C4.07648 46.9194 2.0103 44.8537 2.0103 42.3146V41.0209L2.00936 41.02Z" fill="#B68C6E"/>
<path d="M32.8718 48.8993C36.8662 48.8993 40.1044 45.6612 40.1044 41.6668L25.6391 41.6661C25.6391 45.6605 28.8774 48.8993 32.8718 48.8993Z" fill="#B68C6E"/>
<path d="M21.5911 37.0638C22.0669 37.0638 22.4543 36.6772 22.4543 36.2006C22.4543 33.7783 24.2146 32.6955 25.9594 32.6955C27.7042 32.6955 29.4645 33.7789 29.4645 36.2006C29.4645 36.6765 29.8512 37.0638 30.3277 37.0638C30.8036 37.0638 31.1909 36.6772 31.1909 36.2006C31.1909 32.7664 28.5595 30.9699 25.9602 30.9699C23.3607 30.9699 20.7295 32.7664 20.7295 36.2006C20.7288 36.6772 21.1152 37.0638 21.5911 37.0638Z" fill="#B68C6E"/>
<path d="M35.4169 37.0638C35.8928 37.0638 36.2801 36.6772 36.2801 36.2006C36.2801 33.7783 38.0405 32.6955 39.7853 32.6955C41.5301 32.6955 43.2904 33.7789 43.2904 36.2006C43.2904 36.6765 43.677 37.0638 44.1536 37.0638C44.6294 37.0638 45.0168 36.6772 45.0168 36.2006C45.0168 32.7664 42.3854 30.9699 39.7861 30.9699C37.1866 30.9699 34.5554 32.7664 34.5554 36.2006C34.554 36.6772 34.9404 37.0638 35.4169 37.0638Z" fill="#B68C6E"/>
</svg>
