<svg width="64" height="72" viewBox="0 0 64 72" fill="none" xmlns="http://www.w3.org/2000/svg">
<path d="M31.9408 71.9994C28.6878 71.9994 25.4557 71.4556 23.7262 70.3706C9.72526 61.5793 0 55.3812 0 45.8086V6.58147L31.9993 0L64 6.58147V45.8086C64 55.3393 56.3932 60.8609 40.2402 70.3902C38.4206 71.4637 35.1709 71.9994 31.9408 71.9994ZM2.79712 8.77781V45.8089C2.79712 53.2755 10.4908 58.7595 25.2144 68.0029C27.795 69.6214 36.0599 69.6099 38.819 67.9822C54.4883 58.7382 61.2027 53.9084 61.2027 45.8091V8.77803L31.9989 2.87802L2.79712 8.77781Z" fill="#B68C6E"/>
<path d="M41.8081 48.0539L31.9994 42.8981L22.1898 48.0539L24.063 37.1341L16.127 29.4011L27.0948 27.8087L31.9996 17.8741L36.9044 27.8093L47.8722 29.4016L39.9356 37.1347L41.8081 48.0539ZM22.1393 31.3535L27.0693 36.1575L25.9052 42.9404L31.9998 39.7379L38.0939 42.9416L36.9298 36.1587L41.8603 31.3546L35.0474 30.3652L31.9998 24.1927L28.9528 30.364L22.1393 31.3535Z" fill="#B68C6E"/>
</svg>
