<svg width="65" height="72" viewBox="0 0 65 72" fill="none" xmlns="http://www.w3.org/2000/svg">
<path d="M7.20097 43.1984V47.972C7.17686 52.0395 8.21076 56.0438 10.2009 59.5913C12.1915 63.1392 15.0698 66.1085 18.5539 68.2079C22.7206 70.7487 27.5198 72.0622 32.3993 71.9974C37.2806 72.066 42.082 70.752 46.2475 68.2068C49.7257 66.1079 52.6003 63.1423 54.5893 59.6003C56.5789 56.0583 57.6154 52.0609 57.5979 47.9982V43.1984C59.5066 43.1962 61.3371 42.4371 62.6869 41.0877C64.0363 39.7377 64.7954 37.9073 64.7976 35.9986V31.1988C64.7949 29.4359 64.1467 27.735 62.9746 26.4178C61.8025 25.101 60.1885 24.259 58.4378 24.0522L62.2418 17.3945C62.3446 17.2135 62.3987 17.0078 62.3977 16.7994C62.3977 6.59976 55.3323 0 44.3983 0H19.1992C8.51964 0 2.39987 6.11977 2.39987 16.7994C2.3988 17.0099 2.45344 17.2167 2.55843 17.3994L6.36236 24.057H6.36182C4.61167 24.2632 2.99769 25.1043 1.82558 26.4204C0.65294 27.7361 0.00370272 29.4364 0 31.1988V35.9987C0.00214278 37.9074 0.761223 39.7379 2.11069 41.0877C3.46064 42.4371 5.29105 43.1962 7.19973 43.1984L7.20097 43.1984ZM55.1992 47.9982C55.2212 55.4422 51.3288 62.351 44.9503 66.1882C41.1721 68.4858 36.8212 69.6675 32.4 69.5973C27.9784 69.6642 23.628 68.4819 19.8488 66.187C13.4601 62.3466 9.56618 55.4254 9.60088 47.9724V25.9412L18.5368 21.48C22.8417 19.3297 27.5879 18.2106 32.4 18.2106C37.2122 18.2106 41.9584 19.3297 46.2633 21.48L55.1992 25.9412V47.9982ZM62.3989 31.1988V35.9986C62.3989 37.2714 61.8932 38.4924 60.9933 39.3928C60.0928 40.2928 58.8719 40.7985 57.5991 40.7985V26.399C58.8719 26.399 60.0928 26.9047 60.9933 27.8047C61.8932 28.7052 62.3989 29.926 62.3989 31.1988ZM4.80106 16.4839C4.92105 7.39801 10.0208 2.39988 19.2005 2.39988H44.3996C53.9082 2.39988 59.8578 7.78789 59.999 16.4853L55.9192 23.6181L50.9501 21.1341L54.9962 15.0658L52.9996 13.7341L48.788 20.0531L47.3154 19.3197C45.6853 18.5451 44.0011 17.8905 42.2756 17.3602L44.3349 11.1825L42.055 10.424L39.9599 16.7157C37.8728 16.2223 35.7429 15.9288 33.6001 15.8399V9.6001H31.2002V15.8303C29.051 15.894 26.913 16.172 24.8191 16.6595L22.7395 10.4198L20.4596 11.1783L22.4995 17.2981C20.7681 17.838 19.0829 18.5157 17.4597 19.3246L15.1728 20.4683L11.8708 13.8685L9.72266 14.9415L13.0263 21.5482L8.88104 23.6182L4.80106 16.4839ZM2.40115 31.1988C2.40115 29.926 2.90684 28.7051 3.80681 27.8047C4.70731 26.9047 5.92819 26.399 7.20097 26.399V40.7985C5.92816 40.7985 4.70725 40.2928 3.80681 39.3928C2.90684 38.4923 2.40115 37.2714 2.40115 35.9986V31.1988Z" fill="#B68C6E"/>
<path d="M21.6004 37.1986C23.191 37.1965 24.7161 36.5638 25.841 35.4394C26.9654 34.3144 27.598 32.7893 27.6002 31.1988H25.2003C25.2003 32.485 24.5141 33.6732 23.4004 34.3165C22.2867 34.9593 20.9142 34.9593 19.8005 34.3165C18.6868 33.6731 18.0006 32.485 18.0006 31.1988H15.6007C15.6028 32.7893 16.2355 34.3145 17.3599 35.4394C18.4848 36.5638 20.0099 37.1964 21.6004 37.1986Z" fill="#B68C6E"/>
<path d="M43.1996 34.7987C42.245 34.7987 41.3289 34.4194 40.6541 33.7444C39.9792 33.0695 39.5998 32.1534 39.5998 31.1989H37.1999C37.1999 33.3422 38.3436 35.3232 40.1998 36.3946C42.056 37.4666 44.3434 37.4666 46.1996 36.3946C48.0558 35.3232 49.1995 33.3422 49.1995 31.1989H46.7996C46.7996 32.1535 46.4203 33.0696 45.7453 33.7444C45.0703 34.4193 44.1543 34.7987 43.1998 34.7987H43.1996Z" fill="#B68C6E"/>
<path d="M12.3519 50.047L14.0489 48.35L16.4483 50.7493L14.7512 52.4464L12.3519 50.047Z" fill="#B68C6E"/>
<path d="M17.1531 54.8469L18.8501 53.1498L21.2495 55.5491L19.5524 57.2462L17.1531 54.8469Z" fill="#B68C6E"/>
<path d="M21.9529 59.6467L23.65 57.9496L26.0493 60.349L24.3522 62.046L21.9529 59.6467Z" fill="#B68C6E"/>
<path d="M26.7527 64.4465L28.4498 62.7494L30.8491 65.1488L29.1521 66.8459L26.7527 64.4465Z" fill="#B68C6E"/>
<path d="M48.3505 50.7492L50.7499 48.3498L52.447 50.0469L50.0476 52.4463L48.3505 50.7492Z" fill="#B68C6E"/>
<path d="M43.5507 55.549L45.9501 53.1496L47.6472 54.8467L45.2478 57.2461L43.5507 55.549Z" fill="#B68C6E"/>
<path d="M38.7509 60.3502L41.1502 57.9508L42.8473 59.6479L40.448 62.0473L38.7509 60.3502Z" fill="#B68C6E"/>
<path d="M33.9511 65.1486L36.3504 62.7493L38.0475 64.4464L35.6481 66.8457L33.9511 65.1486Z" fill="#B68C6E"/>
<path d="M27.6002 52.798H37.1999V55.1979H27.6002V52.798Z" fill="#B68C6E"/>
<path d="M30.0001 49.1982H35.9999V46.7982H31.2001V37.1986H28.8002V47.9982C28.8002 48.3164 28.9266 48.6217 29.1516 48.8467C29.3766 49.0717 29.6819 49.1982 30.0001 49.1982Z" fill="#B68C6E"/>
<path d="M18.0006 25.199H26.4003V27.599H18.0006V25.199Z" fill="#B68C6E"/>
<path d="M38.3998 25.199H46.7995V27.599H38.3998V25.199Z" fill="#B68C6E"/>
<path d="M12.0008 39.5985H14.4007V41.9984H12.0008V39.5985Z" fill="#B68C6E"/>
<path d="M16.8006 39.5985H19.2005V41.9984H16.8006V39.5985Z" fill="#B68C6E"/>
<path d="M21.6004 39.5985H24.0003V41.9984H21.6004V39.5985Z" fill="#B68C6E"/>
<path d="M35.9999 39.5985H38.3998V41.9984H35.9999V39.5985Z" fill="#B68C6E"/>
<path d="M40.7997 39.5985H43.1996V41.9984H40.7997V39.5985Z" fill="#B68C6E"/>
<path d="M45.5995 39.5985H47.9995V41.9984H45.5995V39.5985Z" fill="#B68C6E"/>
<path d="M50.3994 39.5985H52.7993V41.9984H50.3994V39.5985Z" fill="#B68C6E"/>
</svg>
