<svg width="72" height="72" viewBox="0 0 72 72" fill="none" xmlns="http://www.w3.org/2000/svg">
<path d="M50.5975 41.5563C51.7094 41.5563 52.6145 40.6487 52.6145 39.5348C52.6145 38.4204 51.709 37.5133 50.5975 37.5133C49.4856 37.5133 48.578 38.4208 48.578 39.5348C48.5785 40.6492 49.4861 41.5563 50.5975 41.5563Z" fill="#B68C6E"/>
<path d="M68.6334 8.36158L5.45372 8.36359C3.86059 8.36359 2.56242 7.06652 2.55984 5.47231C2.55984 3.87114 3.85867 2.57008 5.45372 2.57008H70.7188C71.4239 2.57008 72 1.99526 72 1.28605C72 0.576838 71.4244 0 70.7188 0H5.45372C2.44786 0 0 2.4533 0 5.46789V68.626C0 70.4849 1.50968 72 3.36393 72H68.6329C70.4876 72 71.9994 70.4849 71.9994 68.626V11.7355C71.9994 9.87658 70.4882 8.36158 68.6334 8.36158ZM69.438 46.6129H42.8007V32.458H69.438V46.6129ZM69.438 29.8899H43.6042C41.7475 29.8899 40.2377 31.405 40.2377 33.2639V45.8072C40.2377 47.6661 41.7474 49.1812 43.6042 49.1812H69.438V69.4325L2.56059 69.432V10.2375L3.63486 10.6185C4.21694 10.8254 4.83017 10.9311 5.4544 10.9311L27.0003 10.9316V10.9296H69.4376L69.438 29.8899Z" fill="#B68C6E"/>
</svg>
