<svg width="70" height="73" viewBox="0 0 70 73" fill="none" xmlns="http://www.w3.org/2000/svg">
<path d="M63.9995 49.3492L62.3029 47.6526L58.703 51.2526L58.7024 51.252C58.2342 51.7208 58.2342 52.4804 58.7024 52.9492L62.3024 56.5492L63.999 54.8526L62.4476 53.3007H69.151V50.9007H62.4476L63.9995 49.3492Z" fill="#B68C6E"/>
<path d="M4.35083 65.3002H11.0542L9.50286 66.8516L11.1994 68.5481L14.7994 64.9482V64.9487C15.2677 64.4799 15.2677 63.7203 14.7994 63.2516L11.1994 59.6516L9.50286 61.3482L11.0542 62.9001H4.35083V65.3002Z" fill="#B68C6E"/>
<path d="M25.9508 31.7003C25.9508 32.9866 25.2645 34.1748 24.1508 34.8181C23.037 35.461 21.6645 35.461 20.5508 34.8181C19.437 34.1747 18.7508 32.9866 18.7508 31.7003H16.3508C16.3508 33.8437 17.4945 35.8247 19.3508 36.8962C21.207 37.9682 23.4945 37.9682 25.3508 36.8962C27.207 35.8248 28.3507 33.8437 28.3507 31.7003H25.9508Z" fill="#B68C6E"/>
<path d="M43.9507 35.3003C42.9961 35.3003 42.0799 34.921 41.405 34.246C40.7302 33.571 40.3508 32.6549 40.3508 31.7004H37.9508C37.9508 33.8438 39.0945 35.8248 40.9508 36.8963C42.807 37.9683 45.0945 37.9683 46.9507 36.8963C48.807 35.8249 49.9507 33.8438 49.9507 31.7004H47.5507C47.5507 32.655 47.1715 33.5712 46.4965 34.246C45.8215 34.9209 44.9053 35.3003 43.9508 35.3003H43.9507Z" fill="#B68C6E"/>
<path d="M28.3507 54.5002H37.9507V56.9002H28.3507V54.5002Z" fill="#B68C6E"/>
<path d="M30.7507 49.7003H36.7507V47.3003H31.9507V37.7003H29.5507V48.5003C29.5507 48.8185 29.6772 49.1238 29.9022 49.3488C30.1272 49.5738 30.4325 49.7003 30.7507 49.7003Z" fill="#B68C6E"/>
<path d="M18.7508 25.7004H27.1507V28.1003H18.7508V25.7004Z" fill="#B68C6E"/>
<path d="M39.1507 25.7004H47.5507V28.1003H39.1507V25.7004Z" fill="#B68C6E"/>
<path d="M66.7506 60.5002H55.9506C54.8894 60.504 53.8598 60.8597 53.022 61.5111C52.1846 62.1625 51.5862 63.0728 51.3211 64.1002H46.8393C52.1724 58.5133 57.6859 50.642 58.2763 43.7003H58.3508C60.2595 43.6982 62.0901 42.939 63.44 41.5895C64.7894 40.2395 65.5485 38.4091 65.5507 36.5003V31.7003C65.5481 29.9374 64.8998 28.2364 63.7277 26.9191C62.5556 25.6024 60.9415 24.7603 59.1908 24.5534L62.9948 17.8956C63.0977 17.7145 63.1518 17.5088 63.1507 17.3004C63.1507 7.10046 56.0851 0.500488 45.1508 0.500488H19.9509C9.27091 0.500488 3.15093 6.62047 3.15093 17.3004C3.14986 17.511 3.2045 17.7178 3.30949 17.9004L7.11355 24.5583H7.11301C5.3628 24.7645 3.74877 25.6056 2.57662 26.9218C1.40394 28.2375 0.754679 29.9378 0.750977 31.7004V36.5004C0.753119 38.4091 1.51223 40.2397 2.86174 41.5896C4.21174 42.939 6.0422 43.6981 7.95095 43.7003H8.02541C8.78987 52.6837 17.8161 63.2486 23.986 68.3626C24.0182 68.39 24.0525 68.4151 24.0878 68.4387C28.0323 71.0535 30.8775 72.5005 33.6637 72.5005C36.3036 72.5005 38.8954 71.1997 42.3171 68.3642C42.9867 67.8087 43.6949 67.176 44.4181 66.5021H51.3218V66.5016C51.5876 67.5291 52.1854 68.4393 53.0232 69.0901C53.8611 69.7416 54.8907 70.0967 55.9515 70.1005H66.7514V72.5005H69.1514V58.1005H66.7514L66.7506 60.5002ZM63.1506 31.7003V36.5003C63.1506 37.7732 62.6449 38.9941 61.7449 39.8946C60.8444 40.7946 59.6235 41.3003 58.3506 41.3003V26.9003C59.6235 26.9003 60.8444 27.4061 61.7449 28.3061C62.6449 29.2066 63.1506 30.4275 63.1506 31.7003ZM7.95082 41.3003C6.67797 41.3003 5.45702 40.7946 4.55655 39.8946C3.65655 38.9941 3.15084 37.7731 3.15084 36.5003V31.7003C3.15084 30.4275 3.65655 29.2065 4.55655 28.3061C5.45708 27.4061 6.678 26.9003 7.95082 26.9003V41.3003ZM5.55083 16.985C5.67083 7.89873 10.7707 2.90044 19.9508 2.90044H45.1507C54.6596 2.90044 60.6094 8.28862 60.7506 16.9863L56.6706 24.1177L51.7062 21.6267L55.7466 15.5666L53.7499 14.2349L49.5499 20.5434L48.0666 19.7993C46.4386 19.0295 44.757 18.3781 43.0351 17.8504L45.0917 11.6801L42.8117 10.9215L40.7107 17.2129C38.623 16.7222 36.4936 16.4297 34.3507 16.3408V10.1008H31.9507V16.3312C29.8009 16.3954 27.6628 16.6724 25.5677 17.1578L23.4892 10.9178L21.2092 11.6763L23.2492 17.7963H23.2497C21.5183 18.3331 19.833 19.0081 18.2097 19.8138L15.9201 20.9624L12.6223 14.3624L10.4741 15.4354L13.774 22.0354L9.6308 24.1178L5.55083 16.985ZM43.4789 64.1002H37.9504V66.5002H40.8004L40.7849 66.5147C34.6863 71.5701 32.2783 70.9847 25.4661 66.474C18.1284 60.3733 10.3502 49.9154 10.3502 42.5001V26.4407L19.2844 21.9574C23.5926 19.8188 28.3374 18.7056 33.1481 18.7056C37.9582 18.7056 42.7031 19.8188 47.0118 21.9574L55.9507 26.4407V42.5001C55.9507 49.0256 49.9255 57.9039 43.4793 64.1L43.4789 64.1002ZM66.7506 67.7002H55.9506C55.093 67.7002 54.3007 67.2427 53.8721 66.5002C53.4435 65.7577 53.4435 64.8427 53.8721 64.1002C54.3007 63.3577 55.093 62.9002 55.9506 62.9002H57.1506V65.3002H59.5506V62.9002H61.9506V65.3002H64.3506V62.9002H66.7506V67.7002Z" fill="#B68C6E"/>
</svg>
