<svg width="73" height="73" viewBox="0 0 73 73" fill="none" xmlns="http://www.w3.org/2000/svg">
<path d="M44.5189 30.117C44.2783 29.8818 44.1416 29.5607 44.1392 29.224C44.1369 28.8874 44.27 28.5639 44.5075 28.3263C44.7457 28.0881 45.0692 27.9556 45.4058 27.9574C45.7419 27.9598 46.0636 28.0965 46.2988 28.3376L48.9681 31.0082H48.9675C49.2087 31.2428 49.3454 31.5645 49.3477 31.9011C49.3501 32.2378 49.217 32.5607 48.9789 32.7989C48.7413 33.037 48.4178 33.1695 48.0811 33.1671C47.7451 33.1654 47.4234 33.0287 47.1882 32.7875L44.5189 30.117ZM39.1808 33.6768C38.6896 34.1687 38.6896 34.9649 39.1808 35.4567L41.8501 38.126V38.1254C42.342 38.6137 43.1358 38.6119 43.6259 38.1218C44.1153 37.6318 44.1171 36.8379 43.6295 36.3461L40.9601 33.6768C40.4689 33.1856 39.6721 33.1856 39.1808 33.6768ZM35.6204 39.0155C35.3858 38.7738 35.0641 38.6359 34.7268 38.6335C34.3902 38.6305 34.0661 38.7636 33.8273 39.0018C33.5891 39.2405 33.4566 39.564 33.459 39.9013C33.4614 40.2385 33.5993 40.5602 33.841 40.7948L36.5103 43.4654C37.004 43.9423 37.7889 43.9351 38.2748 43.4499C38.76 42.9646 38.7666 42.1797 38.2897 41.686L35.6204 39.0155ZM30.2817 44.3552H30.2823C29.7887 43.8783 29.0038 43.8849 28.5185 44.3701C28.0326 44.856 28.0261 45.6403 28.503 46.1346L31.1723 48.8039V48.8033C31.6659 49.2802 32.4508 49.2736 32.9361 48.7884C33.4214 48.3031 33.4286 47.5182 32.9516 47.0239L30.2817 44.3552ZM24.9426 49.6932C24.4496 49.2122 23.6617 49.2175 23.1747 49.7046C22.6877 50.1917 22.6828 50.9795 23.1633 51.4725L25.8339 54.1419C26.0685 54.3836 26.3908 54.5215 26.7274 54.5239C27.0647 54.5262 27.3888 54.3937 27.6269 54.1556C27.8651 53.9168 27.9982 53.5933 27.9952 53.2561C27.9928 52.9188 27.8549 52.5971 27.6132 52.3625L24.9426 49.6932ZM72.0901 35.0122C72.0997 37.1866 71.1697 39.2591 69.5391 40.6969C67.909 42.1355 65.7369 42.7998 63.581 42.5193C61.4244 42.2393 59.4947 41.0414 58.2866 39.234C57.0779 37.4266 56.7091 35.1853 57.2743 33.0855L55.6411 31.4523L26.2769 60.8166C25.8071 61.2899 25.1673 61.5555 24.4999 61.5543H24.4975C23.8296 61.5555 23.1892 61.2905 22.7181 60.8166L20.0488 63.4859C19.3409 64.1938 18.3805 64.5919 17.3789 64.5919C16.3773 64.5919 15.4175 64.1938 14.709 63.4859L12.9296 61.7065L2.25119 72.3837C1.75755 72.8624 0.971457 72.8564 0.485542 72.3699C-0.00092338 71.8841 -0.00689697 71.0974 0.471815 70.6043L11.1496 59.9265L9.37017 58.1471V58.1465C8.66226 57.4386 8.26414 56.4782 8.26414 55.4772C8.26414 54.4756 8.66226 53.5152 9.37017 52.8073L12.0395 50.1379C11.568 49.6658 11.3035 49.0259 11.3035 48.3585C11.3035 47.6912 11.568 47.0514 12.0395 46.5792L41.4037 17.2149L39.7712 15.5817C37.6153 16.1595 35.3142 15.7542 33.4859 14.4739C31.6576 13.1936 30.4896 11.1701 30.2949 8.9467C30.1009 6.72326 30.9002 4.52793 32.4783 2.94977C34.0565 1.37162 36.2518 0.572915 38.4753 0.767586C40.6987 0.962166 42.7221 2.13029 44.0019 3.95919C45.2822 5.78749 45.6874 8.0884 45.1097 10.2438L51.1914 16.3256L56.5305 10.9865L53.8606 8.31654H53.8612C52.93 7.35854 52.5749 5.97971 52.9271 4.69097C53.2786 3.40229 54.2856 2.39586 55.5742 2.0438C56.8623 1.69223 58.2411 2.04738 59.1992 2.97794L69.8769 13.6557V13.6563C70.8033 14.6149 71.1549 15.9913 70.8027 17.277C70.4506 18.5627 69.446 19.5666 68.1603 19.9194C66.8746 20.2722 65.4981 19.9206 64.5396 18.9942L61.8697 16.3255L56.5306 21.6646L62.6117 27.7451C64.8727 27.1327 67.2895 27.609 69.1482 29.0344C71.0069 30.4598 72.095 32.6701 72.0896 35.0122L72.0901 35.0122ZM66.3193 17.2152C66.5539 17.4563 66.8756 17.593 67.2123 17.5954C67.5489 17.5972 67.8719 17.4647 68.11 17.2265C68.3482 16.9883 68.4807 16.6654 68.4783 16.3288C68.4765 15.9921 68.3398 15.6704 68.0987 15.4358L57.4203 4.75746C57.1845 4.52049 56.8646 4.38679 56.5304 4.38619C56.1961 4.3856 55.8756 4.51751 55.6386 4.75387C55.4022 4.99024 55.2697 5.31076 55.2703 5.64502C55.2703 5.97928 55.404 6.29982 55.641 6.53558L66.3193 17.2152ZM52.9723 18.1051L54.7522 19.8856L60.0913 14.5465L58.3108 12.7671L52.9723 18.1051ZM41.4046 11.8772C42.3489 10.9329 42.8789 9.65249 42.8789 8.31791C42.8789 6.98266 42.3483 5.70237 41.4046 4.75865C40.4603 3.81437 39.1799 3.28434 37.8453 3.28434C36.5101 3.28434 35.2298 3.81439 34.2861 4.75865C33.3424 5.70234 32.8118 6.98271 32.8118 8.31791C32.8118 9.65255 33.3418 10.9328 34.2861 11.8772C35.231 12.8185 36.5107 13.3473 37.8453 13.3473C39.1794 13.3473 40.459 12.8185 41.404 11.876L41.4046 11.8772ZM20.9381 59.0354L13.819 51.9163L11.1496 54.5868C10.6584 55.078 10.6584 55.8749 11.1496 56.3662L16.4894 61.7042V61.7048C16.9866 62.1812 17.7709 62.1812 18.2688 61.7048L20.9381 59.0354ZM53.8611 29.6711L43.1834 18.9928L13.8191 48.357L24.4981 59.036L53.8611 29.6711ZM59.2062 29.6652L60.0902 28.7812L53.8634 22.5544L53.8611 22.5526L44.0732 12.7649L42.2938 14.5443L44.9607 17.2112L44.9619 17.2118L55.6409 27.8908L55.6457 27.8968L58.3102 30.5614L59.1942 29.6774L59.1996 29.6708L59.2062 29.6652ZM69.5736 35.0108C69.5724 33.6774 69.0424 32.3988 68.0993 31.4557C67.1568 30.5126 65.8789 29.9814 64.5454 29.9796C63.2119 29.9778 61.9317 30.5049 60.9861 31.445L60.9736 31.4575C60.0341 32.403 59.5064 33.6822 59.5076 35.0149C59.5088 36.3477 60.0377 37.6263 60.9796 38.57C61.9382 39.4857 63.2131 39.9966 64.5388 39.9966C65.8645 39.9966 67.1395 39.4856 68.0981 38.57C69.0459 37.6281 69.5772 36.3466 69.5736 35.0108Z" fill="#B68C6E"/>
</svg>
