<svg width="72" height="72" viewBox="0 0 72 72" fill="none" xmlns="http://www.w3.org/2000/svg">
<path d="M69.9496 53.4076L63.1372 47.6897C65.8283 41.0275 63.9051 33.3462 58.2714 28.7242C56.3042 27.1117 53.9937 26.0079 51.556 25.4343L51.5555 14.0342C51.5555 14.0063 51.5412 13.9812 51.5395 13.9539C51.5321 13.8411 51.5104 13.7329 51.4739 13.6258C51.4602 13.5848 51.4493 13.5449 51.4311 13.5056C51.3689 13.37 51.2907 13.2413 51.1812 13.132L38.4019 0.373631C38.2923 0.264274 38.1628 0.185668 38.0271 0.123597C37.9883 0.105941 37.9489 0.0951188 37.9078 0.0814492C37.8 0.0444266 37.691 0.0227843 37.5775 0.0159488C37.5501 0.01424 37.5256 0 37.4982 0H1.27793C0.572222 0 0 0.571282 0 1.27583V70.7242C0 71.4287 0.572222 72 1.27793 72H50.2775C50.9832 72 51.5555 71.4287 51.5555 70.7242V57.6491C52.9321 57.3301 54.2483 56.8351 55.4897 56.1756L62.7318 62.2501C63.7564 63.1124 65.0183 63.5715 66.3327 63.5715C66.5176 63.5715 66.703 63.5624 66.8896 63.5441C68.4048 63.396 69.7672 62.655 70.7257 61.4589C72.6928 59.0178 72.3429 55.405 69.9496 53.4076ZM60.4969 47.3912C60.4712 47.4339 60.4461 47.4812 60.4296 47.5171C59.9372 48.5713 59.3154 49.5572 58.5817 50.4475C57.5514 51.6966 56.3431 52.7383 54.9813 53.5493C53.4741 54.4646 51.8213 55.0723 50.0608 55.3594C46.0587 56.0509 41.9476 54.9619 38.7979 52.3794C32.8144 47.456 31.9467 38.5947 36.8621 32.6251C37.2335 32.1746 37.6352 31.7576 38.0534 31.3618C38.1926 31.2302 38.342 31.1129 38.4858 30.9876C38.7756 30.7352 39.07 30.4898 39.3775 30.2631C39.5561 30.1315 39.7398 30.0096 39.9235 29.8872C40.2173 29.6912 40.5174 29.5061 40.8237 29.3335C41.02 29.223 41.2179 29.1143 41.4188 29.0134C41.7383 28.8528 42.0657 28.7104 42.396 28.5749C42.5923 28.4946 42.7857 28.408 42.9848 28.3368C43.3842 28.1938 43.7921 28.0765 44.2028 27.97C44.3397 27.9347 44.4732 27.8857 44.6113 27.8544C45.1556 27.7302 45.709 27.6414 46.2663 27.5833C46.4398 27.565 46.6161 27.5662 46.7906 27.5542C47.2037 27.5269 47.6173 27.5064 48.0338 27.5155C48.161 27.5183 48.2882 27.5252 48.4154 27.5314C48.9597 27.5588 49.5057 27.6066 50.0499 27.6989C50.0561 27.7 50.0624 27.7 50.0687 27.7012C52.4659 28.0959 54.7405 29.1308 56.6472 30.6936C61.6003 34.7575 63.1778 41.6154 60.4969 47.3912ZM47.1926 12.7582H38.7765L38.776 4.3559L47.1926 12.7582ZM48.9994 69.4482H2.5557V2.5515H36.2201V14.034C36.2201 14.7386 36.7923 15.3098 37.498 15.3098H48.9994V25.0007C48.9441 24.9961 48.8893 25.0018 48.8345 24.9978C48.2458 24.9579 47.6582 24.9448 47.0733 24.9682C46.998 24.971 46.9239 24.9784 46.8486 24.9824C46.2415 25.0149 45.6374 25.073 45.0406 25.171C45.0172 25.175 44.995 25.1806 44.9716 25.1846C44.3845 25.2837 43.8055 25.4182 43.2343 25.5793C43.1681 25.5981 43.102 25.6129 43.0363 25.6323C42.4807 25.7958 41.9364 25.9934 41.4013 26.2138C41.3112 26.2509 41.2205 26.2862 41.1309 26.3249C40.6106 26.5499 40.1028 26.8033 39.6064 27.0802C39.5152 27.1309 39.425 27.1821 39.3349 27.2351C38.842 27.5227 38.3627 27.8343 37.9001 28.1726C37.8236 28.2284 37.7494 28.2871 37.6741 28.344C37.2046 28.6994 36.7499 29.0765 36.318 29.4837C36.2701 29.5287 36.2256 29.5766 36.1788 29.6222C35.7276 30.0573 35.2934 30.5147 34.8889 31.0045C29.0789 38.0598 30.1029 48.5308 37.1739 54.3501C37.5704 54.6753 37.9817 54.9777 38.4027 55.2625C38.5436 55.3582 38.6914 55.4408 38.8346 55.5314C39.1193 55.7113 39.404 55.8896 39.6978 56.0514C39.8764 56.1499 40.0595 56.2365 40.2409 56.3282C40.5085 56.4632 40.7755 56.5959 41.0493 56.7155C41.249 56.8032 41.4515 56.8812 41.6541 56.961C41.9182 57.0646 42.1835 57.1637 42.4522 57.2532C42.6644 57.3238 42.8772 57.3887 43.0917 57.4508C43.3599 57.5283 43.6297 57.5989 43.9013 57.6627C44.1186 57.7139 44.336 57.7629 44.5551 57.8051C44.8335 57.8586 45.1136 57.9013 45.3949 57.9412C45.61 57.9714 45.8239 58.0033 46.0395 58.0249C46.3419 58.0551 46.6448 58.0699 46.9489 58.0836C47.1458 58.0921 47.3414 58.1075 47.5388 58.1092C47.5879 58.1098 47.6364 58.1155 47.6849 58.1155C48.0278 58.1155 48.3718 58.0933 48.7158 58.0716C48.8105 58.0654 48.9046 58.0705 48.9993 58.0625L48.9994 69.4482ZM68.7322 59.8607L68.7299 59.8635C68.205 60.5185 67.4628 60.9229 66.639 61.0044C65.8215 61.087 65.016 60.8335 64.377 60.2975L57.7632 54.7505C57.8442 54.6895 57.9149 54.6155 57.9948 54.5528C58.3411 54.2806 58.6771 53.9947 59.0023 53.6934C59.1255 53.5795 59.2493 53.4667 59.3691 53.3488C59.7816 52.9433 60.1815 52.5218 60.5546 52.0695C60.938 51.6042 61.286 51.1104 61.6164 50.6034C61.6814 50.5032 61.7481 50.4046 61.8115 50.3027C61.8645 50.2172 61.9244 50.1358 61.9758 50.0492L68.3073 55.3633C69.6429 56.4779 69.8332 58.4953 68.7322 59.8607Z" fill="#B68C6E"/>
<path d="M41.3327 38.3469C41.3327 38.6841 41.3675 39.015 41.4188 39.3408C41.4337 39.4348 41.4537 39.5271 41.4725 39.6199C41.5221 39.8654 41.586 40.1057 41.6636 40.3415C41.691 40.4241 41.7144 40.5078 41.7452 40.5893C41.8593 40.8929 41.9916 41.1874 42.1502 41.4693C42.1731 41.5092 42.201 41.5456 42.2244 41.5849C42.3676 41.8264 42.5279 42.0571 42.7025 42.2781C42.7299 42.3128 42.7493 42.3533 42.7778 42.3874C42.6152 42.4951 42.4634 42.6153 42.3094 42.7326C42.2341 42.7901 42.1537 42.8414 42.0806 42.9012C41.8433 43.0943 41.6168 43.2982 41.4052 43.5135C39.7102 45.1885 38.7768 47.4321 38.7768 49.8288C38.7768 50.5333 39.3491 51.1046 40.0548 51.1046H55.39C56.0957 51.1046 56.6679 50.5333 56.6679 49.8288C56.6679 47.4315 55.7351 45.1891 54.0527 43.5248C53.8388 43.3078 53.6117 43.1028 53.3738 42.9086C53.2866 42.8374 53.1919 42.7758 53.1017 42.7081C52.9579 42.5998 52.8176 42.4871 52.667 42.3874C52.6955 42.3527 52.7155 42.3122 52.7434 42.2769C52.9157 42.0588 53.0737 41.8309 53.2152 41.5929C53.2409 41.5501 53.2717 41.5103 53.2963 41.467C53.4543 41.1868 53.5861 40.8929 53.6996 40.591C53.731 40.5078 53.7549 40.423 53.7823 40.3387C53.8593 40.104 53.9232 39.8653 53.9723 39.621C53.9911 39.527 54.0117 39.4348 54.0265 39.3402C54.0778 39.0138 54.1127 38.6835 54.1127 38.3463C54.1127 34.8292 51.2458 31.9671 47.723 31.9671C44.1995 31.9677 41.3327 34.8298 41.3327 38.3469ZM41.4594 48.5536C41.7052 47.3324 42.306 46.2138 43.2159 45.315C43.4983 45.0279 43.8212 44.7768 44.1607 44.5484C44.2651 44.4783 44.3775 44.4202 44.4864 44.3564C44.6462 44.2624 44.8156 44.1867 44.9839 44.107C45.0027 44.1161 45.0227 44.1223 45.0421 44.1309C45.1322 44.1725 45.2241 44.2066 45.3159 44.2442C45.4688 44.3063 45.6229 44.3638 45.7803 44.4134C45.9058 44.4533 46.0314 44.4886 46.1586 44.521C46.2727 44.5489 46.3873 44.5723 46.5026 44.5945C46.6635 44.6258 46.8232 44.656 46.9864 44.6748C47.0286 44.6794 47.0708 44.6799 47.113 44.6839C47.315 44.7033 47.5169 44.7267 47.7218 44.7267C47.9277 44.7267 48.1302 44.7033 48.3339 44.6839C48.375 44.6799 48.4155 44.6799 48.4566 44.6754C48.6209 44.6566 48.7818 44.6258 48.9432 44.5945C49.0573 44.5729 49.1708 44.5501 49.2838 44.5222C49.4122 44.4897 49.5388 44.4544 49.6655 44.414C49.8223 44.3644 49.9753 44.3069 50.1282 44.2454C50.22 44.2078 50.3124 44.1736 50.4026 44.132C50.4214 44.1235 50.4419 44.1172 50.4608 44.1081C50.6302 44.1884 50.8013 44.2653 50.9628 44.3604C51.0706 44.4242 51.1824 44.4812 51.2863 44.5512C51.6286 44.7813 51.9543 45.0354 52.2424 45.3281C53.1421 46.2184 53.7406 47.3348 53.9864 48.5553L41.4594 48.5536ZM51.5562 38.3469C51.5562 39.67 50.8819 40.8833 49.7518 41.5918C49.1356 41.9779 48.4293 42.1716 47.723 42.1716C47.3698 42.1716 47.0167 42.1232 46.6744 42.0269C46.3327 41.9301 46.0018 41.7854 45.6937 41.5918L45.6926 41.5912C44.563 40.8821 43.8886 39.6694 43.8886 38.3463C43.8886 36.2355 45.608 34.5188 47.7224 34.5188C49.8367 34.5194 51.5562 36.2366 51.5562 38.3469Z" fill="#B68C6E"/>
<path d="M8.94624 14.0343H15.3359C16.0416 14.0343 16.6138 13.463 16.6138 12.7585C16.6138 12.0539 16.0416 11.4826 15.3359 11.4826H8.94624C8.24053 11.4826 7.6683 12.0539 7.6683 12.7585C7.6683 13.463 8.24053 14.0343 8.94624 14.0343Z" fill="#B68C6E"/>
<path d="M20.0825 14.0343H28.8455C29.5512 14.0343 30.1234 13.463 30.1234 12.7585C30.1234 12.0539 29.5512 11.4826 28.8455 11.4826H20.0825C19.3768 11.4826 18.8046 12.0539 18.8046 12.7585C18.8046 13.463 19.3768 14.0343 20.0825 14.0343Z" fill="#B68C6E"/>
<path d="M8.94624 21.6893H33.6651C34.3708 21.6893 34.943 21.118 34.943 20.4135C34.943 19.7089 34.3708 19.1376 33.6651 19.1376H8.94624C8.24053 19.1376 7.6683 19.7089 7.6683 20.4135C7.6683 21.118 8.24053 21.6893 8.94624 21.6893Z" fill="#B68C6E"/>
<path d="M26.2896 46.4834H21.1779V42.6559C21.1779 41.9514 20.6057 41.3801 19.8999 41.3801H14.058C13.3523 41.3801 12.78 41.9514 12.78 42.6559V46.4834H7.6683C6.96259 46.4834 6.39037 47.0547 6.39037 47.7593V63.0693C6.39037 63.7738 6.96259 64.3451 7.6683 64.3451H26.2896C26.9953 64.3451 27.5675 63.7738 27.5675 63.0693V47.7593C27.5675 47.0547 26.9953 46.4834 26.2896 46.4834ZM15.3359 43.9318H18.622V46.4834H15.3359V43.9318ZM8.94624 49.0351H25.0117V52.8626H8.94624V49.0351ZM25.0117 61.7935H8.94624V55.4143H25.0117V61.7935Z" fill="#B68C6E"/>
<path d="M8.94624 29.38H15.3359C16.0416 29.38 16.6138 28.8087 16.6138 28.1042C16.6138 27.3996 16.0416 26.8283 15.3359 26.8283H8.94624C8.24053 26.8283 7.6683 27.3996 7.6683 28.1042C7.6683 28.8087 8.24053 29.38 8.94624 29.38Z" fill="#B68C6E"/>
<path d="M20.0825 29.38H28.8455C29.5512 29.38 30.1234 28.8087 30.1234 28.1042C30.1234 27.3996 29.5512 26.8283 28.8455 26.8283H20.0825C19.3768 26.8283 18.8046 27.3996 18.8046 28.1042C18.8046 28.8087 19.3768 29.38 20.0825 29.38Z" fill="#B68C6E"/>
<path d="M8.94624 36.8495H15.3359C16.0416 36.8495 16.6138 36.2782 16.6138 35.5736C16.6138 34.8691 16.0416 34.2978 15.3359 34.2978H8.94624C8.24053 34.2978 7.6683 34.8691 7.6683 35.5736C7.6683 36.2782 8.24053 36.8495 8.94624 36.8495Z" fill="#B68C6E"/>
<path d="M20.0825 36.8495H25.8455C26.5512 36.8495 27.1234 36.2782 27.1234 35.5736C27.1234 34.8691 26.5512 34.2978 25.8455 34.2978H20.0825C19.3768 34.2978 18.8046 34.8691 18.8046 35.5736C18.8046 36.2782 19.3768 36.8495 20.0825 36.8495Z" fill="#B68C6E"/>
</svg>
