<svg width="72" height="72" viewBox="0 0 72 72" fill="none" xmlns="http://www.w3.org/2000/svg">
<rect width="72" height="72" fill="#E5E5E5"/>
<g clip-path="url(#clip0_503_16)">
<rect width="1920" height="11866" transform="translate(-1021 -2748)" fill="white"/>
<path fill-rule="evenodd" clip-rule="evenodd" d="M0 5.6838C0 2.54213 2.53731 0 5.6838 0H66.3162C69.4579 0 72 2.53731 72 5.6838V66.3162C72 69.4579 69.4627 72 66.3162 72H5.6838C2.54213 72 0 69.4627 0 66.3162V5.6838ZM3.78997 5.6838V66.3162C3.78997 67.3685 4.63366 68.2107 5.68397 68.2107H66.3164C67.3687 68.2107 68.2109 67.3671 68.2109 66.3162V5.6838C68.2109 4.63147 67.3672 3.78926 66.3164 3.78926H5.68397C4.63164 3.78926 3.78997 4.63295 3.78997 5.6838ZM37.8938 22.7377V37.111L46.8129 46.0294C47.5526 46.7691 47.5526 47.9693 46.8129 48.709C46.0725 49.4487 44.873 49.4487 44.1332 48.709L34.6594 39.2353C34.3042 38.8801 34.1047 38.3979 34.1047 37.8954V22.7377C34.1047 21.6909 34.9532 20.8432 35.9992 20.8432C37.046 20.8432 37.8938 21.691 37.8938 22.7377Z" fill="#B68C6E"/>
<rect x="-44" y="-44" width="374" height="348" stroke="#F0E3DA" stroke-width="2"/>
</g>
<defs>
<clipPath id="clip0_503_16">
<rect width="1920" height="11866" fill="white" transform="translate(-1021 -2748)"/>
</clipPath>
</defs>
</svg>
