<svg width="42" height="35" viewBox="0 0 42 35" fill="none" xmlns="http://www.w3.org/2000/svg">
<path d="M8.17907 22.0242C9.0632 22.0242 9.81478 21.318 9.81478 20.3912C9.81478 19.5086 9.10734 18.7583 8.17907 18.7583L1.6357 18.758C0.751576 18.758 0 19.4642 0 20.3909C0 21.2736 0.707437 22.0239 1.6357 22.0239L8.17907 22.0242Z" fill="#B68C6E"/>
<path d="M9.50538 12.3142H2.9182C2.03407 12.3142 1.28249 13.0205 1.28249 13.9472C1.28249 14.8298 1.98993 15.5801 2.9182 15.5801L9.50538 15.5804C10.3895 15.5804 11.1411 14.8742 11.1411 13.9475C11.097 13.0645 10.3899 12.3142 9.50538 12.3142Z" fill="#B68C6E"/>
<path d="M9.50538 25.202H2.9182C2.03407 25.202 1.28249 25.9083 1.28249 26.835C1.28249 27.7176 1.98993 28.468 2.9182 28.468L9.50538 28.4683C10.3895 28.4683 11.1411 27.762 11.1411 26.8353C11.097 25.9523 10.3899 25.202 9.50538 25.202Z" fill="#B68C6E"/>
<path d="M29.0464 5.95856V3.26624H30.9032C31.7873 3.26624 32.5389 2.55999 32.5389 1.63328C32.5389 0.706254 31.8315 0.000307871 30.9032 0.000307871L23.918 0C23.0338 0 22.2823 0.706253 22.2823 1.63297C22.2823 2.55999 22.9897 3.26594 23.918 3.26594H25.7748V5.95825C18.4802 6.75255 12.8212 12.9318 12.8212 20.435C12.8212 28.4678 19.3642 35 27.4106 35C35.4569 35 42 28.4679 42 20.435C41.9997 12.9322 36.3408 6.7535 29.0464 5.95825V5.95856ZM27.4103 31.7342C21.1766 31.7342 16.0925 26.6587 16.0925 20.4353C16.0925 14.212 21.1765 9.09225 27.4103 9.09225C33.6441 9.09225 38.7282 14.1678 38.7282 20.3912C38.7282 26.6145 33.6442 31.7342 27.4103 31.7342Z" fill="#B68C6E"/>
<path d="M32.8042 18.7581H29.0022V14.0797C29.0022 13.1971 28.2947 12.4468 27.3664 12.4468C26.4823 12.4468 25.7307 13.153 25.7307 14.0797V20.4355C25.7307 21.3181 26.4382 22.0684 27.3664 22.0684H32.7601C33.6442 22.0684 34.3958 21.3622 34.3958 20.4355C34.4399 19.5088 33.7328 18.7582 32.8042 18.7582V18.7581Z" fill="#B68C6E"/>
</svg>
