<svg width="92" height="58" viewBox="0 0 92 58" fill="none" xmlns="http://www.w3.org/2000/svg">
<path d="M21.3552 0C9.57698 0 0 9.39278 0 20.9444C0 31.2072 7.50717 39.8589 17.692 41.5828C18.2505 48.9617 12.041 55.1806 11.9753 55.245C11.4497 55.7767 11.3347 56.5661 11.7125 57.1944C12.0246 57.71 12.5667 58 13.1417 58C13.2731 58 13.4209 57.9839 13.5688 57.9356C43.3839 49.8156 42.7597 22.4106 42.7104 20.9122C42.6775 9.37667 33.117 0 21.3552 0Z" fill="#F0E3DA"/>
<path d="M91.9916 20.9122C91.9587 9.37667 82.3982 0 70.6364 0C58.8582 0 49.2812 9.39278 49.2812 20.9444C49.2812 31.2072 56.7884 39.8589 66.9732 41.5828C67.5317 48.9617 61.3223 55.1806 61.2565 55.245C60.7309 55.7767 60.6159 56.5661 60.9937 57.1944C61.3058 57.71 61.8479 58 62.4229 58C62.5543 58 62.7021 57.9839 62.85 57.9356C92.6651 49.8156 92.0409 22.4106 91.9916 20.9122Z" fill="#F0E3DA"/>
</svg>
