<svg width="24" height="24" viewBox="0 0 24 24" fill="none" xmlns="http://www.w3.org/2000/svg">
<path d="M20.3077 9.30769C20.3077 9.61539 20.4231 9.88461 20.6538 10.1154C20.8846 10.3462 21.1538 10.4615 21.4615 10.4615C21.7692 10.4615 22.0385 10.3462 22.2692 10.1154C23.3846 9 24 7.5 24 5.92308C24 4.34615 23.3846 2.84615 22.2692 1.73077C21.1538 0.615385 19.6538 0 18.0769 0C16.5 0 15 0.615385 13.8846 1.73077L1.73077 13.8846C0.615385 15 0 16.5 0 18.0769C0 19.6538 0.615385 21.1538 1.73077 22.2692C2.84615 23.3846 4.34615 24 5.92308 24C7.5 24 9 23.3846 10.1154 22.2692L18.3846 14C19.6154 12.6154 19.5385 10.5 18.2308 9.15385C17.5769 8.5 16.6923 8.11539 15.7308 8.11539C14.7692 8.11539 13.8846 8.5 13.2308 9.15385L6.46154 15.9231C6.23077 16.1538 6.11539 16.4231 6.11539 16.7308C6.11539 17.0385 6.23077 17.3077 6.46154 17.5385C6.88462 17.9615 7.65385 17.9615 8.07692 17.5385L14.8462 10.7692C15.3077 10.3077 16.1154 10.3077 16.6154 10.7692C17.1154 11.2692 17.1154 12.0385 16.6154 12.5385L8.5 20.6538C7.80769 21.3462 6.88462 21.7308 5.92308 21.7308C4.96154 21.7308 4.03846 21.3462 3.34615 20.6538C2.65385 19.9615 2.26923 19.0385 2.26923 18.0769C2.26923 17.1154 2.65385 16.1923 3.34615 15.5L15.5 3.34615C16.1923 2.65385 17.1154 2.26923 18.0769 2.26923C19.0385 2.26923 19.9615 2.65385 20.6538 3.34615C22.0769 4.76923 22.0769 7.07692 20.6538 8.5C20.4231 8.69231 20.3077 9 20.3077 9.30769Z" fill="#B68C6E"/>
</svg>
