<svg width="219" height="84" viewBox="0 0 219 84" fill="none" xmlns="http://www.w3.org/2000/svg">
<path d="M32.5005 14.1547C33.6796 8.40491 29.6556 7.85973 25.3939 11.5269C15.5178 20.1142 8.82183 41.0881 6.0871 53.2026C3.01053 66.8314 6.54834 80.7053 13.7048 82.0302C16.5336 82.7216 16.2604 80.8308 14.3194 79.8049C10.1337 77.6647 6.61979 69.5943 11.0213 48.809C22.7883 39.9485 31.4869 21.5993 32.5005 14.1547ZM13.1456 41.6217C16.2461 33.7963 21.548 20.7821 27.6273 14.9432C28.588 13.9054 29.007 14.3896 28.5652 15.9078C27.2708 21.2617 18.7411 38.8038 11.97 44.8695C12.3234 43.6549 12.7806 42.5365 13.1456 41.6217ZM43.4895 21.6364C39.8185 17.2747 37.325 22.6749 36.691 24.4007C35.0081 27.4679 35.8233 30.4386 37.1493 31.088C38.4484 31.0378 42.4674 23.6773 43.4895 21.6364ZM29.5449 41.489C17.5761 63.2669 25.4127 64.0652 28.7369 62.0355C33.8173 58.8371 49.5886 47.4203 48.954 43.9422C48.5925 42.3549 36.3378 54.1364 28.0023 58.5612C26.265 57.6276 30.0877 47.7728 32.8775 44.863C34.5107 43.0987 34.9216 40.7811 32.1237 40.8891C31.0245 40.9315 30.8285 41.0392 29.5449 41.489ZM62.3015 44.2275C63.0932 43.9968 63.4813 43.6816 63.8579 43.0666C64.4879 41.2409 65.2329 37.2092 62.9038 36.4985C52.2534 32.8066 40.5802 51.8711 41.773 62.0326C42.1962 65.2187 43.8953 67.755 47.0509 69.1343C52.2397 71.3358 66.5854 61.8754 76.8871 46.1663C78.3243 44.5096 77.8664 40.4243 75.5109 44.218C68.3143 57.4054 53.4149 65.4861 50.0865 64.814C46.1508 63.9652 44.7126 57.8161 50.0766 49.0026C54.8758 41.1116 61.7236 34.4425 62.3015 44.2275ZM82.6936 61.5538C76.6139 64.7907 75.2833 58.8376 75.9396 52.5076C84.6409 52.3718 88.5099 43.7162 88.7055 41.0066C88.751 37.0019 86.4103 35.9914 83.624 36.3992C75.0689 37.7302 70.6583 47.9079 71.4858 56.3823C72.098 64.4647 78.7359 67.9112 85.7839 63.8363C93.1241 59.5499 100.037 49.3757 104.314 43.5064C104.871 42.3841 103.218 41.0468 102.18 42.6881C99.3446 47.0007 90.1452 57.5634 82.6936 61.5538ZM83.2015 38.417C88.2788 40.3225 81.5428 49.8895 76.4505 50.1862C77.4528 45.0437 80.6266 39.1168 83.2015 38.417ZM116.729 55.1361C116.465 61.2509 119.713 62.4265 123.356 60.8848C127.472 58.6243 138.954 47.5732 141.009 41.1891C141.098 40.8855 139.814 41.3354 139.43 41.7505C135.994 46.0862 124.332 57.6447 121.634 57.7489C118.636 57.8646 122.793 46.2956 124.879 40.711C125.059 40.2037 128.106 33.5812 124.909 33.7046C118.014 33.9708 106.989 49.1073 102.098 57.202C103.477 51.4446 106.704 44.3148 107.649 40.2753C108.698 36.3319 108.275 35.7478 104.878 35.8789C103.379 35.9368 102.506 36.671 102.553 37.8701C103.107 41.8517 97.6245 57.9752 95.7266 63.2523C94.9662 66.8843 95.2929 67.5723 100.189 67.3832C103.417 60.2534 113.519 44.5521 120.589 38.4748C121.173 38.052 121.489 38.4401 121.404 38.8436C120.513 41.6801 117.113 49.5171 116.729 55.1361ZM146.967 58.0719C147.328 51.8534 163.999 43.0037 165.924 41.028C166.112 40.7205 166.077 39.8211 165.386 40.048C157.015 43.5735 150.187 48.1403 145.16 52.7376C142.262 47.6456 143.69 37.9834 149.166 34.6696C149.754 34.3467 149.608 33.1515 148.409 33.1978C146.418 33.4748 139.197 38.2569 139.152 44.8635C139.156 47.5654 138.799 51.2819 142.466 55.5436C139.581 58.5572 137.39 61.4438 136.188 63.9921C133.59 69.2962 136.796 71.9746 140.677 68.8225C142.914 67.135 146.322 62.0998 146.967 58.0719ZM171.299 58.1333C165.22 61.3703 163.889 55.4172 164.545 49.0871C173.247 48.9514 177.116 40.2957 177.311 37.5861C177.357 33.5814 175.016 32.5709 172.23 32.9787C163.675 34.3097 159.264 44.4874 160.092 52.9618C160.704 61.0442 167.342 64.4907 174.39 60.4158C181.73 56.1295 188.643 45.9553 192.919 40.0859C193.477 38.9636 191.824 37.6264 190.786 39.2676C187.95 43.5802 178.751 54.1429 171.299 58.1333ZM171.807 34.9965C176.885 36.9021 170.149 46.469 165.056 46.7657C166.059 41.6232 169.232 35.6964 171.807 34.9965ZM198.199 56.0942C198.559 49.8757 215.23 41.026 217.155 39.0503C217.344 38.7428 217.309 37.8434 216.617 38.0703C208.247 41.5958 201.418 46.1626 196.392 50.7599C193.493 45.668 194.921 36.0057 200.398 32.692C200.986 32.369 200.839 31.1738 199.64 31.2201C197.649 31.4971 190.429 36.2792 190.383 42.8858C190.388 45.5877 190.031 49.3042 193.698 53.5659C190.812 56.5795 188.622 59.4661 187.419 62.0144C184.822 67.3186 188.027 69.9969 191.909 66.8448C194.145 65.1573 197.554 60.1221 198.199 56.0942Z" fill="#1D1D1A"/>
</svg>
