<svg width="355" height="1376" viewBox="0 0 355 1376" fill="none" xmlns="http://www.w3.org/2000/svg">
<path opacity="0.4" d="M187.161 316.118C215.809 377.544 248.949 409.22 259.181 368.991C271.041 322.358 231.771 302.715 187.161 316.118ZM187.161 316.118C135.578 331.616 76.8543 391.299 81.7877 504.528C90.9875 715.679 171.186 795.204 226.256 959.591C245.967 1018.43 228.379 1087.86 195.827 1147.47M187.161 316.118C147.423 230.914 116.327 88.469 166.996 1.28711M195.827 1147.47C137.434 1254.39 30.8899 1329.7 5.10083 1255.56C-18.8338 1186.75 84.5482 1089.19 195.827 1147.47ZM195.827 1147.47C251.491 1176.62 309.132 1244.77 353.801 1375.02" stroke="white" stroke-width="2"/>
</svg>
