<svg width="456" height="1673" viewBox="0 0 456 1673" fill="none" xmlns="http://www.w3.org/2000/svg">
<path opacity="0.4" d="M181.278 1672.74C193.747 1527.17 128.61 1429.45 73.2967 1384.24M73.2967 1384.24C32.7453 1351.1 -2.52553 1346.18 1.93574 1371.32C8.05569 1405.81 35.4115 1441.19 73.2967 1384.24ZM73.2967 1384.24C100.699 1343.05 133.609 1253.56 167.977 1080.49C201.066 913.856 258.611 836.792 313.513 809.4M324.32 1.09326C374.978 59.1488 351.071 169.357 319.817 233.198M319.817 233.198C298.974 275.772 274.864 297.727 267.421 269.844C258.792 237.523 287.362 223.909 319.817 233.198ZM319.817 233.198C357.345 243.94 400.068 285.305 396.479 363.783C389.786 510.13 331.439 565.248 291.375 679.182C277.034 719.964 289.83 768.087 313.513 809.4M313.513 809.4C355.995 883.507 433.508 935.703 452.271 884.314C469.684 836.621 394.471 769.007 313.513 809.4Z" stroke="#EAD8CD" stroke-width="2"/>
</svg>
