<svg width="355" height="1091" viewBox="0 0 355 1091" fill="none" xmlns="http://www.w3.org/2000/svg">
<path opacity="0.3" d="M167.92 251.045C139.272 299.734 106.132 324.841 95.9005 292.954C84.0403 255.991 123.31 240.421 167.92 251.045ZM167.92 251.045C219.504 263.329 278.227 310.636 273.294 400.385C264.094 567.75 183.895 630.784 128.826 761.083C109.114 807.721 126.702 862.756 159.255 910.002M167.92 251.045C207.658 183.509 238.754 70.6032 188.085 1.5M159.255 910.002C217.647 994.753 324.191 1054.45 349.98 995.677C373.915 941.134 270.533 863.809 159.255 910.002ZM159.255 910.002C103.59 933.11 45.9493 987.126 1.28076 1090.36" stroke="#EAD8CD" stroke-width="2"/>
</svg>
